<?xml version="1.0" standalone="no"?>
<!DOCTYPE svg PUBLIC "-//W3C//DTD SVG 20010904//EN"
 "http://www.w3.org/TR/2001/REC-SVG-20010904/DTD/svg10.dtd">
<svg version="1.0" xmlns="http://www.w3.org/2000/svg"
 width="200.000000pt" height="100.000000pt" viewBox="0 0 1200.000000 1003.000000"
 preserveAspectRatio="xMidYMid meet">

<g transform="translate(0.000000,1003.000000) scale(0.100000,-0.100000)"
fill="#FFFFfF" stroke="none">
<path d="M5275 9968 c-809 -42 -1651 -305 -2316 -723 -9 -5 -30 -18 -48 -28
-29 -16 -153 -99 -224 -150 -64 -45 -293 -222 -322 -248 -16 -15 -57 -50 -90
-79 -87 -76 -313 -300 -409 -405 -653 -716 -1085 -1636 -1225 -2610 -34 -235
-46 -427 -46 -720 0 -370 24 -628 87 -952 20 -99 21 -115 8 -127 -8 -7 -91
-53 -185 -101 -171 -88 -338 -181 -429 -238 l-49 -31 34 -12 c19 -7 42 -13 52
-13 10 -1 85 37 165 83 130 74 429 226 444 226 4 0 11 -21 17 -47 10 -42 42
-159 85 -303 7 -25 41 -119 75 -210 35 -91 69 -183 77 -205 33 -88 237 -488
311 -608 43 -71 83 -136 88 -145 139 -230 391 -542 658 -814 48 -49 87 -93 87
-97 0 -4 -26 -30 -57 -57 -31 -27 -67 -58 -79 -69 -12 -11 -57 -51 -100 -90
-43 -38 -108 -97 -144 -130 -59 -55 -91 -84 -169 -154 -14 -13 -58 -55 -98
-93 -61 -59 -73 -76 -78 -112 -15 -97 -10 -95 145 57 166 162 313 295 565 512
94 81 83 79 145 24 66 -60 324 -268 383 -310 116 -82 365 -243 467 -301 811
-462 1753 -686 2688 -639 380 19 684 64 1027 153 467 121 890 298 1293 541 56
34 110 67 120 72 54 32 225 152 345 243 234 177 533 457 738 692 68 78 223
271 249 310 8 13 24 35 35 49 52 68 168 242 214 322 18 30 36 61 41 69 71 112
262 494 290 580 5 14 23 59 40 100 52 123 147 421 194 604 105 417 149 782
149 1226 0 482 -56 893 -184 1360 -22 80 -124 382 -157 465 -11 28 -32 79 -46
114 l-25 63 41 37 c389 339 753 707 989 1001 137 169 399 528 399 545 0 3 8
18 18 33 50 73 75 114 117 192 66 122 179 354 210 430 14 36 32 79 39 95 8 17
17 48 21 69 6 38 3 35 -81 -70 -351 -438 -800 -849 -1379 -1263 -216 -154
-671 -451 -692 -451 -4 0 -46 57 -93 128 -362 544 -859 1041 -1395 1394 -137
90 -214 138 -222 138 -3 0 -14 6 -22 14 -19 16 -133 77 -290 156 -767 382
-1616 555 -2496 508z m640 -158 c279 -14 523 -52 832 -126 488 -119 912 -299
1386 -589 94 -58 288 -197 413 -297 180 -145 185 -150 399 -361 281 -278 426
-450 623 -739 107 -159 109 -141 -22 -216 -61 -35 -149 -84 -196 -109 -47 -25
-89 -49 -95 -53 -12 -10 -469 -238 -615 -308 -209 -99 -277 -131 -535 -247
-33 -15 -78 -35 -100 -45 -117 -53 -311 -136 -466 -199 -95 -39 -194 -80 -219
-91 -78 -34 -480 -190 -490 -190 -6 0 -10 -2 -10 -5 0 -2 42 -60 93 -127 89
-117 95 -123 137 -131 25 -4 85 -17 133 -29 l88 -21 90 62 c50 33 96 61 103
61 19 0 26 -33 26 -122 0 -43 3 -78 6 -78 3 0 26 9 52 19 26 11 83 33 127 51
44 17 89 35 100 40 11 5 54 23 95 39 74 28 257 108 415 179 327 149 793 399
1105 595 85 53 161 97 170 97 18 0 -38 -55 -165 -160 -49 -41 -96 -82 -105
-90 -21 -20 -114 -98 -154 -130 -49 -38 -185 -147 -235 -189 -82 -67 -679
-517 -761 -573 -14 -10 -56 -40 -95 -67 -122 -87 -245 -172 -401 -276 -135
-91 -151 -104 -141 -121 6 -10 25 -43 44 -72 l33 -52 362 243 c525 352 667
451 1046 730 169 124 369 274 426 319 208 167 363 292 411 333 33 28 85 72
117 99 l56 47 50 -128 c160 -410 252 -798 299 -1253 24 -234 24 -799 0 -1035
-76 -729 -293 -1378 -667 -1990 -137 -224 -260 -392 -461 -630 -67 -80 -476
-483 -559 -552 -143 -119 -399 -312 -461 -348 -10 -5 -87 -52 -171 -103 -543
-331 -1136 -536 -1818 -629 -187 -26 -214 -27 -645 -27 -410 0 -465 2 -620 22
-699 92 -1308 299 -1855 630 -113 68 -157 97 -299 197 -149 105 -471 373 -471
393 0 5 54 53 121 107 66 54 126 103 132 109 15 14 253 203 462 367 324 255
935 709 1290 959 155 109 382 267 460 320 53 36 102 70 108 75 15 12 593 397
737 490 58 38 155 100 215 140 61 39 187 120 280 179 94 59 217 139 275 177
58 38 111 72 118 76 8 3 56 33 107 67 52 34 150 97 220 141 69 44 195 125 280
180 85 55 199 129 255 164 55 35 100 67 99 70 0 3 -9 20 -19 36 -11 17 -29 47
-40 68 -11 20 -23 37 -25 37 -3 0 -63 -37 -133 -83 -70 -46 -243 -155 -385
-243 -549 -340 -654 -405 -720 -446 -87 -55 -346 -224 -462 -301 -169 -113
-630 -421 -715 -477 -646 -429 -1150 -788 -1555 -1109 -150 -119 -384 -309
-450 -366 -89 -76 -230 -198 -241 -209 -6 -6 -40 -36 -75 -66 -72 -63 -182
-165 -316 -293 -69 -67 -96 -87 -110 -83 -32 10 -299 290 -444 466 -270 328
-558 813 -694 1170 -8 19 -23 60 -35 90 -28 72 -97 280 -116 350 -50 183 -73
285 -67 291 7 7 293 122 403 162 57 21 252 212 257 252 4 30 -2 31 -59 6 -69
-30 -424 -206 -527 -261 -98 -53 -104 -54 -116 -5 -15 62 -47 296 -61 446 -21
215 -24 739 -6 949 39 448 143 906 292 1290 12 30 27 71 35 90 13 36 17 45 80
185 95 209 221 436 354 634 194 289 344 472 594 726 399 405 798 701 1254 929
280 141 455 211 788 316 143 45 540 130 675 145 30 3 86 11 125 17 159 25 652
34 950 18z"/>
<path d="M5536 9537 c-36 -26 4 -84 42 -61 24 16 27 45 6 61 -10 7 -21 13 -24
13 -3 0 -14 -6 -24 -13z"/>
<path d="M6526 9108 c-4 -27 -11 -48 -17 -48 -5 0 -19 -10 -31 -22 -12 -13
-41 -28 -63 -34 l-40 -11 39 -8 c51 -10 101 -59 111 -111 l8 -39 9 39 c11 51
66 101 121 111 l42 8 -43 8 c-52 10 -106 63 -119 117 l-9 37 -8 -47z"/>
<path d="M5219 8989 c-18 -34 3 -69 41 -69 22 0 33 6 41 24 16 35 -3 66 -41
66 -20 0 -33 -7 -41 -21z"/>
<path d="M5802 8934 c-28 -19 -29 -60 -1 -74 32 -18 62 -8 74 24 8 24 6 31
-14 47 -28 23 -31 23 -59 3z"/>
<path d="M4586 8594 c-31 -30 -8 -69 36 -62 26 3 37 41 18 64 -16 18 -35 18
-54 -2z"/>
<path d="M5376 8581 c-26 -29 -17 -56 18 -56 40 0 56 27 32 54 -23 26 -28 26
-50 2z"/>
<path d="M4706 8514 c-27 -26 -16 -64 18 -64 44 0 63 50 27 70 -25 13 -27 13
-45 -6z"/>
<path d="M4826 8437 c-11 -8 -17 -23 -14 -38 2 -19 9 -24 32 -24 40 0 56 27
32 54 -22 25 -26 25 -50 8z"/>
<path d="M5804 8349 c-24 -27 -8 -54 32 -54 23 0 30 5 32 24 3 15 -3 30 -14
38 -24 17 -28 17 -50 -8z"/>
<path d="M4643 8283 c-19 -7 -16 -60 3 -67 27 -11 43 -7 54 14 21 38 -14 71
-57 53z"/>
<path d="M3689 8255 c-352 -59 -559 -327 -600 -779 -37 -397 61 -902 280
-1446 81 -201 226 -496 349 -710 63 -111 72 -117 125 -89 16 9 15 14 -13 62
-52 89 -198 384 -269 547 -188 425 -292 744 -359 1095 -24 127 -26 163 -26
380 -1 233 0 243 28 340 72 258 219 418 444 487 107 33 332 34 479 3 431 -92
903 -352 1447 -800 67 -54 123 -102 126 -105 3 -3 55 -51 115 -105 257 -232
539 -521 808 -830 204 -233 198 -226 237 -278 32 -42 39 -46 78 -47 23 0 42 2
42 5 0 4 -123 168 -145 191 -39 44 -113 130 -163 190 -32 39 -72 86 -89 105
-387 438 -707 744 -1088 1040 -146 113 -471 339 -488 339 -3 0 -35 18 -71 40
-95 58 -366 192 -471 233 -190 74 -353 119 -500 136 -112 14 -179 13 -276 -4z"/>
<path d="M6520 7930 c-11 -11 -20 -24 -20 -30 0 -5 9 -19 20 -30 36 -36 80
-20 80 30 0 50 -44 66 -80 30z"/>
<path d="M4260 7622 c0 -36 -3 -41 -32 -51 -17 -6 -37 -19 -44 -30 -7 -10 -28
-22 -46 -26 l-33 -9 31 -3 c17 -2 42 -15 55 -29 12 -13 29 -24 36 -24 16 0 33
-40 33 -78 0 -21 2 -24 10 -12 5 8 10 25 10 37 0 36 59 90 110 100 l45 10 -40
8 c-49 9 -115 72 -115 109 0 14 -4 28 -10 31 -6 4 -10 -10 -10 -33z"/>
<path d="M3710 7622 c-17 -14 -21 -24 -15 -41 5 -18 13 -22 38 -19 26 2 33 8
35 30 4 38 -28 54 -58 30z"/>
<path d="M3870 7399 c-10 -18 -9 -25 9 -43 27 -27 56 -12 56 30 0 24 -5 30
-27 32 -19 2 -30 -3 -38 -19z"/>
<path d="M6620 6158 c-115 -43 -186 -70 -220 -83 -84 -33 -551 -197 -855 -300
-351 -119 -398 -135 -406 -140 -4 -3 3 -31 16 -63 47 -114 119 -296 142 -359
17 -49 2 -49 168 -3 55 16 161 45 235 65 74 20 178 50 231 66 l96 29 6 38 c25
156 117 295 271 411 128 97 244 140 437 163 l106 13 -74 93 c-41 50 -80 92
-86 91 -7 0 -37 -9 -67 -21z"/>
<path d="M7400 5993 c-30 -21 -57 -41 -60 -44 -3 -3 -19 -14 -36 -23 -29 -18
-33 -17 -115 3 -153 37 -216 44 -368 38 -262 -10 -435 -81 -597 -244 -76 -76
-107 -122 -141 -212 -22 -56 -26 -82 -26 -176 0 -90 4 -121 23 -170 61 -159
178 -260 437 -378 l81 -37 69 41 c37 22 112 68 165 102 54 34 172 108 263 165
90 57 167 107 170 111 2 5 -15 16 -38 26 -98 42 -125 54 -177 75 -206 82 -384
161 -402 176 -47 43 -47 123 0 173 58 62 188 99 307 86 78 -9 219 -46 205 -55
-7 -5 12 -40 52 -99 120 -174 269 -406 304 -471 18 -36 54 -101 79 -145 38
-67 216 -422 245 -490 42 -95 70 -165 70 -172 0 -4 7 -16 14 -26 14 -18 15
-18 35 0 12 9 21 25 21 34 0 29 -157 368 -241 519 -20 36 -55 101 -79 145
-105 196 -146 262 -348 568 -46 69 -76 104 -101 117 -20 11 -32 19 -27 20 17
0 180 -91 233 -131 29 -21 55 -39 59 -39 8 0 -6 509 -15 533 -6 15 -13 13 -61
-20z"/>
<path d="M1380 5924 c0 -3 41 -47 90 -96 l90 -90 0 -721 0 -722 -107 -107
-108 -108 318 0 c174 0 317 3 317 6 0 3 -28 39 -62 80 -35 41 -73 89 -85 106
l-23 31 0 479 c0 315 3 477 10 473 5 -3 42 -61 82 -128 40 -67 77 -130 83
-139 14 -23 127 -215 145 -247 8 -14 42 -71 74 -126 161 -273 222 -375 257
-433 22 -35 39 -67 39 -71 0 -29 35 -31 429 -29 l402 3 -100 102 -101 102 0
728 0 728 85 85 c47 47 85 88 85 92 0 5 -135 8 -300 8 -165 0 -300 -2 -300 -5
0 -2 41 -45 90 -96 l90 -92 0 -474 c0 -260 -3 -473 -7 -473 -7 0 -127 198
-208 339 -11 20 -28 47 -36 61 -16 24 -223 370 -244 407 -6 10 -44 74 -85 143
-41 69 -77 130 -80 135 -3 6 -12 20 -20 33 l-15 22 -402 0 c-222 0 -403 -3
-403 -6z"/>
<path d="M4100 5923 c0 -4 39 -47 87 -95 l87 -87 -17 -68 c-9 -37 -33 -122
-53 -188 -46 -154 -161 -551 -184 -635 -21 -76 -40 -142 -109 -379 l-50 -175
-101 -101 c-55 -55 -100 -104 -100 -108 0 -4 131 -7 290 -7 168 0 290 4 290 9
0 5 -30 46 -66 90 -54 66 -65 86 -62 109 10 53 49 187 60 199 15 19 631 19
645 1 15 -19 73 -168 73 -187 0 -9 -43 -59 -95 -111 -52 -52 -95 -98 -95 -102
0 -5 189 -8 420 -8 348 0 426 3 449 15 24 12 147 90 160 102 3 2 -16 25 -42
51 -32 33 -55 70 -76 122 -107 269 -310 782 -366 925 -36 94 -84 213 -105 265
-22 52 -63 156 -93 230 l-53 135 -447 3 c-246 1 -447 -1 -447 -5z m464 -788
c59 -148 113 -285 121 -303 8 -18 15 -37 15 -42 0 -6 -85 -10 -220 -10 -252 0
-234 -9 -201 101 22 71 128 434 143 489 17 65 18 67 28 50 4 -8 56 -136 114
-285z"/>
<path d="M4402 5238 c-22 -79 -52 -181 -65 -228 -14 -47 -24 -86 -22 -88 3 -3
236 51 272 63 9 3 10 11 4 27 -6 13 -40 100 -77 193 -36 94 -67 171 -69 173
-1 1 -20 -62 -43 -140z"/>
<path d="M8260 5922 c0 -11 34 -42 46 -42 5 0 23 11 39 25 l30 24 -57 1 c-32
0 -58 -4 -58 -8z"/>
<path d="M8599 5806 c-96 -69 -179 -135 -186 -148 -6 -13 -22 -59 -34 -103
-39 -144 -47 -169 -84 -295 -47 -161 -179 -619 -212 -735 -14 -49 -34 -116
-44 -148 -10 -31 -19 -63 -19 -69 0 -7 -48 -61 -107 -120 l-108 -108 298 0
c163 0 297 4 297 8 0 4 -31 45 -70 91 -38 45 -70 88 -70 94 0 7 15 59 33 117
l33 105 324 0 324 0 37 -90 c21 -49 38 -95 38 -101 1 -5 -45 -57 -101 -115
l-101 -104 292 -3 c161 -1 421 -1 579 0 l286 3 -105 107 -104 108 -69 172
c-37 95 -106 270 -152 388 -47 118 -89 224 -94 235 -5 11 -23 56 -40 100 -17
44 -35 89 -40 100 -5 11 -48 119 -95 240 -48 121 -103 259 -122 308 l-36 87
-187 0 -186 0 -175 -124z m55 -498 c26 -68 82 -208 123 -313 42 -104 78 -196
80 -202 4 -10 -44 -13 -222 -13 l-227 0 7 33 c4 17 15 57 25 87 9 30 28 91 40
135 13 44 33 114 45 155 12 41 33 112 45 158 13 45 26 82 30 82 3 0 27 -55 54
-122z"/>
<path d="M6756 5666 c-39 -15 -71 -35 -93 -61 -37 -42 -42 -61 -15 -50 34 13
352 115 359 115 5 0 1 5 -7 10 -30 19 -181 11 -244 -14z"/>
<path d="M3990 5261 c-63 -21 -270 -89 -460 -151 -190 -63 -355 -118 -367
-123 -23 -10 -23 -13 -23 -184 0 -95 4 -173 9 -173 7 0 671 164 812 201 l36 9
32 117 c18 65 39 136 46 158 7 22 21 66 29 97 9 32 19 64 22 73 9 22 -7 19
-136 -24z"/>
<path d="M7400 4998 c-84 -54 -332 -216 -437 -285 -46 -30 -83 -56 -83 -58 0
-3 22 -16 49 -30 28 -14 68 -42 90 -63 37 -35 41 -44 41 -87 0 -44 -4 -52 -43
-89 -28 -27 -65 -49 -110 -65 -62 -21 -80 -23 -185 -18 -64 3 -160 15 -212 27
-52 11 -103 19 -115 16 -11 -4 -85 -50 -164 -104 l-145 -97 3 -75 c1 -41 6
-79 11 -83 4 -5 36 12 71 37 35 26 82 58 103 72 l39 26 87 -26 c244 -73 558
-77 774 -9 300 94 486 297 486 531 0 139 -53 283 -136 372 -26 27 -50 50 -53
50 -3 0 -35 -19 -71 -42z"/>
<path d="M2845 4870 c3 -5 8 -10 11 -10 2 0 4 5 4 10 0 6 -5 10 -11 10 -5 0
-7 -4 -4 -10z"/>
<path d="M2085 4594 c-33 -14 -104 -44 -157 -66 l-98 -41 0 -92 c0 -137 -3
-136 195 -76 88 27 186 56 218 65 31 9 57 19 57 22 0 3 -28 53 -62 110 -37 62
-68 104 -77 104 -9 -1 -43 -12 -76 -26z"/>
<path d="M6060 4491 c0 -39 3 -71 6 -71 16 0 94 54 87 60 -4 4 -27 24 -50 45
l-43 37 0 -71z"/>
<path d="M4250 4481 c0 -5 35 -57 78 -116 42 -60 89 -125 104 -147 15 -21 44
-60 65 -86 21 -27 49 -64 63 -82 14 -18 94 -121 178 -227 l153 -193 45 30 c24
17 44 35 44 40 0 5 -50 71 -111 147 -61 76 -145 181 -187 233 -41 52 -78 97
-82 100 -4 3 -30 37 -60 75 -29 39 -83 107 -118 153 l-65 82 -54 0 c-29 0 -53
-4 -53 -9z"/>
<path d="M7995 4053 c11 -29 62 -184 75 -228 101 -351 142 -660 120 -906 -34
-382 -199 -604 -504 -679 -151 -37 -436 -20 -636 40 -38 11 -56 13 -48 5 10
-10 215 -63 313 -81 137 -26 343 -26 445 0 397 98 560 492 471 1138 -33 239
-102 537 -158 686 -14 38 -19 42 -50 42 -29 0 -34 -3 -28 -17z"/>
<path d="M3737 4013 c-12 -12 -7 -50 8 -63 8 -6 23 -9 34 -5 25 8 36 41 21 60
-13 15 -51 20 -63 8z"/>
<path d="M8652 3698 c-19 -19 -14 -46 9 -59 18 -9 25 -7 43 10 16 17 18 25 10
39 -14 21 -45 27 -62 10z"/>
<path d="M9316 3597 c-5 -34 -13 -50 -29 -58 -12 -7 -30 -20 -40 -30 -10 -11
-29 -19 -42 -19 -13 0 -27 -4 -30 -10 -3 -6 5 -10 19 -10 14 0 35 -11 48 -24
13 -13 32 -28 43 -34 12 -6 24 -29 31 -59 l11 -48 8 52 c5 38 13 54 26 58 10
3 21 15 24 25 4 13 19 21 50 26 49 7 52 24 4 24 -36 0 -99 58 -100 92 0 13 -4
32 -8 43 -6 16 -10 10 -15 -28z"/>
<path d="M5077 3492 c-31 -20 -57 -40 -57 -45 0 -13 170 -234 247 -321 129
-145 270 -246 346 -246 63 0 117 50 117 108 0 66 -78 143 -332 327 -45 33
-116 89 -158 124 -41 35 -82 70 -90 77 -13 11 -25 7 -73 -24z"/>
<path d="M8735 3460 c-41 -46 20 -105 66 -64 24 22 24 46 1 67 -25 22 -45 21
-67 -3z"/>
<path d="M8040 3452 c-35 -12 -41 -63 -9 -86 30 -21 69 -2 69 33 0 41 -26 64
-60 53z"/>
<path d="M9438 3179 c-12 -6 -18 -22 -18 -44 0 -29 4 -36 27 -41 14 -4 33 -2
42 3 18 11 26 52 14 69 -12 18 -46 24 -65 13z"/>
<path d="M7646 3167 c-11 -8 -17 -23 -14 -38 2 -19 10 -25 36 -27 25 -3 32 1
33 15 2 30 -2 48 -14 55 -16 10 -21 10 -41 -5z"/>
<path d="M8018 3091 c-16 -14 -19 -24 -14 -45 8 -31 26 -41 61 -32 15 4 27 16
31 31 12 47 -39 77 -78 46z"/>
<path d="M3756 3087 c-22 -16 -25 -65 -5 -78 20 -12 53 -11 67 3 13 13 16 47
4 64 -12 19 -47 25 -66 11z"/>
<path d="M9180 3065 c-14 -17 -5 -51 16 -59 22 -8 54 11 54 32 0 38 -46 56
-70 27z"/>
<path d="M2439 2829 c-14 -27 1 -64 30 -72 44 -11 81 49 49 81 -20 20 -66 14
-79 -9z"/>
<path d="M1916 2787 c-21 -16 -18 -45 7 -61 37 -23 77 35 41 61 -10 7 -21 13
-24 13 -3 0 -14 -6 -24 -13z"/>
<path d="M8734 2645 c-4 -8 -3 -26 0 -40 8 -30 36 -33 60 -6 14 15 15 24 6 40
-13 25 -58 29 -66 6z"/>
<path d="M7640 2606 c-6 -8 -10 -25 -8 -38 4 -32 52 -38 68 -9 22 43 -29 83
-60 47z"/>
<path d="M3236 2597 c-11 -8 -17 -23 -14 -38 2 -20 8 -24 38 -24 30 0 36 4 38
24 4 22 -18 51 -38 51 -3 0 -14 -6 -24 -13z"/>
<path d="M2392 2558 c-22 -22 -14 -57 13 -64 45 -11 71 29 39 60 -19 19 -36
20 -52 4z"/>
<path d="M8870 2521 c0 -38 -16 -71 -34 -71 -7 0 -18 -11 -24 -25 -7 -16 -20
-25 -34 -25 -42 0 -53 -17 -15 -23 48 -8 93 -56 104 -114 l10 -48 8 43 c11 60
57 107 115 119 l45 9 -44 7 c-54 9 -98 53 -110 109 -12 51 -21 60 -21 19z"/>
<path d="M9100 2415 c-10 -12 -10 -21 -1 -41 13 -29 47 -30 65 -1 23 37 -36
76 -64 42z"/>
<path d="M2574 2395 c-15 -23 -15 -27 0 -50 28 -43 86 -26 86 25 0 51 -58 68
-86 25z"/>
<path d="M4066 2384 c-9 -8 -16 -21 -16 -27 0 -22 31 -57 49 -57 22 0 51 30
51 53 0 21 -27 47 -50 47 -10 0 -26 -7 -34 -16z"/>
<path d="M6200 2355 c-26 -32 13 -81 48 -59 34 22 22 74 -18 74 -10 0 -23 -7
-30 -15z"/>
<path d="M6905 2315 c17 -8 37 -14 45 -14 8 0 -1 7 -20 14 -46 18 -64 17 -25
0z"/>
<path d="M5242 2018 c-25 -25 -6 -68 30 -68 9 0 22 9 28 20 22 40 -26 80 -58
48z"/>
<path d="M3574 2006 c-9 -23 -1 -48 18 -60 26 -16 68 26 52 52 -14 22 -62 28
-70 8z"/>
<path d="M4140 1906 c-20 -25 -8 -61 22 -64 37 -4 57 31 32 59 -20 23 -37 24
-54 5z"/>
<path d="M3726 1512 c-10 -53 -66 -111 -108 -112 -15 0 -30 -4 -33 -10 -4 -6
8 -10 27 -10 27 0 42 -9 71 -40 20 -23 37 -51 37 -63 0 -43 17 -50 22 -10 7
53 58 104 111 111 43 5 32 22 -15 22 -20 0 -32 8 -43 30 -9 17 -22 30 -29 30
-9 0 -17 19 -23 48 l-9 47 -8 -43z"/>
<path d="M7827 1533 c-11 -10 -8 -61 4 -68 5 -4 21 -4 35 -1 18 5 24 13 24 35
0 34 -42 56 -63 34z"/>
</g>
</svg>
