<?xml version="1.0" standalone="no"?>
<!DOCTYPE svg PUBLIC "-//W3C//DTD SVG 20010904//EN"
 "http://www.w3.org/TR/2001/REC-SVG-20010904/DTD/svg10.dtd">
<svg version="1.0" xmlns="http://www.w3.org/2000/svg"
 width="800.000000pt" height="800.000000pt" viewBox="0 0 1200.000000 1200.000000"
 preserveAspectRatio="xMidYMid meet">

<g transform="translate(0.000000,1200.000000) scale(0.100000,-0.100000)"
fill="#ffffff" stroke="none">
<path d="M5968 11959 c-10 -10 -18 -23 -18 -29 0 -5 -4 -10 -10 -10 -5 0 -10
-7 -10 -15 0 -8 -4 -15 -10 -15 -5 0 -10 -5 -10 -11 0 -6 -6 -17 -12 -24 -30
-33 -38 -45 -38 -55 0 -5 -4 -10 -8 -10 -5 0 -17 -16 -28 -35 -10 -19 -22 -35
-26 -35 -5 0 -8 -5 -8 -10 0 -10 -8 -22 -37 -55 -7 -7 -13 -18 -13 -24 0 -6
-3 -11 -8 -11 -4 0 -16 -16 -26 -35 -11 -19 -23 -35 -28 -35 -4 0 -8 -9 -8
-20 0 -11 -4 -20 -10 -20 -5 0 -10 -5 -10 -11 0 -6 -6 -17 -12 -24 -30 -33
-38 -45 -38 -55 0 -5 -4 -10 -10 -10 -5 0 -10 -9 -10 -20 0 -11 -4 -20 -8 -20
-5 0 -17 -18 -28 -40 -10 -22 -22 -40 -26 -40 -5 0 -8 -7 -8 -15 0 -9 -11 -28
-25 -43 -14 -15 -25 -32 -25 -39 0 -7 -3 -13 -8 -13 -7 0 -12 -8 -47 -76 -11
-21 -30 -50 -42 -64 -13 -14 -23 -30 -23 -37 0 -7 -4 -13 -10 -13 -5 0 -10 -9
-10 -20 0 -11 -4 -20 -9 -20 -5 0 -12 -11 -15 -25 -4 -14 -11 -25 -16 -25 -6
0 -10 -7 -10 -15 0 -8 -4 -15 -10 -15 -5 0 -10 -9 -10 -20 0 -11 -4 -20 -9
-20 -5 0 -12 -11 -15 -25 -4 -14 -11 -25 -16 -25 -6 0 -10 -9 -10 -20 0 -11
-4 -20 -10 -20 -5 0 -10 -7 -10 -15 0 -8 -3 -15 -7 -15 -5 0 -17 -20 -28 -45
-11 -25 -23 -45 -27 -45 -5 0 -8 -11 -8 -25 0 -14 -3 -25 -7 -25 -10 0 -43
-58 -43 -75 0 -7 -3 -15 -7 -17 -5 -1 -21 -31 -38 -65 -16 -35 -33 -63 -37
-63 -5 0 -8 -9 -8 -19 0 -11 -3 -21 -7 -23 -11 -4 -43 -67 -43 -84 0 -8 -4
-14 -10 -14 -5 0 -10 -8 -10 -17 0 -10 -11 -38 -25 -62 -14 -23 -25 -49 -25
-56 0 -7 -3 -15 -7 -17 -10 -4 -63 -110 -63 -126 0 -6 -4 -12 -10 -12 -5 0
-10 -11 -10 -24 0 -13 -3 -26 -7 -28 -12 -5 -43 -76 -43 -98 0 -11 -4 -20 -10
-20 -5 0 -10 -5 -10 -10 0 -6 -11 -33 -25 -62 -14 -28 -25 -58 -25 -65 0 -7
-4 -13 -10 -13 -5 0 -10 -7 -10 -15 0 -18 -32 -89 -42 -93 -5 -2 -8 -17 -8
-33 0 -16 -4 -29 -10 -29 -5 0 -10 -10 -10 -22 0 -13 -7 -32 -15 -42 -8 -11
-15 -28 -15 -38 0 -10 -4 -18 -10 -18 -5 0 -10 -13 -10 -30 0 -16 -3 -30 -8
-30 -8 0 -30 -59 -39 -102 -3 -16 -9 -28 -14 -28 -5 0 -9 -11 -9 -25 0 -14 -4
-25 -10 -25 -5 0 -10 -10 -10 -22 -1 -13 -7 -34 -15 -48 -8 -14 -14 -35 -15
-47 0 -13 -4 -23 -10 -23 -5 0 -10 -16 -10 -35 0 -19 -4 -35 -10 -35 -5 0 -10
-10 -10 -22 -1 -13 -7 -34 -15 -48 -8 -14 -14 -35 -15 -47 0 -13 -4 -23 -10
-23 -5 0 -10 -15 -10 -33 0 -19 -3 -37 -6 -40 -12 -12 -43 -112 -44 -139 0
-16 -4 -28 -9 -28 -5 0 -11 -17 -14 -37 -10 -69 -30 -143 -38 -143 -5 0 -9
-18 -9 -40 0 -22 -4 -40 -9 -40 -5 0 -11 -17 -14 -37 -3 -21 -13 -67 -23 -103
-9 -36 -19 -86 -21 -112 -3 -27 -9 -48 -13 -48 -4 0 -10 -24 -13 -52 -7 -73
-26 -170 -37 -190 -6 -10 -10 -43 -10 -73 0 -30 -4 -55 -9 -55 -5 0 -11 -35
-14 -77 -4 -88 -23 -236 -37 -301 -6 -23 -10 -110 -10 -192 0 -93 -4 -150 -10
-150 -6 0 -10 -105 -10 -295 0 -190 4 -295 10 -295 6 0 10 -50 10 -130 0 -80
-4 -130 -10 -130 -5 0 -10 -5 -10 -11 0 -6 -6 -17 -12 -24 -27 -30 -38 -44
-38 -50 0 -3 -11 -18 -25 -33 -14 -15 -25 -31 -25 -37 0 -6 -9 -17 -20 -25
-11 -8 -20 -19 -20 -25 0 -6 -11 -22 -25 -37 -14 -15 -25 -32 -25 -38 0 -5 -4
-10 -8 -10 -5 0 -17 -18 -28 -40 -10 -22 -22 -40 -26 -40 -5 0 -8 -7 -8 -15 0
-8 -4 -15 -9 -15 -5 0 -12 -11 -15 -25 -4 -14 -11 -25 -16 -25 -6 0 -10 -7
-10 -15 0 -8 -4 -15 -10 -15 -5 0 -10 -7 -10 -16 0 -8 -6 -22 -12 -29 -30 -33
-38 -45 -38 -55 0 -5 -4 -10 -8 -10 -5 0 -14 -16 -22 -35 -8 -19 -17 -35 -21
-35 -4 0 -11 -10 -15 -22 -4 -13 -10 -25 -14 -28 -4 -3 -20 -27 -35 -55 -16
-27 -32 -52 -36 -55 -4 -3 -9 -14 -11 -25 -1 -11 -5 -22 -8 -25 -15 -14 -40
-61 -40 -75 0 -8 -4 -15 -10 -15 -5 0 -10 -7 -10 -15 0 -8 -4 -15 -8 -15 -9 0
-42 -70 -42 -88 0 -7 -4 -12 -10 -12 -5 0 -10 -9 -10 -20 0 -11 -4 -20 -8 -20
-10 0 -42 -71 -42 -93 0 -8 -3 -17 -7 -19 -11 -4 -43 -67 -43 -84 0 -8 -4 -14
-10 -14 -5 0 -10 -11 -10 -25 0 -14 -4 -25 -10 -25 -5 0 -10 -8 -10 -17 0 -10
-7 -27 -15 -37 -8 -11 -15 -28 -15 -38 0 -10 -4 -18 -10 -18 -5 0 -10 -11 -10
-25 0 -14 -4 -25 -10 -25 -5 0 -10 -10 -10 -23 0 -13 -7 -32 -15 -43 -8 -10
-15 -27 -15 -36 0 -10 -4 -18 -10 -18 -5 0 -10 -16 -10 -35 0 -19 -4 -35 -8
-35 -4 0 -17 -29 -27 -65 -11 -36 -23 -65 -27 -65 -5 0 -8 -13 -8 -29 0 -17
-5 -33 -10 -36 -5 -3 -10 -14 -10 -23 0 -9 -7 -30 -15 -46 -8 -15 -15 -41 -15
-57 0 -16 -4 -29 -10 -29 -5 0 -10 -16 -10 -35 0 -19 -4 -35 -10 -35 -5 0 -10
-14 -10 -30 0 -17 -7 -47 -15 -67 -8 -19 -15 -46 -15 -59 0 -13 -4 -24 -9 -24
-5 0 -11 -19 -14 -43 -3 -23 -13 -73 -22 -112 -9 -38 -19 -94 -22 -122 -3 -29
-9 -53 -13 -53 -5 0 -11 -24 -14 -52 -3 -29 -12 -96 -21 -148 -9 -52 -19 -133
-22 -180 -3 -47 -9 -87 -13 -90 -31 -21 -31 -1179 1 -1200 4 -3 9 -41 12 -85
3 -44 12 -132 22 -195 9 -63 19 -141 22 -172 2 -32 8 -58 13 -58 4 0 10 -24
13 -52 7 -67 30 -174 40 -184 4 -4 7 -27 7 -51 0 -23 4 -43 9 -43 5 0 11 -19
14 -42 8 -65 30 -148 39 -148 4 0 8 -18 8 -40 0 -22 5 -40 10 -40 6 0 10 -10
10 -21 0 -22 26 -110 41 -141 5 -10 9 -29 9 -43 0 -14 5 -25 10 -25 6 0 10
-10 10 -22 1 -13 7 -34 15 -48 8 -14 14 -35 15 -47 0 -13 5 -23 10 -23 6 0 10
-13 10 -30 0 -16 5 -30 10 -30 6 0 10 -5 10 -11 0 -14 55 -69 69 -69 6 0 11
-4 11 -10 0 -6 30 -10 70 -10 40 0 70 4 70 10 0 6 7 10 16 10 20 0 74 54 74
74 0 9 5 16 10 16 6 0 10 11 10 24 0 14 4 28 10 31 5 3 10 14 10 23 0 9 7 30
15 46 8 15 15 39 15 52 0 13 5 24 10 24 6 0 10 15 10 34 0 19 4 37 8 40 5 3
17 32 28 65 10 34 22 61 26 61 5 0 8 10 8 23 0 12 7 31 15 41 8 11 15 28 15
38 0 10 5 18 10 18 6 0 10 11 10 25 0 14 5 25 10 25 6 0 10 6 10 14 0 7 7 19
15 26 8 7 15 21 15 31 0 11 5 19 10 19 6 0 10 7 10 15 0 8 5 15 10 15 6 0 10
6 10 14 0 18 32 76 43 76 4 0 7 11 7 25 0 14 3 25 8 25 4 0 21 20 37 45 17 24
33 45 38 45 4 0 7 6 7 13 0 7 11 24 25 39 14 15 25 30 25 33 0 7 25 35 93 105
26 27 47 52 47 55 0 7 79 85 85 85 3 0 16 10 29 22 34 34 75 68 82 68 3 0 15
11 28 25 13 14 29 25 36 25 7 0 28 16 47 35 19 19 43 35 53 35 11 0 20 4 20 8
0 5 18 17 40 28 22 10 40 22 40 27 0 4 9 7 20 7 11 0 20 4 20 8 0 11 66 42 90
42 11 0 20 3 20 8 0 4 15 13 33 21 17 7 45 20 61 27 16 8 37 14 48 14 10 0 18
5 18 10 0 6 13 10 28 10 16 0 32 3 36 7 7 7 92 32 113 33 6 0 13 -21 16 -47 3
-27 13 -86 22 -133 9 -47 19 -113 22 -148 2 -34 8 -62 13 -62 5 0 10 -28 13
-63 5 -68 23 -152 37 -179 6 -10 10 -25 10 -34 0 -8 12 -28 27 -44 16 -15 42
-44 58 -64 17 -19 36 -36 43 -36 6 0 12 -4 12 -10 0 -5 11 -12 25 -16 14 -3
25 -10 25 -15 0 -5 14 -9 30 -9 17 0 30 -4 30 -10 0 -7 243 -10 710 -10 467 0
710 3 710 10 0 6 14 10 30 10 17 0 30 4 30 9 0 5 11 12 25 15 14 4 25 11 25
16 0 6 6 10 13 10 6 0 26 17 42 36 17 20 42 49 58 64 15 16 27 36 27 44 0 9 4
24 10 34 13 24 31 107 37 177 3 33 9 62 13 65 4 3 10 32 13 65 3 33 13 98 22
145 9 47 19 106 22 133 3 28 10 47 17 47 7 0 39 -9 72 -20 32 -11 69 -20 82
-20 12 0 22 -4 22 -10 0 -5 8 -10 18 -10 11 0 32 -6 48 -14 16 -7 44 -20 62
-27 17 -8 32 -17 32 -21 0 -5 9 -8 20 -8 24 0 90 -31 90 -42 0 -4 9 -8 20 -8
11 0 20 -3 20 -7 0 -5 18 -17 40 -27 22 -11 40 -23 40 -28 0 -4 7 -8 15 -8 8
0 15 -4 15 -10 0 -5 6 -10 13 -10 7 0 24 -11 39 -25 15 -14 32 -25 39 -25 6 0
22 -11 35 -25 13 -14 26 -25 29 -25 3 0 17 -10 30 -22 62 -57 75 -68 80 -68 6
0 85 -78 85 -85 0 -3 21 -28 48 -55 75 -78 92 -99 92 -110 0 -5 3 -10 8 -10 4
0 21 -20 37 -45 17 -24 33 -45 38 -45 4 0 7 -6 7 -13 0 -7 11 -24 25 -39 14
-15 25 -36 25 -48 0 -11 3 -20 8 -20 10 0 42 -58 42 -76 0 -8 5 -14 10 -14 6
0 10 -7 10 -15 0 -8 5 -15 10 -15 6 0 10 -8 10 -19 0 -10 7 -24 15 -31 8 -7
15 -19 15 -26 0 -8 5 -14 10 -14 6 0 10 -11 10 -25 0 -14 5 -25 10 -25 6 0 10
-8 10 -18 0 -10 7 -27 15 -38 8 -10 15 -29 15 -41 0 -13 3 -23 8 -23 4 0 16
-27 26 -61 11 -33 23 -62 28 -65 4 -3 8 -21 8 -40 0 -19 5 -34 10 -34 6 0 10
-11 10 -24 0 -13 7 -37 15 -52 8 -16 15 -37 15 -46 0 -9 5 -20 10 -23 6 -3 10
-17 10 -31 0 -13 5 -24 10 -24 6 0 10 -7 10 -16 0 -20 54 -74 74 -74 9 0 16
-4 16 -10 0 -6 30 -10 70 -10 40 0 70 4 70 10 0 6 5 10 11 10 14 0 69 55 69
69 0 6 5 11 10 11 6 0 10 14 10 30 0 17 5 30 10 30 6 0 10 10 10 23 1 12 7 33
15 47 8 14 14 35 15 48 0 12 5 22 10 22 6 0 10 11 10 25 0 14 4 33 9 43 15 31
41 119 41 141 0 11 5 21 10 21 6 0 10 18 10 40 0 22 4 40 8 40 9 0 31 83 39
147 3 24 9 43 14 43 5 0 9 20 9 45 0 25 5 45 10 45 6 0 10 13 10 28 0 16 7 51
15 78 8 27 15 68 15 92 0 23 4 42 9 42 4 0 11 26 15 58 4 31 13 107 22 167 9
61 18 148 21 195 2 47 8 87 12 90 32 21 32 1179 1 1200 -4 3 -10 43 -13 90 -3
47 -13 128 -22 180 -9 52 -18 119 -21 148 -3 28 -10 52 -15 52 -5 0 -9 15 -9
33 0 30 -21 135 -41 203 -5 17 -9 45 -9 62 0 18 -4 32 -9 32 -5 0 -11 15 -14
33 -3 17 -13 57 -23 87 -9 30 -19 72 -21 92 -3 21 -9 38 -14 38 -5 0 -9 13 -9
30 0 26 -15 70 -41 122 -5 10 -9 29 -9 43 0 14 -4 25 -8 25 -4 0 -17 29 -27
65 -11 36 -23 65 -27 65 -5 0 -8 16 -8 35 0 19 -4 35 -10 35 -5 0 -10 8 -10
18 0 9 -7 26 -15 36 -8 11 -15 30 -15 43 0 13 -4 23 -10 23 -5 0 -10 11 -10
25 0 14 -4 25 -10 25 -5 0 -10 8 -10 18 0 10 -7 27 -15 38 -8 10 -15 27 -15
37 0 9 -4 17 -10 17 -5 0 -10 8 -10 18 0 19 -51 125 -62 130 -5 2 -8 11 -8 19
0 22 -32 93 -42 93 -4 0 -8 9 -8 20 0 11 -4 20 -10 20 -5 0 -10 5 -10 12 0 18
-33 88 -42 88 -4 0 -8 7 -8 15 0 8 -4 15 -10 15 -5 0 -10 6 -10 14 0 18 -32
76 -42 76 -5 0 -8 11 -8 25 0 14 -4 25 -8 25 -5 0 -17 19 -28 43 -10 23 -26
49 -35 57 -9 8 -19 25 -23 38 -4 12 -11 22 -15 22 -4 0 -13 16 -21 35 -8 19
-17 35 -22 35 -4 0 -8 5 -8 11 0 6 -6 17 -12 24 -32 35 -38 45 -38 60 0 8 -4
15 -10 15 -5 0 -10 7 -10 15 0 8 -4 15 -10 15 -5 0 -12 11 -16 25 -3 14 -10
25 -15 25 -5 0 -9 5 -9 11 0 6 -6 17 -12 24 -32 35 -38 45 -38 60 0 8 -4 15
-10 15 -5 0 -10 5 -10 10 0 6 -11 23 -25 38 -14 15 -25 31 -25 37 0 6 -9 17
-20 25 -11 8 -20 19 -20 25 0 6 -11 22 -25 37 -14 15 -25 30 -25 33 0 4 -6 13
-12 20 -30 33 -38 45 -38 55 0 5 -4 10 -10 10 -6 0 -10 62 -10 165 0 103 4
165 10 165 6 0 10 115 10 325 0 210 -4 325 -10 325 -6 0 -10 51 -10 132 0 72
-4 145 -9 162 -13 44 -33 178 -38 264 -3 39 -8 72 -13 72 -4 0 -10 24 -13 53
-6 62 -24 145 -37 169 -6 10 -10 34 -10 53 0 19 -4 35 -10 35 -5 0 -10 20 -10
45 0 25 -4 53 -10 63 -8 15 -22 68 -37 145 -3 15 -9 27 -14 27 -5 0 -9 12 -9
26 0 26 -24 112 -41 146 -5 10 -9 31 -9 48 0 16 -4 30 -10 30 -5 0 -10 10 -10
23 0 12 -12 54 -25 92 -14 39 -25 78 -25 88 0 9 -4 17 -10 17 -5 0 -10 9 -10
20 0 17 -18 66 -41 112 -5 10 -9 27 -9 38 0 11 -4 20 -10 20 -5 0 -10 12 -10
28 0 15 -7 36 -15 46 -8 11 -15 30 -15 43 0 13 -4 23 -10 23 -5 0 -10 14 -10
30 0 17 -3 30 -8 30 -7 0 -27 51 -39 98 -3 12 -9 22 -14 22 -5 0 -9 11 -9 25
0 14 -4 25 -10 25 -5 0 -10 10 -10 23 0 13 -7 32 -15 43 -8 10 -15 27 -15 37
0 9 -4 17 -10 17 -5 0 -10 8 -10 18 0 10 -11 42 -25 70 -14 29 -25 59 -25 67
0 8 -4 15 -10 15 -5 0 -10 9 -10 20 0 11 -4 20 -10 20 -5 0 -10 8 -10 18 0 10
-7 27 -15 38 -8 10 -15 29 -15 42 0 12 -4 22 -10 22 -5 0 -10 6 -10 14 0 8
-11 34 -25 57 -14 24 -25 54 -25 66 0 12 -3 23 -7 25 -10 4 -63 110 -63 126 0
6 -4 12 -10 12 -5 0 -10 6 -10 12 0 16 -53 122 -62 126 -5 2 -8 15 -8 28 0 13
-4 24 -8 24 -9 0 -42 70 -42 88 0 7 -4 12 -10 12 -5 0 -10 9 -10 20 0 11 -4
20 -10 20 -5 0 -12 11 -16 25 -3 14 -10 25 -15 25 -5 0 -9 9 -9 20 0 11 -3 20
-7 20 -5 0 -16 20 -26 45 -11 25 -23 45 -28 45 -5 0 -9 11 -9 25 0 14 -4 25
-10 25 -5 0 -10 7 -10 15 0 8 -4 15 -8 15 -5 0 -17 20 -28 45 -10 25 -22 45
-26 45 -4 0 -8 6 -8 14 0 18 -32 76 -42 76 -5 0 -8 11 -8 25 0 14 -4 25 -10
25 -5 0 -10 6 -10 14 0 7 -7 19 -15 26 -8 7 -15 21 -15 31 0 11 -4 19 -10 19
-5 0 -10 7 -10 15 0 8 -4 15 -10 15 -5 0 -10 7 -10 15 0 14 -26 63 -40 75 -3
3 -15 22 -26 43 -36 73 -39 77 -46 77 -5 0 -8 9 -8 20 0 11 -4 20 -10 20 -5 0
-10 7 -10 15 0 8 -4 15 -10 15 -5 0 -12 11 -16 25 -3 14 -10 25 -15 25 -5 0
-9 9 -9 20 0 11 -4 20 -10 20 -5 0 -12 11 -16 25 -3 14 -10 25 -15 25 -5 0 -9
7 -9 15 0 8 -4 15 -10 15 -5 0 -10 9 -10 20 0 11 -3 20 -8 20 -4 0 -16 17 -27
38 -11 20 -22 39 -25 42 -3 3 -14 22 -25 43 -11 20 -23 37 -27 37 -5 0 -8 7
-8 15 0 8 -4 15 -10 15 -5 0 -10 6 -10 13 0 7 -11 24 -25 39 -14 15 -25 34
-25 43 0 8 -4 15 -10 15 -5 0 -10 7 -10 15 0 8 -3 15 -8 15 -4 0 -16 16 -26
35 -11 19 -23 35 -28 35 -4 0 -8 8 -8 19 0 10 -7 24 -15 31 -8 7 -15 19 -15
26 0 8 -4 14 -10 14 -5 0 -10 5 -10 11 0 6 -6 17 -12 24 -30 33 -38 45 -38 55
0 17 -34 10 -52 -11z m32 -299 c0 -10 8 -22 38 -55 6 -7 12 -21 12 -29 0 -9 5
-16 10 -16 6 0 10 -7 10 -15 0 -8 3 -15 8 -15 4 0 16 -16 26 -35 11 -19 23
-35 28 -35 4 0 8 -9 8 -20 0 -11 4 -20 9 -20 5 0 12 -11 15 -25 4 -14 11 -25
16 -25 6 0 10 -7 10 -15 0 -8 5 -15 10 -15 6 0 10 -9 10 -20 0 -11 4 -20 9
-20 5 0 12 -11 15 -25 4 -14 11 -25 16 -25 6 0 10 -7 10 -15 0 -8 5 -15 10
-15 6 0 10 -9 10 -20 0 -11 3 -20 8 -20 4 0 16 -17 27 -37 11 -21 22 -40 25
-43 3 -3 14 -22 25 -42 11 -21 23 -38 27 -38 5 0 8 -7 8 -15 0 -8 5 -15 10
-15 6 0 10 -6 10 -14 0 -18 32 -76 43 -76 4 0 7 -11 7 -25 0 -14 3 -25 8 -25
7 0 12 -8 47 -76 11 -21 23 -40 28 -42 4 -2 7 -12 7 -23 0 -10 4 -19 10 -19 5
0 12 -11 16 -25 3 -14 10 -25 15 -25 5 0 9 -9 9 -20 0 -11 5 -20 10 -20 6 0
10 -6 10 -14 0 -8 6 -21 13 -28 7 -7 19 -29 27 -48 8 -19 20 -41 27 -48 7 -8
11 -18 8 -23 -4 -5 -2 -9 4 -9 6 0 13 -11 17 -25 3 -14 10 -25 15 -25 5 0 9
-11 9 -25 0 -14 4 -25 9 -25 5 0 17 -20 28 -45 10 -25 21 -45 26 -45 4 0 7 -6
7 -12 0 -16 53 -122 63 -126 4 -2 7 -10 7 -18 0 -8 11 -32 25 -54 14 -22 25
-46 25 -55 0 -8 5 -15 10 -15 6 0 10 -9 10 -20 0 -11 5 -20 10 -20 6 0 10 -7
10 -15 0 -8 -9 -15 -20 -15 -11 0 -20 -4 -20 -9 0 -5 -12 -11 -27 -14 -33 -7
-105 -25 -149 -38 -17 -5 -47 -9 -67 -9 -20 0 -37 -4 -37 -10 0 -5 -18 -10
-39 -10 -22 0 -75 -7 -118 -15 -43 -8 -111 -15 -150 -15 -42 0 -73 -4 -73 -10
0 -6 -95 -10 -265 -10 -170 0 -265 4 -265 10 0 6 -36 10 -87 10 -49 0 -123 7
-166 15 -43 8 -99 15 -123 15 -24 0 -44 5 -44 10 0 6 -20 10 -44 10 -25 0 -48
5 -51 10 -3 6 -20 10 -36 10 -16 0 -46 7 -66 15 -19 8 -44 15 -54 15 -11 0
-19 5 -19 10 0 6 -16 10 -35 10 -33 0 -35 2 -35 35 0 19 4 35 10 35 5 0 12 11
16 25 3 14 10 25 15 25 5 0 9 11 9 25 0 14 5 25 10 25 6 0 10 9 10 20 0 11 4
20 10 20 5 0 12 11 16 25 3 14 10 25 15 25 5 0 9 11 9 25 0 14 4 25 9 25 5 0
17 20 28 45 10 25 21 45 26 45 4 0 7 11 7 25 0 14 4 25 9 25 5 0 17 20 28 45
10 25 21 45 26 45 4 0 7 11 7 25 0 14 3 25 8 25 4 0 16 16 26 35 11 19 23 35
28 35 4 0 8 11 8 25 0 14 4 25 8 25 5 0 17 18 27 40 10 22 22 40 27 40 4 0 8
7 8 16 0 8 11 32 25 52 14 20 25 42 25 49 0 7 5 13 10 13 6 0 10 9 10 20 0 11
4 20 8 20 5 0 17 18 28 40 10 22 22 40 27 40 4 0 7 9 7 20 0 11 3 20 8 20 4 0
16 16 26 35 11 19 23 35 28 35 4 0 8 6 8 14 0 18 32 76 43 76 4 0 7 7 7 15 0
8 3 15 8 15 4 0 20 25 37 55 16 30 33 55 37 55 4 0 8 6 8 14 0 8 6 21 13 28 6
7 19 27 27 43 8 17 23 39 32 49 10 11 20 28 24 38 3 10 10 18 15 18 5 0 9 5 9
11 0 6 6 17 13 24 29 33 37 45 37 55 0 5 5 10 10 10 6 0 10 7 10 15 0 9 11 28
25 43 14 15 25 32 25 39 0 7 5 13 10 13 6 0 10 -5 10 -10z m-1050 -1945 c14
-8 35 -14 48 -15 12 0 22 -4 22 -9 0 -5 17 -11 38 -14 63 -9 126 -24 155 -36
16 -6 46 -11 68 -11 21 0 39 -4 39 -9 0 -5 33 -12 73 -14 39 -3 106 -10 147
-15 140 -18 467 -35 561 -29 315 22 396 29 417 37 13 6 54 10 92 10 40 0 70 4
70 10 0 6 12 10 26 10 25 0 125 22 190 41 17 5 42 9 56 9 15 0 28 4 30 10 2 5
23 10 48 12 38 3 45 0 48 -17 2 -11 7 -22 11 -25 4 -3 20 -36 36 -75 16 -38
33 -71 37 -73 5 -2 8 -10 8 -17 0 -18 32 -89 43 -93 4 -2 7 -15 7 -28 0 -13 5
-24 10 -24 6 0 10 -11 10 -24 0 -14 4 -27 9 -31 5 -3 12 -19 16 -35 4 -17 11
-30 16 -30 5 0 9 -13 9 -29 0 -16 3 -31 8 -33 10 -4 62 -129 62 -150 0 -10 5
-18 10 -18 6 0 10 -8 10 -19 0 -10 11 -44 25 -75 14 -31 25 -65 25 -76 0 -11
4 -20 9 -20 5 0 11 -12 14 -27 9 -44 31 -103 39 -103 5 0 8 -13 8 -30 0 -16 5
-30 10 -30 6 0 10 -10 10 -22 1 -13 7 -34 15 -48 8 -14 14 -37 15 -52 0 -16 5
-28 10 -28 6 0 10 -11 10 -25 0 -14 4 -33 9 -43 13 -28 41 -118 41 -136 0 -9
4 -16 9 -16 5 0 11 -17 14 -37 2 -21 12 -63 22 -93 9 -30 19 -72 22 -92 3 -21
9 -38 13 -38 4 0 10 -17 13 -37 3 -21 14 -78 26 -127 12 -50 21 -103 21 -118
0 -15 4 -28 9 -28 5 0 11 -21 14 -47 3 -27 13 -86 22 -133 8 -47 18 -122 22
-167 3 -46 9 -83 13 -83 31 0 31 -1279 0 -1300 -4 -3 -10 -54 -13 -115 -3 -60
-13 -175 -22 -255 -9 -80 -19 -187 -22 -237 -3 -51 -9 -93 -13 -93 -5 0 -11
-33 -13 -72 -3 -40 -13 -122 -22 -183 -9 -60 -19 -145 -22 -187 -2 -43 -9 -78
-14 -78 -5 0 -9 -24 -9 -52 0 -29 -5 -70 -10 -90 -14 -47 -30 -156 -37 -236
-2 -34 -9 -62 -14 -62 -5 0 -9 -19 -9 -42 0 -24 -5 -60 -10 -80 -12 -41 -29
-146 -37 -225 -3 -29 -9 -53 -14 -53 -5 0 -9 -20 -9 -43 0 -24 -7 -66 -15 -93
-8 -27 -15 -66 -15 -86 0 -21 -4 -38 -10 -38 -6 0 -10 -27 -10 -60 0 -33 -4
-60 -10 -60 -5 0 -10 -17 -10 -39 0 -21 -7 -58 -15 -81 -8 -23 -15 -58 -15
-76 0 -19 -4 -34 -9 -34 -5 0 -11 -24 -14 -52 -7 -73 -26 -167 -37 -189 -6
-10 -10 -34 -10 -53 0 -20 -4 -36 -9 -36 -5 0 -11 -24 -14 -52 -3 -29 -12 -84
-22 -123 -9 -38 -19 -87 -22 -108 -3 -20 -9 -37 -13 -37 -4 0 -10 -19 -13 -42
-3 -24 -13 -72 -22 -108 -9 -36 -19 -82 -22 -103 -3 -20 -9 -37 -13 -37 -4 0
-10 -21 -13 -47 -3 -27 -12 -77 -22 -113 -9 -36 -19 -77 -22 -93 l-5 -27
-1168 0 -1168 0 -5 27 c-3 16 -13 57 -22 93 -9 36 -19 84 -22 108 -3 23 -9 42
-14 42 -5 0 -9 15 -9 34 0 18 -7 50 -15 69 -8 20 -15 50 -15 67 0 16 -4 30
-10 30 -5 0 -10 23 -10 50 0 28 -4 50 -10 50 -5 0 -10 12 -10 28 0 15 -7 45
-15 67 -8 22 -14 55 -15 73 0 17 -4 32 -10 32 -5 0 -10 23 -10 50 0 28 -4 50
-10 50 -5 0 -10 15 -10 34 0 18 -7 53 -15 76 -8 23 -15 57 -15 76 0 18 -4 36
-10 39 -5 3 -10 28 -10 56 0 27 -4 49 -10 49 -5 0 -10 13 -10 28 0 16 -7 51
-15 78 -8 27 -15 66 -15 87 0 20 -4 37 -10 37 -6 0 -10 27 -10 60 0 33 -4 60
-8 60 -7 0 -24 79 -38 180 -3 25 -10 47 -15 48 -5 2 -9 30 -9 62 0 32 -4 62
-10 65 -5 3 -10 23 -10 43 0 20 -7 62 -15 92 -8 30 -15 74 -15 98 0 23 -4 42
-9 42 -5 0 -12 28 -14 63 -6 71 -22 166 -37 217 -5 19 -10 59 -10 87 0 29 -4
53 -9 53 -5 0 -12 35 -14 78 -3 42 -12 122 -22 177 -9 55 -19 133 -22 173 -3
39 -9 72 -14 72 -5 0 -9 25 -9 56 0 31 -4 84 -10 118 -15 94 -32 270 -37 386
-3 58 -8 107 -13 110 -31 20 -31 1319 0 1340 4 3 10 48 13 100 4 52 14 133 22
180 9 47 19 113 22 148 2 34 8 62 13 62 4 0 10 26 13 58 3 31 13 89 22 127 9
39 19 89 22 113 3 23 9 42 14 42 5 0 9 13 9 29 0 16 7 48 15 71 8 23 15 55 15
71 0 15 5 31 10 34 6 3 10 24 10 46 0 21 5 39 10 39 6 0 10 12 10 28 1 15 7
38 15 52 8 14 14 40 15 58 0 17 5 32 10 32 6 0 10 16 10 35 0 19 5 35 10 35 6
0 10 7 10 17 0 24 33 127 42 131 5 2 8 19 8 37 0 18 3 35 8 37 9 4 42 100 42
122 0 9 5 16 10 16 6 0 10 13 10 29 0 17 5 33 10 36 6 3 10 14 10 23 0 9 7 30
15 46 8 15 15 37 15 47 0 11 5 19 10 19 6 0 10 9 10 20 0 11 4 28 9 38 5 9 18
38 28 64 10 27 21 48 26 48 4 0 7 11 7 25 0 14 4 33 9 43 22 40 41 86 41 99 0
7 5 13 10 13 6 0 10 10 10 23 0 12 7 31 15 41 8 11 15 28 15 38 0 10 5 18 10
18 6 0 10 11 10 25 0 14 5 25 10 25 6 0 10 8 10 18 0 9 7 26 15 36 8 11 15 28
15 37 0 29 32 36 70 14z m-965 -4072 c3 -27 10 -72 15 -102 6 -30 10 -85 10
-123 0 -39 4 -68 10 -68 6 0 10 -33 10 -80 0 -44 4 -99 10 -122 14 -64 31
-184 37 -265 2 -40 8 -73 13 -73 4 0 10 -33 13 -72 3 -40 13 -113 22 -163 9
-49 19 -118 22 -152 2 -35 8 -63 13 -63 5 0 11 -28 13 -62 3 -35 13 -101 22
-148 9 -47 19 -113 22 -147 2 -35 9 -63 14 -63 5 0 9 -18 9 -39 0 -22 5 -52
10 -67 12 -29 28 -120 37 -196 3 -27 9 -48 13 -48 4 0 10 -24 13 -52 3 -29 13
-87 22 -128 9 -41 19 -96 22 -122 3 -27 9 -48 13 -48 4 0 10 -19 13 -42 8 -61
28 -150 38 -170 5 -10 9 -36 9 -57 0 -22 5 -43 10 -46 6 -3 10 -19 10 -34 0
-16 7 -48 15 -71 8 -23 15 -58 15 -76 0 -19 5 -34 10 -34 6 0 10 -25 10 -55 0
-30 5 -55 10 -55 6 0 10 -13 10 -29 0 -16 7 -48 15 -71 8 -23 15 -55 15 -71 0
-16 4 -29 9 -29 5 0 11 -19 14 -42 2 -24 14 -79 26 -122 11 -44 21 -90 21
-103 0 -12 5 -23 10 -23 6 0 10 -18 10 -39 0 -22 5 -43 10 -46 6 -3 10 -23 10
-44 0 -31 -5 -40 -25 -49 -14 -7 -32 -12 -40 -12 -8 0 -15 -4 -15 -10 0 -5 -7
-10 -15 -10 -8 0 -38 -11 -67 -25 -28 -14 -60 -25 -70 -25 -10 0 -18 -4 -18
-10 0 -5 -7 -10 -15 -10 -8 0 -15 7 -15 15 0 8 -4 15 -10 15 -5 0 -10 17 -10
37 0 20 -4 50 -9 67 -20 68 -41 173 -41 204 0 17 -4 32 -10 32 -5 0 -10 23
-10 50 0 28 -4 50 -8 50 -8 0 -29 97 -38 182 -3 27 -10 48 -15 48 -5 0 -9 22
-9 48 0 27 -3 52 -7 56 -10 9 -33 114 -40 179 -3 26 -9 47 -13 47 -4 0 -10 24
-13 53 -3 28 -13 84 -22 122 -9 39 -19 89 -22 113 -3 23 -9 42 -13 42 -5 0
-10 24 -13 53 -3 28 -13 84 -22 122 -9 39 -19 91 -22 118 -3 26 -9 47 -14 47
-5 0 -9 12 -9 28 0 26 -22 135 -41 198 -5 17 -9 49 -9 72 0 23 -4 42 -9 42 -5
0 -11 21 -14 48 -3 26 -13 76 -22 112 -10 36 -19 89 -22 118 -3 28 -9 52 -14
52 -5 0 -9 17 -9 38 0 20 -7 55 -15 77 -8 22 -14 57 -15 78 0 20 -4 37 -10 37
-5 0 -10 23 -10 50 0 28 -4 50 -10 50 -5 0 -10 17 -10 38 0 20 -7 55 -15 77
-8 22 -14 57 -15 78 0 20 -4 37 -10 37 -5 0 -10 25 -10 55 0 30 -4 55 -10 55
-5 0 -10 15 -10 33 0 17 -7 50 -15 72 -8 22 -14 57 -15 78 0 20 -4 37 -10 37
-5 0 -10 18 -10 41 0 22 -5 50 -11 61 -8 14 -8 23 0 31 6 6 11 19 11 29 0 10
5 18 10 18 6 0 10 5 10 10 0 10 8 22 38 55 6 7 12 21 12 30 0 9 11 28 25 43
14 15 25 32 25 39 0 7 5 13 10 13 6 0 10 5 10 11 0 6 6 17 13 24 29 33 37 45
37 55 0 5 3 10 8 10 4 0 16 16 26 35 11 19 23 35 28 35 4 0 8 7 8 15 0 16 20
44 32 45 4 0 9 -21 13 -47z m4055 32 c0 -8 13 -29 30 -46 16 -17 32 -40 35
-50 4 -11 11 -19 16 -19 5 0 9 -5 9 -10 0 -10 8 -22 38 -55 6 -7 12 -18 12
-24 0 -6 4 -11 9 -11 5 0 12 -11 15 -25 4 -14 11 -25 16 -25 6 0 10 -9 10 -20
0 -11 5 -20 10 -20 6 0 10 -5 10 -10 0 -10 8 -22 38 -55 6 -7 12 -18 12 -24 0
-6 5 -11 10 -11 6 0 10 -8 10 -18 0 -10 5 -23 11 -29 8 -8 8 -17 0 -31 -6 -11
-11 -39 -11 -61 0 -23 -4 -41 -10 -41 -5 0 -10 -15 -10 -32 0 -18 -7 -51 -15
-73 -8 -22 -14 -57 -15 -77 0 -21 -4 -38 -10 -38 -5 0 -10 -25 -10 -55 0 -30
-4 -55 -10 -55 -5 0 -10 -17 -10 -37 -1 -21 -7 -56 -15 -78 -8 -22 -15 -55
-15 -72 0 -18 -4 -33 -10 -33 -5 0 -10 -25 -10 -55 0 -30 -4 -55 -10 -55 -5 0
-10 -17 -10 -37 -1 -21 -7 -56 -15 -78 -8 -22 -15 -57 -15 -77 0 -21 -4 -38
-10 -38 -5 0 -10 -22 -10 -50 0 -27 -4 -50 -8 -50 -8 0 -29 -97 -38 -182 -3
-27 -10 -48 -14 -48 -4 0 -10 -24 -13 -52 -2 -29 -14 -93 -26 -142 -11 -50
-21 -100 -21 -113 0 -13 -4 -23 -9 -23 -5 0 -11 -24 -14 -52 -3 -29 -12 -84
-22 -123 -9 -38 -19 -89 -22 -112 -3 -24 -9 -43 -13 -43 -5 0 -10 -24 -13 -52
-3 -29 -12 -84 -22 -123 -9 -38 -19 -94 -22 -122 -3 -29 -8 -53 -13 -53 -4 0
-10 -19 -13 -42 -3 -24 -13 -74 -22 -113 -9 -38 -19 -94 -22 -122 -3 -29 -9
-53 -13 -53 -4 0 -10 -21 -13 -47 -3 -27 -13 -77 -22 -113 -10 -36 -19 -89
-22 -118 -3 -28 -9 -52 -13 -52 -4 0 -11 -21 -14 -47 -9 -86 -30 -183 -38
-183 -4 0 -8 -22 -8 -50 0 -27 -4 -50 -10 -50 -5 0 -10 -9 -10 -20 0 -11 -7
-20 -15 -20 -8 0 -15 5 -15 10 0 6 -8 10 -18 10 -10 0 -42 11 -70 25 -29 14
-59 25 -67 25 -8 0 -15 5 -15 10 0 6 -7 10 -15 10 -8 0 -26 5 -40 12 -20 9
-25 18 -25 49 0 21 5 41 10 44 6 3 10 24 10 46 0 21 5 39 10 39 6 0 10 11 10
23 0 13 10 59 21 103 12 43 24 98 26 122 3 23 9 42 14 42 5 0 9 13 9 29 0 16
7 48 15 71 8 23 15 58 15 76 0 19 5 34 10 34 6 0 10 25 10 55 0 30 5 55 10 55
6 0 10 13 10 28 0 16 7 51 15 78 8 27 15 61 15 77 0 15 5 27 10 27 6 0 10 22
10 49 0 28 5 53 10 56 6 3 10 21 10 39 0 19 7 53 15 76 8 23 15 58 15 76 0 19
4 34 9 34 5 0 11 21 14 48 9 83 27 172 37 192 5 10 10 39 10 64 0 25 4 46 9
46 5 0 11 24 14 53 3 28 12 88 21 132 9 44 19 106 23 138 3 31 9 57 13 57 5 0
10 28 13 63 3 34 12 98 21 142 9 44 19 108 23 143 3 34 9 62 13 62 5 0 11 30
13 68 3 37 13 110 22 162 9 52 19 130 22 173 2 42 8 77 13 77 5 0 10 28 13 63
5 69 23 213 37 298 6 30 10 88 10 127 0 41 4 72 10 72 6 0 10 31 10 74 0 89
18 176 37 176 7 0 13 -7 13 -15z m-4500 -776 c0 -27 4 -49 9 -49 5 0 11 -21
14 -47 3 -27 13 -77 22 -113 10 -36 19 -89 22 -117 3 -29 9 -53 13 -53 4 0 11
-21 14 -47 9 -86 30 -183 38 -183 4 0 8 -22 8 -50 0 -27 5 -50 10 -50 6 0 10
-17 10 -39 0 -21 7 -58 15 -81 8 -23 15 -58 15 -76 0 -19 5 -34 10 -34 6 0 10
-25 10 -55 0 -30 5 -55 10 -55 6 0 10 -15 10 -32 0 -18 7 -51 15 -73 8 -22 14
-57 15 -77 0 -21 5 -38 10 -38 6 0 10 -22 10 -49 0 -28 5 -53 10 -56 6 -3 10
-23 10 -43 1 -20 7 -55 15 -77 8 -22 15 -55 15 -72 0 -18 5 -33 10 -33 6 0 10
-23 10 -50 0 -28 4 -58 9 -68 11 -22 31 -113 38 -174 3 -27 9 -48 14 -48 5 0
9 -22 9 -48 0 -27 3 -52 8 -56 9 -9 32 -114 39 -178 3 -27 9 -48 13 -48 4 0
10 -24 13 -52 3 -29 13 -82 22 -118 9 -36 19 -89 22 -117 3 -29 9 -53 13 -53
4 0 10 -21 13 -47 3 -27 13 -79 22 -118 9 -38 19 -91 22 -118 3 -26 9 -47 14
-47 5 0 9 -18 9 -41 0 -22 5 -49 10 -60 17 -30 25 -149 11 -149 -7 0 -24 -11
-39 -25 -15 -14 -31 -25 -37 -25 -6 0 -17 -9 -25 -20 -8 -11 -19 -20 -25 -20
-6 0 -28 -16 -48 -35 -20 -19 -42 -35 -47 -35 -6 0 -10 -7 -10 -15 0 -8 -4
-15 -9 -15 -11 0 -201 -185 -201 -195 0 -3 -6 -12 -12 -19 -28 -29 -58 -66
-58 -72 0 -4 -16 -21 -35 -40 -19 -18 -35 -40 -35 -48 0 -9 -4 -16 -10 -16 -5
0 -10 -5 -10 -11 0 -6 -6 -17 -12 -24 -30 -33 -38 -45 -38 -55 0 -5 -4 -10 -9
-10 -5 0 -12 -11 -15 -25 -4 -14 -11 -25 -16 -25 -6 0 -10 -9 -10 -20 0 -11
-3 -20 -8 -20 -4 0 -16 -19 -27 -41 -32 -67 -39 -79 -47 -79 -5 0 -8 -9 -8
-21 0 -11 -7 -27 -15 -35 -8 -9 -15 -24 -15 -34 0 -10 -4 -22 -10 -25 -5 -3
-10 -15 -10 -26 0 -10 -4 -19 -10 -19 -5 0 -10 -11 -10 -25 0 -14 -4 -25 -10
-25 -5 0 -12 -16 -16 -35 -3 -19 -10 -35 -15 -35 -5 0 -9 -11 -9 -25 0 -14 -4
-25 -10 -25 -5 0 -10 -15 -10 -34 0 -19 -3 -36 -7 -38 -10 -4 -43 -100 -43
-122 0 -9 -4 -16 -10 -16 -5 0 -10 -13 -10 -29 0 -17 -4 -32 -9 -35 -9 -6 -41
69 -41 97 0 9 -4 17 -9 17 -5 0 -11 12 -14 27 -18 85 -32 133 -39 133 -4 0 -8
16 -8 35 0 19 -3 35 -8 35 -8 0 -31 81 -39 137 -3 18 -9 33 -14 33 -5 0 -9 20
-9 45 0 25 -4 45 -10 45 -5 0 -10 14 -10 30 0 17 -7 47 -15 67 -8 19 -15 53
-15 74 0 22 -4 39 -9 39 -5 0 -11 24 -14 53 -3 28 -12 88 -22 132 -9 44 -19
108 -22 142 -3 35 -9 63 -14 63 -5 0 -9 33 -9 74 0 41 -4 85 -9 98 -4 13 -11
75 -15 138 -4 63 -11 153 -17 199 -15 112 -4 620 16 816 9 83 19 185 21 228 3
42 9 77 14 77 5 0 11 28 13 63 3 34 13 100 22 147 9 47 19 106 22 133 3 26 9
47 13 47 4 0 10 19 13 43 8 64 30 147 39 147 4 0 8 20 8 45 0 25 5 45 10 45 6
0 10 12 10 28 1 15 7 38 15 52 8 14 14 40 15 58 0 17 5 32 10 32 6 0 10 8 10
17 0 19 16 73 36 121 8 18 14 42 14 52 0 11 5 20 10 20 6 0 10 11 10 25 0 14
4 25 9 25 5 0 12 16 15 35 4 19 11 35 16 35 6 0 10 11 10 25 0 14 5 25 10 25
6 0 10 9 10 20 0 11 4 28 9 38 24 44 41 87 41 104 0 10 5 18 10 18 6 0 10 11
10 25 0 14 4 25 9 25 5 0 12 16 15 35 4 19 11 35 16 35 6 0 10 9 10 20 0 11 5
20 10 20 6 0 10 6 10 14 0 17 32 80 43 84 4 2 7 12 7 23 0 10 5 19 10 19 6 0
10 6 10 14 0 17 32 80 43 84 4 2 7 15 7 28 0 13 5 24 10 24 6 0 10 5 10 12 0
17 31 49 41 42 5 -3 9 -27 9 -55z m4970 14 c0 -7 5 -13 10 -13 6 0 10 -11 10
-24 0 -13 3 -26 8 -28 10 -4 42 -67 42 -84 0 -8 5 -14 10 -14 6 0 10 -9 10
-19 0 -11 3 -21 8 -23 10 -4 42 -67 42 -84 0 -8 5 -14 10 -14 6 0 10 -9 10
-20 0 -11 4 -20 10 -20 5 0 12 -16 16 -35 3 -19 10 -35 15 -35 5 0 9 -11 9
-25 0 -14 5 -25 10 -25 6 0 10 -9 10 -20 0 -11 4 -28 9 -38 24 -44 41 -87 41
-104 0 -10 5 -18 10 -18 6 0 10 -11 10 -25 0 -14 4 -25 10 -25 5 0 12 -16 16
-35 3 -19 10 -35 15 -35 5 0 9 -11 9 -25 0 -14 5 -25 10 -25 6 0 10 -9 10 -20
0 -10 6 -34 14 -52 20 -48 36 -102 36 -121 0 -9 5 -17 10 -17 6 0 10 -15 10
-32 1 -18 7 -44 15 -58 8 -14 14 -37 15 -52 0 -16 5 -28 10 -28 6 0 10 -20 10
-44 0 -24 3 -46 8 -48 9 -4 42 -134 42 -165 0 -13 4 -23 9 -23 5 0 11 -21 14
-47 3 -27 13 -86 22 -133 9 -47 19 -113 22 -147 2 -35 8 -63 13 -63 5 0 11
-35 14 -77 2 -43 12 -145 21 -228 20 -196 31 -704 16 -816 -6 -46 -13 -136
-17 -199 -4 -63 -11 -125 -15 -138 -5 -13 -9 -55 -9 -93 0 -38 -4 -69 -9 -69
-5 0 -11 -30 -14 -67 -3 -38 -13 -104 -22 -148 -10 -44 -19 -104 -22 -132 -3
-29 -9 -53 -14 -53 -5 0 -9 -17 -9 -39 0 -21 -7 -55 -15 -74 -8 -20 -15 -50
-15 -67 0 -16 -4 -30 -10 -30 -5 0 -10 -20 -10 -45 0 -25 -4 -45 -9 -45 -5 0
-11 -15 -14 -32 -8 -57 -31 -138 -39 -138 -5 0 -8 -16 -8 -35 0 -19 -4 -35 -8
-35 -7 0 -21 -48 -39 -133 -3 -15 -9 -27 -14 -27 -5 0 -9 -8 -9 -17 0 -28 -32
-103 -41 -97 -5 3 -9 18 -9 35 0 16 -4 29 -10 29 -5 0 -10 7 -10 16 0 22 -33
118 -42 122 -5 2 -8 19 -8 38 0 19 -4 34 -10 34 -5 0 -10 11 -10 25 0 14 -4
25 -9 25 -5 0 -12 16 -15 35 -4 19 -11 35 -16 35 -6 0 -10 11 -10 25 0 14 -4
25 -10 25 -5 0 -10 9 -10 19 0 11 -4 23 -10 26 -5 3 -10 15 -10 25 0 10 -7 25
-15 34 -8 8 -15 24 -15 35 0 12 -3 21 -8 21 -8 0 -15 12 -47 79 -11 22 -23 41
-27 41 -5 0 -8 9 -8 20 0 11 -4 20 -10 20 -5 0 -12 11 -16 25 -3 14 -10 25
-15 25 -5 0 -9 5 -9 10 0 10 -8 22 -37 55 -7 7 -13 18 -13 24 0 6 -4 11 -10
11 -5 0 -10 7 -10 16 0 8 -16 30 -35 48 -19 19 -35 37 -35 40 0 4 -6 13 -12
20 -27 28 -58 66 -58 72 0 10 -191 194 -201 194 -5 0 -9 7 -9 15 0 8 -4 15
-10 15 -5 0 -27 16 -47 35 -20 19 -42 35 -48 35 -6 0 -17 9 -25 20 -8 11 -19
20 -25 20 -6 0 -22 11 -37 25 -15 14 -32 25 -39 25 -14 0 -6 119 11 149 5 11
10 38 10 60 0 23 4 41 9 41 5 0 11 21 14 48 3 26 13 79 22 117 9 39 19 91 22
118 3 26 9 47 13 47 4 0 10 24 13 53 3 28 13 81 22 117 9 36 19 89 22 118 3
28 9 52 13 52 4 0 10 21 13 48 7 64 30 169 40 178 4 4 7 29 7 56 0 26 4 48 9
48 5 0 11 21 14 48 7 61 27 152 38 174 5 10 9 40 9 68 0 27 5 50 10 50 6 0 10
15 10 33 0 17 7 50 15 72 8 22 14 57 15 77 0 20 5 40 10 43 6 3 10 28 10 56 0
27 5 49 10 49 6 0 10 17 10 38 1 20 7 55 15 77 8 22 15 55 15 73 0 17 5 32 10
32 6 0 10 25 10 55 0 30 5 55 10 55 6 0 10 15 10 34 0 18 7 53 15 76 8 23 15
60 15 81 0 22 5 39 10 39 6 0 10 23 10 50 0 28 4 50 8 50 8 0 29 97 38 183 3
26 10 47 15 47 5 0 9 23 9 50 0 28 4 50 8 50 8 0 29 97 38 183 3 26 10 47 15
47 5 0 9 22 9 48 0 27 3 52 7 55 9 9 43 -22 43 -40z m-1672 -3043 l52 0 0 -70
c0 -38 -4 -70 -9 -70 -5 0 -11 -26 -14 -57 -3 -32 -12 -98 -22 -148 -9 -49
-19 -118 -22 -152 -3 -35 -9 -63 -14 -63 -5 0 -9 -15 -9 -34 0 -19 -7 -41 -15
-50 -8 -8 -15 -17 -15 -21 0 -11 -45 -50 -73 -63 -41 -18 -1353 -18 -1394 0
-28 13 -73 52 -73 63 0 4 -7 13 -15 21 -8 9 -15 31 -15 50 0 19 -4 34 -9 34
-5 0 -11 28 -14 63 -3 34 -13 103 -22 152 -10 50 -19 116 -22 148 -3 31 -9 57
-14 57 -5 0 -9 31 -9 69 l0 70 38 3 c28 2 1257 1 1690 -2z"/>
<path d="M5880 8800 c0 -5 -24 -10 -53 -10 -30 0 -57 -3 -60 -6 -10 -10 -109
-43 -129 -44 -10 0 -18 -4 -18 -10 0 -5 -9 -10 -20 -10 -11 0 -20 -4 -20 -9 0
-5 -11 -12 -25 -15 -14 -4 -25 -11 -25 -16 0 -6 -9 -10 -20 -10 -11 0 -20 -4
-20 -10 0 -5 -5 -10 -11 -10 -6 0 -16 -6 -23 -12 -25 -25 -66 -58 -71 -58 -6
0 -85 -78 -85 -85 0 -7 -14 -24 -47 -60 -13 -13 -23 -29 -23 -35 0 -5 -4 -10
-10 -10 -5 0 -12 -11 -16 -25 -3 -14 -10 -25 -15 -25 -5 0 -9 -9 -9 -20 0 -11
-4 -20 -9 -20 -5 0 -12 -11 -15 -25 -4 -14 -11 -25 -16 -25 -6 0 -10 -11 -10
-25 0 -14 -4 -25 -9 -25 -5 0 -11 -17 -14 -37 -3 -21 -14 -74 -23 -118 -22
-102 -22 -238 0 -340 9 -44 20 -97 23 -117 3 -21 9 -38 14 -38 5 0 9 -11 9
-25 0 -14 4 -25 10 -25 5 0 12 -11 16 -25 3 -14 10 -25 15 -25 5 0 9 -9 9 -20
0 -11 4 -20 9 -20 5 0 12 -11 15 -25 4 -14 11 -25 16 -25 6 0 10 -5 10 -10 0
-6 10 -22 23 -35 33 -36 47 -53 47 -60 0 -7 79 -85 85 -85 5 0 46 -33 71 -57
7 -7 17 -13 23 -13 6 0 11 -4 11 -10 0 -5 9 -10 20 -10 11 0 20 -4 20 -10 0
-5 11 -12 25 -16 14 -3 25 -10 25 -15 0 -5 9 -9 20 -9 11 0 20 -4 20 -10 0 -5
8 -10 18 -10 20 -1 119 -34 129 -44 3 -3 30 -6 60 -6 29 0 53 -4 53 -10 0 -6
47 -10 120 -10 73 0 120 4 120 10 0 6 24 10 53 10 30 0 57 3 60 6 10 10 109
43 130 44 9 0 17 5 17 10 0 6 9 10 20 10 11 0 20 4 20 9 0 5 11 12 25 15 14 4
25 11 25 16 0 6 9 10 20 10 11 0 20 5 20 10 0 6 4 10 10 10 9 0 42 25 76 58 7
6 15 12 18 12 7 0 86 78 86 85 0 7 14 24 48 60 12 13 22 29 22 35 0 5 4 10 10
10 5 0 12 11 16 25 3 14 10 25 15 25 5 0 9 9 9 20 0 11 4 20 9 20 5 0 12 11
15 25 4 14 11 25 16 25 6 0 10 16 10 35 0 19 4 35 9 35 5 0 11 12 15 28 3 15
13 63 22 107 10 44 17 121 17 170 0 50 -7 126 -17 170 -9 44 -19 92 -22 108
-4 15 -10 27 -15 27 -5 0 -9 16 -9 35 0 19 -4 35 -10 35 -5 0 -12 11 -16 25
-3 14 -10 25 -15 25 -5 0 -9 9 -9 20 0 11 -4 20 -9 20 -5 0 -12 11 -15 25 -4
14 -11 25 -16 25 -6 0 -10 5 -10 10 0 6 -10 22 -22 35 -34 36 -48 53 -48 60 0
7 -79 85 -85 85 -5 0 -46 33 -71 58 -7 6 -17 12 -23 12 -6 0 -11 5 -11 10 0 6
-9 10 -20 10 -11 0 -20 4 -20 10 0 5 -11 12 -25 16 -14 3 -25 10 -25 15 0 5
-9 9 -20 9 -11 0 -20 5 -20 10 0 6 -8 10 -17 10 -21 1 -120 34 -130 44 -3 3
-30 6 -60 6 -29 0 -53 5 -53 10 0 6 -47 10 -120 10 -73 0 -120 -4 -120 -10z
m285 -195 c22 -4 42 -11 43 -16 2 -5 16 -9 30 -9 26 0 134 -48 140 -62 2 -5
10 -8 18 -8 8 0 30 -16 48 -35 19 -19 38 -35 43 -35 12 0 73 -56 73 -67 0 -5
15 -25 33 -44 32 -36 87 -134 87 -157 0 -6 5 -12 10 -12 6 0 10 -10 10 -22 1
-13 7 -34 15 -48 8 -14 14 -42 15 -62 0 -21 5 -38 10 -38 6 0 10 -45 10 -115
0 -70 -4 -115 -10 -115 -5 0 -10 -17 -10 -37 -1 -21 -7 -49 -15 -63 -8 -14
-14 -35 -15 -47 0 -13 -4 -23 -10 -23 -5 0 -10 -6 -10 -12 0 -23 -55 -121 -87
-157 -18 -19 -33 -39 -33 -44 0 -11 -61 -67 -73 -67 -5 0 -24 -16 -43 -35 -18
-19 -40 -35 -48 -35 -8 0 -16 -3 -18 -7 -6 -15 -114 -63 -140 -63 -14 0 -28
-4 -30 -9 -6 -16 -80 -25 -208 -25 -128 0 -202 9 -208 25 -2 5 -16 9 -30 9
-26 0 -134 48 -140 63 -2 4 -10 7 -18 7 -8 0 -30 16 -48 35 -19 19 -38 35 -43
35 -12 0 -73 56 -73 67 0 5 -15 25 -32 44 -33 36 -88 134 -88 157 0 6 -4 12
-10 12 -5 0 -10 10 -10 23 -1 12 -7 33 -15 47 -8 14 -14 42 -15 63 0 20 -4 37
-10 37 -6 0 -10 45 -10 115 0 70 4 115 10 115 6 0 10 17 10 38 1 20 7 48 15
62 8 14 14 35 15 48 0 12 5 22 10 22 6 0 10 6 10 12 0 23 55 121 88 157 17 19
32 39 32 44 0 11 61 67 73 67 5 0 24 16 43 35 18 19 40 35 48 35 8 0 16 3 18
8 6 14 114 62 140 62 14 0 28 4 30 9 2 5 20 11 41 14 21 3 41 8 45 12 8 8 233
1 287 -10z"/>
<path d="M6050 8423 c-43 -30 -50 -41 -50 -78 0 -57 44 -95 109 -95 28 0 51
-4 51 -10 0 -5 11 -10 24 -10 13 0 29 -7 36 -15 7 -8 17 -15 22 -15 17 0 88
-76 88 -94 0 -9 5 -16 10 -16 6 0 10 -11 10 -24 0 -14 4 -27 9 -30 4 -3 11
-28 15 -55 8 -64 44 -101 95 -101 37 1 71 19 71 39 0 6 5 11 10 11 6 0 10 30
10 70 0 40 -4 70 -10 70 -5 0 -10 13 -10 29 0 17 -4 33 -10 36 -5 3 -10 15
-10 26 0 10 -4 19 -9 19 -5 0 -13 10 -17 23 -4 12 -14 29 -24 37 -9 8 -25 30
-35 48 -11 17 -24 32 -30 32 -6 0 -22 11 -37 25 -15 14 -34 25 -43 25 -8 0
-15 5 -15 10 0 6 -7 10 -15 10 -8 0 -15 3 -15 8 0 8 -143 42 -180 42 -14 0
-37 -8 -50 -17z"/>
<path d="M5350 5800 c0 -5 -12 -10 -27 -11 -16 0 -41 -9 -58 -20 -16 -10 -37
-22 -45 -26 -22 -10 -90 -86 -90 -100 0 -7 -4 -13 -10 -13 -5 0 -10 -7 -10
-15 0 -8 -4 -15 -10 -15 -5 0 -10 -9 -10 -20 0 -12 -7 -34 -15 -50 -13 -25
-15 -162 -15 -1030 0 -868 2 -1005 15 -1030 8 -16 15 -38 15 -50 0 -11 5 -20
10 -20 6 0 10 -7 10 -15 0 -8 5 -15 10 -15 6 0 10 -6 10 -13 0 -14 68 -90 90
-100 8 -4 29 -16 45 -26 17 -11 42 -20 58 -20 15 -1 27 -5 27 -11 0 -7 223
-10 650 -10 427 0 650 3 650 10 0 6 11 10 25 10 26 0 58 15 83 38 7 6 18 12
24 12 14 0 76 69 84 92 3 10 10 18 15 18 5 0 9 7 9 15 0 8 5 15 10 15 6 0 10
8 10 18 0 9 7 35 15 57 21 60 21 1990 0 2050 -8 22 -15 48 -15 58 0 9 -4 17
-10 17 -5 0 -10 7 -10 15 0 8 -4 15 -9 15 -5 0 -12 8 -15 18 -8 23 -70 92 -84
92 -6 0 -17 6 -24 13 -25 22 -57 37 -83 37 -14 0 -25 5 -25 10 0 7 -223 10
-650 10 -427 0 -650 -3 -650 -10z m1273 -191 c20 -7 37 -16 37 -21 0 -4 6 -8
13 -8 14 0 57 -52 57 -70 0 -5 5 -10 10 -10 7 0 10 -338 10 -995 0 -657 -3
-995 -10 -995 -5 0 -10 -7 -10 -15 0 -22 -41 -75 -57 -75 -7 0 -13 -4 -13 -8
0 -4 -15 -13 -34 -20 -46 -17 -1248 -20 -1254 -3 -2 6 -10 11 -18 11 -8 0 -14
5 -14 10 0 6 -6 10 -13 10 -16 0 -57 53 -57 75 0 8 -4 15 -10 15 -7 0 -10 338
-10 995 0 547 3 995 8 995 7 0 25 30 38 63 3 9 15 17 25 17 11 0 19 5 19 10 0
6 7 10 15 10 8 0 15 4 15 10 0 14 68 15 665 13 394 -2 561 -6 588 -14z"/>
<path d="M5945 5436 c-5 -2 -38 -10 -72 -17 -35 -7 -63 -17 -63 -21 0 -4 -11
-8 -25 -8 -14 0 -25 -4 -25 -10 0 -5 -9 -10 -20 -10 -11 0 -20 -4 -20 -9 0 -5
-10 -13 -22 -17 -30 -9 -168 -148 -168 -168 0 -9 -4 -16 -9 -16 -5 0 -12 -11
-15 -25 -4 -14 -11 -25 -16 -25 -6 0 -10 -11 -10 -25 0 -14 -4 -25 -10 -25 -5
0 -10 -16 -10 -35 0 -19 -4 -35 -10 -35 -6 0 -10 -45 -10 -115 0 -70 4 -115
10 -115 6 0 10 -16 10 -35 0 -19 5 -35 10 -35 6 0 10 -11 10 -25 0 -14 4 -25
10 -25 5 0 12 -11 16 -25 3 -14 10 -25 15 -25 5 0 9 -7 9 -16 0 -20 138 -159
168 -168 12 -4 22 -12 22 -17 0 -5 9 -9 20 -9 11 0 20 -4 20 -10 0 -5 11 -10
25 -10 14 0 25 -4 25 -8 0 -13 121 -37 190 -37 69 0 190 24 190 37 0 4 11 8
25 8 14 0 25 5 25 10 0 6 9 10 20 10 11 0 20 4 20 9 0 5 10 13 23 17 27 9 167
149 167 168 0 8 3 16 8 18 4 2 15 21 26 43 10 22 22 48 27 57 5 10 9 29 9 43
0 14 5 25 10 25 6 0 10 45 10 115 0 70 -4 115 -10 115 -5 0 -10 11 -10 25 0
14 -4 33 -9 43 -5 9 -17 35 -27 57 -11 22 -22 42 -26 43 -5 2 -8 10 -8 18 0
19 -140 159 -167 168 -13 4 -23 12 -23 17 0 5 -9 9 -20 9 -11 0 -20 5 -20 10
0 6 -11 10 -25 10 -14 0 -25 3 -25 8 0 17 -213 50 -245 38z m145 -196 c0 -5
10 -10 23 -10 13 0 32 -7 43 -15 10 -8 25 -15 32 -15 19 0 117 -103 133 -139
8 -17 17 -31 21 -31 5 0 8 -13 8 -29 0 -17 5 -33 10 -36 6 -3 10 -44 10 -90 0
-46 -4 -87 -10 -90 -5 -3 -10 -19 -10 -36 0 -16 -3 -29 -8 -29 -4 0 -13 -14
-21 -30 -17 -40 -94 -120 -115 -120 -9 0 -16 -4 -16 -8 0 -12 -56 -42 -79 -42
-12 0 -21 -4 -21 -10 0 -6 -37 -10 -90 -10 -53 0 -90 4 -90 10 0 6 -9 10 -21
10 -23 0 -79 30 -79 42 0 4 -7 8 -16 8 -22 0 -124 109 -124 132 0 10 -4 18
-10 18 -5 0 -10 14 -10 30 0 17 -4 30 -10 30 -6 0 -10 38 -10 95 0 57 4 95 10
95 6 0 10 14 10 30 0 17 5 30 10 30 6 0 10 8 10 18 0 22 121 152 141 152 8 0
23 7 33 15 11 8 30 15 43 15 13 0 23 5 23 10 0 6 37 10 90 10 53 0 90 -4 90
-10z"/>
</g>
</svg>
