<?xml version="1.0" standalone="no"?>
<!DOCTYPE svg PUBLIC "-//W3C//DTD SVG 20010904//EN"
 "http://www.w3.org/TR/2001/REC-SVG-20010904/DTD/svg10.dtd">
<svg version="1.0" xmlns="http://www.w3.org/2000/svg"
 width="800.000000pt" height="800.000000pt" viewBox="0 0 1200.000000 1200.000000"
 preserveAspectRatio="xMidYMid meet">

<g transform="translate(0.000000,1200.000000) scale(0.100000,-0.100000)"
fill="#ffffff" stroke="none">
<path d="M5625 11610 c-16 -4 -81 -8 -142 -9 -62 0 -113 -5 -113 -10 0 -5 -39
-11 -87 -14 -49 -4 -126 -14 -173 -22 -47 -9 -109 -19 -137 -22 -29 -3 -53 -9
-53 -13 0 -4 -24 -10 -52 -13 -29 -3 -80 -13 -113 -22 -33 -10 -81 -20 -107
-22 -27 -3 -48 -9 -48 -13 0 -4 -15 -10 -32 -13 -70 -12 -138 -31 -138 -39 0
-4 -18 -8 -40 -8 -22 0 -40 -4 -40 -10 0 -5 -11 -10 -25 -10 -22 0 -68 -16
-117 -41 -10 -5 -29 -9 -43 -9 -14 0 -25 -3 -25 -7 0 -5 -29 -17 -65 -28 -36
-10 -65 -23 -65 -27 0 -4 -11 -8 -25 -8 -14 0 -25 -4 -25 -9 0 -5 -12 -11 -27
-14 -44 -9 -103 -31 -103 -39 0 -5 -11 -8 -25 -8 -14 0 -25 -4 -25 -8 0 -4
-22 -16 -50 -27 -27 -11 -50 -23 -50 -27 0 -4 -11 -8 -25 -8 -14 0 -25 -4 -25
-10 0 -5 -8 -10 -18 -10 -10 0 -27 -7 -38 -15 -10 -8 -26 -15 -36 -15 -9 0
-18 -3 -20 -7 -4 -10 -110 -63 -125 -63 -6 0 -13 -3 -15 -7 -1 -5 -19 -16 -38
-25 -37 -19 -72 -40 -80 -48 -3 -3 -24 -14 -47 -24 -24 -11 -43 -23 -43 -28 0
-4 -7 -8 -15 -8 -8 0 -15 -4 -15 -10 0 -5 -6 -10 -14 -10 -18 0 -76 -32 -76
-42 0 -5 -7 -8 -15 -8 -8 0 -15 -4 -15 -8 0 -4 -25 -21 -55 -37 -30 -17 -55
-33 -55 -37 0 -5 -5 -8 -11 -8 -6 0 -17 -6 -24 -12 -33 -30 -45 -38 -55 -38
-5 0 -10 -4 -10 -10 0 -5 -6 -10 -13 -10 -7 0 -24 -11 -39 -25 -15 -14 -32
-25 -39 -25 -6 0 -22 -11 -35 -25 -13 -14 -28 -25 -34 -25 -5 0 -10 -4 -10
-10 0 -5 -4 -10 -10 -10 -5 0 -19 -8 -29 -17 -52 -48 -82 -73 -89 -73 -4 0
-21 -13 -38 -28 -17 -15 -44 -36 -59 -47 -15 -11 -49 -41 -76 -67 -26 -27 -51
-48 -54 -48 -6 0 -27 -18 -105 -92 -27 -27 -54 -48 -60 -48 -5 0 -10 -5 -10
-11 0 -11 -25 -39 -35 -39 -8 0 -35 -27 -35 -35 0 -8 -27 -35 -35 -35 -8 0
-35 -27 -35 -35 0 -10 -28 -35 -39 -35 -6 0 -10 -3 -8 -8 1 -4 -20 -31 -48
-60 -76 -80 -95 -101 -95 -107 0 -3 -21 -28 -48 -54 -26 -27 -56 -61 -67 -76
-11 -15 -32 -42 -47 -59 -15 -17 -28 -35 -28 -39 0 -5 -16 -24 -35 -43 -19
-18 -35 -38 -35 -44 0 -5 -4 -10 -10 -10 -5 0 -10 -7 -10 -15 0 -8 -4 -15 -10
-15 -5 0 -10 -5 -10 -10 0 -6 -11 -21 -25 -34 -14 -13 -25 -29 -25 -35 0 -7
-11 -24 -25 -39 -14 -15 -25 -32 -25 -39 0 -7 -4 -13 -10 -13 -5 0 -10 -5 -10
-11 0 -6 -6 -17 -13 -24 -29 -33 -37 -45 -37 -55 0 -5 -3 -10 -7 -10 -5 0 -21
-25 -38 -55 -16 -30 -33 -55 -37 -55 -4 0 -8 -7 -8 -15 0 -8 -3 -15 -7 -15
-11 0 -43 -58 -43 -76 0 -8 -4 -14 -10 -14 -5 0 -10 -7 -10 -15 0 -8 -4 -15
-8 -15 -5 0 -17 -19 -28 -42 -10 -24 -21 -45 -24 -48 -8 -8 -29 -43 -48 -80
-9 -19 -20 -36 -24 -38 -5 -2 -8 -9 -8 -15 0 -15 -53 -121 -62 -125 -5 -2 -8
-11 -8 -20 0 -9 -7 -26 -15 -36 -8 -11 -15 -28 -15 -38 0 -10 -4 -18 -10 -18
-5 0 -10 -11 -10 -25 0 -14 -4 -25 -8 -25 -4 0 -16 -22 -27 -50 -11 -27 -23
-50 -27 -50 -4 0 -8 -11 -8 -25 0 -14 -3 -25 -8 -25 -8 0 -30 -59 -39 -102 -3
-16 -9 -28 -14 -28 -5 0 -9 -11 -9 -25 0 -14 -4 -25 -8 -25 -4 0 -17 -29 -27
-65 -11 -36 -23 -65 -27 -65 -5 0 -8 -11 -8 -25 0 -14 -4 -33 -9 -43 -25 -49
-41 -95 -41 -117 0 -14 -4 -25 -10 -25 -5 0 -10 -18 -10 -40 0 -22 -4 -40 -8
-40 -8 0 -27 -68 -39 -137 -3 -18 -9 -33 -13 -33 -4 0 -10 -21 -13 -47 -2 -27
-12 -75 -22 -108 -9 -33 -19 -84 -22 -112 -3 -29 -9 -53 -13 -53 -4 0 -10 -24
-13 -52 -3 -29 -13 -91 -22 -138 -8 -47 -18 -124 -22 -172 -3 -49 -9 -88 -13
-88 -13 0 -23 -262 -23 -630 0 -368 10 -630 23 -630 4 0 10 -39 13 -87 4 -49
14 -126 22 -173 9 -47 19 -109 22 -137 3 -29 9 -53 13 -53 4 0 10 -24 13 -52
3 -29 13 -80 22 -113 10 -33 20 -81 22 -107 3 -27 9 -48 13 -48 4 0 10 -15 13
-32 12 -70 31 -138 39 -138 4 0 8 -18 8 -40 0 -22 5 -40 10 -40 6 0 10 -11 10
-24 0 -13 7 -37 15 -52 8 -16 15 -37 15 -46 0 -9 5 -20 10 -23 6 -3 10 -19 10
-36 0 -16 3 -29 8 -29 4 0 16 -29 27 -65 10 -36 23 -65 27 -65 4 0 8 -11 8
-25 0 -14 4 -25 9 -25 5 0 11 -12 14 -28 9 -43 31 -102 39 -102 5 0 8 -11 8
-25 0 -14 4 -25 8 -25 4 0 16 -22 27 -50 11 -27 23 -50 27 -50 4 0 8 -11 8
-25 0 -14 5 -25 10 -25 6 0 10 -8 10 -18 0 -10 7 -27 15 -38 8 -10 15 -26 15
-36 0 -9 3 -18 8 -20 9 -4 62 -110 62 -126 0 -6 5 -12 10 -12 6 0 10 -7 10
-15 0 -8 5 -15 10 -15 6 0 10 -8 10 -19 0 -10 7 -24 15 -31 8 -7 15 -19 15
-26 0 -8 3 -14 8 -14 4 0 15 -20 25 -45 11 -25 23 -45 28 -45 5 0 9 -7 9 -15
0 -8 5 -15 10 -15 6 0 10 -6 10 -14 0 -18 32 -76 43 -76 4 0 7 -7 7 -15 0 -8
4 -15 8 -15 4 0 21 -25 37 -55 17 -30 33 -55 38 -55 4 0 7 -5 7 -11 0 -6 6
-17 13 -24 29 -33 37 -45 37 -55 0 -5 5 -10 10 -10 6 0 10 -6 10 -13 0 -7 11
-24 25 -39 14 -15 25 -32 25 -38 0 -6 11 -21 25 -34 14 -13 25 -28 25 -35 0
-6 5 -11 10 -11 6 0 10 -4 10 -10 0 -5 8 -19 17 -29 48 -52 73 -82 73 -89 0
-4 13 -21 28 -38 15 -17 36 -44 47 -59 11 -15 41 -49 68 -76 26 -26 47 -51 47
-54 0 -7 23 -33 118 -130 39 -41 72 -77 72 -80 0 -8 27 -35 35 -35 8 0 35 -27
35 -35 0 -8 27 -35 35 -35 3 0 39 -33 80 -72 97 -95 123 -118 130 -118 3 0 28
-21 54 -48 27 -26 61 -56 76 -67 15 -11 42 -32 59 -47 17 -15 35 -28 39 -28 4
0 18 -10 31 -22 12 -13 39 -34 59 -48 20 -14 37 -28 37 -32 0 -5 5 -8 11 -8 7
0 22 -11 35 -25 13 -14 28 -25 34 -25 6 0 23 -11 38 -25 15 -14 32 -25 39 -25
7 0 13 -4 13 -10 0 -5 5 -10 11 -10 6 0 17 -6 24 -12 33 -30 45 -38 55 -38 5
0 10 -3 10 -7 0 -5 25 -21 55 -38 30 -16 55 -33 55 -37 0 -4 7 -8 15 -8 8 0
15 -3 15 -7 0 -11 58 -43 76 -43 8 0 14 -4 14 -10 0 -5 7 -10 15 -10 8 0 15
-4 15 -8 0 -5 19 -17 43 -28 23 -10 44 -21 47 -24 3 -3 23 -14 45 -25 22 -11
42 -23 43 -27 2 -5 10 -8 18 -8 8 0 14 -4 14 -10 0 -5 6 -10 12 -10 16 0 122
-53 126 -62 2 -5 11 -8 20 -8 10 0 26 -7 36 -15 11 -8 28 -15 38 -15 10 0 18
-4 18 -10 0 -5 11 -10 25 -10 14 0 25 -4 25 -8 0 -4 22 -16 50 -27 27 -11 50
-23 50 -27 0 -4 13 -8 29 -8 16 0 31 -3 33 -7 5 -12 76 -43 98 -43 11 0 20 -4
20 -10 0 -5 11 -10 25 -10 14 0 25 -4 25 -8 0 -4 29 -17 65 -27 36 -11 65 -23
65 -27 0 -5 13 -8 29 -8 17 0 33 -4 36 -10 3 -5 14 -10 23 -10 9 0 30 -7 46
-15 15 -8 39 -15 52 -15 13 0 24 -4 24 -10 0 -5 18 -10 40 -10 22 0 40 -4 40
-8 0 -8 68 -27 138 -39 17 -3 32 -9 32 -13 0 -4 21 -10 48 -13 26 -2 74 -12
107 -22 33 -9 84 -19 113 -22 28 -3 52 -9 52 -13 0 -4 24 -11 53 -14 28 -3 95
-12 147 -21 52 -10 130 -19 173 -22 42 -2 77 -8 77 -13 0 -13 251 -22 630 -22
379 0 630 9 630 22 0 5 35 11 78 13 42 3 120 12 172 22 52 9 119 18 148 21 28
3 52 10 52 14 0 4 24 10 53 13 28 3 79 13 112 22 33 10 81 20 108 22 26 3 47
9 47 13 0 4 15 10 33 13 69 12 137 31 137 39 0 4 18 8 40 8 22 0 40 5 40 10 0
6 12 10 28 10 15 0 36 7 46 15 11 8 30 15 42 15 13 0 26 5 29 10 3 6 19 10 36
10 16 0 29 3 29 8 0 4 29 16 65 27 36 10 65 23 65 27 0 4 11 8 25 8 14 0 25 5
25 10 0 6 9 10 20 10 22 0 93 31 98 43 2 4 17 7 33 7 16 0 29 4 29 8 0 4 23
16 50 27 28 11 50 23 50 27 0 4 11 8 25 8 14 0 25 5 25 10 0 6 8 10 18 10 10
0 27 7 38 15 10 8 27 15 36 15 9 0 18 3 20 8 2 4 31 21 65 37 35 17 63 33 63
38 0 4 9 7 19 7 11 0 21 3 23 8 2 4 21 16 43 27 22 11 42 22 45 25 3 3 24 14
48 24 23 11 42 23 42 28 0 4 7 8 15 8 8 0 15 5 15 10 0 6 6 10 14 10 18 0 76
32 76 43 0 4 7 7 15 7 8 0 15 4 15 8 0 4 25 21 55 37 30 17 55 33 55 38 0 4 5
7 11 7 6 0 17 6 24 13 33 29 45 37 55 37 5 0 10 3 10 8 0 4 16 16 35 26 19 11
35 23 35 28 0 4 5 8 11 8 6 0 17 6 24 12 30 27 44 38 50 38 5 0 44 32 71 57 7
7 15 13 19 13 3 0 17 11 31 25 14 14 28 25 32 25 4 0 19 10 34 23 15 13 39 32
54 43 14 10 48 40 75 66 26 27 51 48 54 48 6 0 49 39 145 132 32 32 62 58 65
58 8 0 35 27 35 35 0 8 27 35 35 35 8 0 35 27 35 35 0 3 26 33 58 65 93 96
132 139 132 145 0 3 21 28 48 54 26 27 56 61 66 75 11 15 30 39 43 54 13 15
23 30 23 34 0 4 11 18 25 32 14 14 25 28 25 30 0 6 32 45 58 72 6 7 12 16 12
20 0 4 11 17 25 30 14 13 25 30 25 39 0 8 4 15 8 15 5 0 17 16 28 35 10 19 22
35 26 35 5 0 8 5 8 11 0 6 6 17 13 24 29 33 37 45 37 55 0 5 3 10 8 10 4 0 20
25 37 55 16 30 33 55 37 55 4 0 8 7 8 15 0 8 3 15 8 15 10 0 42 58 42 76 0 8
5 14 10 14 6 0 10 7 10 15 0 8 4 15 8 15 5 0 17 19 28 43 10 23 21 44 24 47 3
3 14 23 25 45 11 22 23 42 28 43 4 2 7 10 7 18 0 8 5 14 10 14 6 0 10 6 10 12
0 16 53 122 63 126 4 2 7 11 7 20 0 10 7 26 15 36 8 11 15 28 15 38 0 10 5 18
10 18 6 0 10 11 10 25 0 14 4 25 8 25 4 0 16 23 27 50 11 28 23 50 27 50 4 0
8 13 8 29 0 16 3 31 8 33 11 5 42 76 42 98 0 11 5 20 10 20 6 0 10 11 10 25 0
14 4 25 8 25 4 0 17 29 27 65 11 36 23 65 28 65 4 0 7 13 7 29 0 17 5 33 10
36 6 3 10 16 10 29 0 12 7 31 15 42 8 10 15 31 15 47 0 15 5 27 10 27 6 0 10
18 10 40 0 22 4 40 8 40 8 0 27 68 39 138 3 17 9 32 13 32 4 0 10 21 13 48 2
26 12 74 22 107 9 33 19 84 22 113 3 28 9 52 13 52 4 0 11 24 14 53 3 28 12
95 21 147 10 52 19 130 22 173 2 42 8 77 13 77 13 0 22 251 22 630 0 379 -9
630 -22 630 -5 0 -11 35 -13 78 -3 42 -12 120 -22 172 -9 52 -18 119 -21 148
-3 28 -10 52 -14 52 -4 0 -10 24 -13 53 -3 28 -13 79 -22 112 -10 33 -20 81
-22 108 -3 26 -9 47 -13 47 -4 0 -10 15 -13 33 -12 69 -31 137 -39 137 -4 0
-8 18 -8 40 0 22 -4 40 -10 40 -5 0 -10 11 -10 24 0 13 -7 37 -15 52 -8 16
-15 37 -15 46 0 9 -4 20 -10 23 -5 3 -10 19 -10 36 0 16 -3 29 -7 29 -5 0 -17
29 -28 65 -10 36 -23 65 -27 65 -4 0 -8 11 -8 25 0 14 -4 25 -10 25 -5 0 -10
9 -10 20 0 22 -31 93 -42 98 -5 2 -8 17 -8 33 0 16 -4 29 -8 29 -4 0 -16 23
-27 50 -11 28 -23 50 -27 50 -4 0 -8 11 -8 25 0 14 -4 25 -10 25 -5 0 -10 8
-10 18 0 10 -7 27 -15 38 -8 10 -15 27 -15 36 0 9 -3 18 -7 20 -10 4 -63 110
-63 126 0 6 -4 12 -10 12 -5 0 -10 6 -10 14 0 8 -3 16 -7 18 -5 2 -17 21 -28
43 -11 22 -22 42 -25 45 -3 3 -14 24 -24 48 -11 23 -23 42 -28 42 -4 0 -8 7
-8 15 0 8 -4 15 -10 15 -5 0 -10 6 -10 14 0 18 -32 76 -42 76 -5 0 -8 7 -8 15
0 8 -4 15 -8 15 -4 0 -21 25 -37 55 -17 30 -33 55 -37 55 -5 0 -8 5 -8 11 0 6
-6 17 -12 24 -30 33 -38 45 -38 55 0 5 -4 10 -10 10 -5 0 -10 6 -10 13 0 7
-11 24 -25 39 -14 15 -25 32 -25 38 0 6 -11 21 -25 34 -14 13 -25 28 -25 35 0
6 -3 11 -7 11 -5 0 -19 17 -33 37 -14 20 -35 47 -47 59 -13 13 -23 27 -23 31
0 4 -13 22 -28 39 -15 17 -36 44 -47 59 -11 15 -41 49 -67 76 -27 26 -48 51
-48 54 0 7 -23 33 -117 130 -40 41 -73 77 -73 80 0 8 -27 35 -35 35 -8 0 -35
27 -35 35 0 8 -27 35 -35 35 -3 0 -39 33 -80 73 -97 94 -123 117 -130 117 -3
0 -28 21 -54 48 -27 26 -61 56 -76 67 -15 11 -42 32 -59 47 -17 15 -34 28 -38
28 -7 0 -37 25 -89 73 -10 9 -23 17 -29 17 -5 0 -10 5 -10 10 0 6 -5 10 -11
10 -7 0 -22 11 -35 25 -13 14 -28 25 -34 25 -6 0 -23 11 -38 25 -15 14 -32 25
-39 25 -7 0 -13 5 -13 10 0 6 -5 10 -10 10 -10 0 -22 8 -55 38 -7 6 -18 12
-24 12 -6 0 -11 3 -11 8 0 4 -25 20 -55 37 -30 16 -55 33 -55 37 0 4 -7 8 -15
8 -8 0 -15 3 -15 8 0 10 -58 42 -76 42 -8 0 -14 5 -14 10 0 6 -7 10 -15 10 -8
0 -15 4 -15 9 0 5 -20 17 -45 28 -25 10 -45 21 -45 26 0 4 -6 7 -14 7 -7 0
-19 7 -26 15 -7 8 -21 15 -31 15 -11 0 -19 5 -19 10 0 6 -7 10 -15 10 -8 0
-15 5 -15 10 0 6 -6 10 -12 10 -16 0 -122 53 -126 63 -2 4 -11 7 -20 7 -9 0
-26 7 -36 15 -11 8 -28 15 -38 15 -10 0 -18 5 -18 10 0 6 -11 10 -25 10 -14 0
-25 4 -25 8 0 4 -22 16 -50 27 -27 11 -50 23 -50 27 0 4 -11 8 -25 8 -14 0
-25 3 -25 8 0 8 -59 30 -102 39 -16 3 -28 9 -28 14 0 5 -11 9 -25 9 -14 0 -25
4 -25 8 0 4 -29 17 -65 27 -36 11 -65 23 -65 28 0 4 -13 7 -29 7 -17 0 -33 5
-36 10 -3 6 -14 10 -23 10 -9 0 -30 7 -46 15 -15 8 -39 15 -52 15 -13 0 -24 5
-24 10 0 6 -18 10 -40 10 -22 0 -40 4 -40 8 0 8 -68 27 -137 39 -18 3 -33 9
-33 13 0 4 -21 10 -47 13 -27 2 -75 12 -108 22 -33 9 -84 19 -112 22 -29 3
-53 9 -53 13 0 4 -24 10 -52 13 -29 3 -91 13 -138 22 -47 8 -124 18 -172 22
-49 3 -88 9 -88 14 0 4 -55 10 -122 13 -214 10 -852 15 -883 6z m705 -560 c0
-6 44 -10 112 -10 61 0 125 -4 142 -9 30 -9 159 -28 264 -38 28 -3 52 -9 52
-13 0 -5 26 -10 58 -13 31 -3 86 -12 122 -22 36 -9 86 -19 113 -22 26 -3 47
-9 47 -14 0 -5 14 -9 30 -9 17 0 38 -4 48 -9 26 -15 118 -41 141 -41 12 0 21
-4 21 -10 0 -5 15 -10 34 -10 19 0 36 -3 38 -7 4 -10 100 -43 122 -43 9 0 16
-4 16 -10 0 -5 11 -10 24 -10 13 0 39 -8 58 -17 61 -31 68 -33 88 -33 11 0 20
-4 20 -10 0 -5 7 -10 15 -10 8 0 38 -11 67 -25 28 -14 58 -25 65 -25 7 0 13
-4 13 -10 0 -5 11 -10 24 -10 13 0 29 -7 36 -15 7 -8 21 -15 31 -15 11 0 19
-4 19 -10 0 -5 11 -10 25 -10 14 0 25 -4 25 -9 0 -5 11 -12 25 -15 14 -4 25
-11 25 -16 0 -6 9 -10 20 -10 11 0 20 -4 20 -10 0 -5 11 -10 25 -10 14 0 25
-4 25 -9 0 -5 11 -12 25 -15 14 -4 25 -11 25 -16 0 -6 9 -10 19 -10 11 0 21
-3 23 -7 2 -5 28 -21 58 -37 30 -16 57 -32 60 -35 3 -3 23 -15 44 -26 68 -35
76 -40 76 -47 0 -5 5 -8 10 -8 10 0 22 -8 55 -37 7 -7 18 -13 24 -13 6 0 11
-4 11 -10 0 -5 9 -10 20 -10 11 0 20 -4 20 -8 0 -5 16 -17 35 -28 19 -10 35
-22 35 -26 0 -5 5 -8 10 -8 10 0 22 -8 55 -37 7 -7 16 -13 20 -13 3 0 17 -11
31 -25 14 -14 28 -25 32 -25 4 0 23 -14 42 -30 19 -16 38 -30 42 -30 4 0 18
-11 32 -25 14 -14 28 -25 31 -25 4 0 12 -6 19 -12 8 -7 37 -33 66 -58 28 -25
76 -67 105 -95 30 -27 75 -68 101 -90 60 -51 168 -159 219 -219 22 -26 63 -71
90 -101 28 -29 70 -77 95 -105 25 -29 51 -58 58 -66 6 -7 12 -15 12 -19 0 -3
11 -17 25 -31 14 -14 25 -28 25 -32 0 -4 14 -23 30 -42 16 -19 30 -38 30 -42
0 -4 11 -18 25 -32 14 -14 25 -28 25 -31 0 -6 11 -20 38 -50 6 -7 12 -18 12
-24 0 -6 3 -11 8 -11 4 0 16 -16 26 -35 11 -19 23 -35 28 -35 4 0 8 -9 8 -20
0 -11 5 -20 10 -20 6 0 10 -5 10 -10 0 -10 8 -22 38 -55 6 -7 12 -18 12 -24 0
-6 3 -11 8 -11 7 0 12 -8 47 -76 11 -21 23 -41 26 -44 3 -3 19 -30 35 -60 16
-30 32 -56 37 -58 4 -2 7 -12 7 -23 0 -10 4 -19 8 -19 9 0 42 -70 42 -88 0 -7
5 -12 10 -12 6 0 10 -9 10 -20 0 -11 4 -20 10 -20 5 0 12 -11 16 -25 3 -14 10
-25 15 -25 5 0 9 -11 9 -25 0 -14 5 -25 10 -25 6 0 10 -8 10 -19 0 -10 7 -24
15 -31 8 -7 15 -23 15 -36 0 -13 5 -24 10 -24 6 0 10 -6 10 -13 0 -7 11 -37
25 -65 14 -29 25 -59 25 -67 0 -8 5 -15 10 -15 6 0 10 -9 10 -20 0 -20 2 -27
33 -88 9 -19 17 -45 17 -58 0 -13 5 -24 10 -24 6 0 10 -7 10 -16 0 -22 33
-118 43 -122 4 -2 7 -19 7 -38 0 -19 5 -34 10 -34 6 0 10 -9 10 -21 0 -23 26
-115 41 -141 5 -10 9 -31 9 -48 0 -16 4 -30 9 -30 5 0 11 -21 14 -47 3 -27 13
-77 22 -113 10 -36 19 -91 22 -122 3 -32 8 -58 13 -58 5 0 11 -26 14 -57 9
-104 27 -227 37 -259 5 -17 9 -81 9 -142 0 -68 4 -112 10 -112 6 0 10 -117 10
-330 0 -213 -4 -330 -10 -330 -6 0 -10 -44 -10 -112 0 -61 -4 -125 -9 -142
-10 -32 -28 -155 -37 -258 -3 -32 -9 -58 -14 -58 -5 0 -10 -26 -13 -58 -3 -31
-12 -86 -22 -122 -9 -36 -19 -86 -22 -112 -3 -27 -9 -48 -14 -48 -5 0 -9 -15
-9 -34 0 -19 -4 -37 -9 -40 -5 -4 -12 -24 -16 -46 -4 -22 -11 -42 -16 -46 -5
-3 -9 -21 -9 -40 0 -19 -4 -34 -10 -34 -5 0 -10 -15 -10 -34 0 -19 -3 -36 -7
-38 -10 -4 -43 -100 -43 -122 0 -9 -4 -16 -10 -16 -5 0 -10 -9 -10 -20 0 -17
-18 -66 -41 -112 -5 -10 -9 -27 -9 -38 0 -11 -4 -20 -10 -20 -5 0 -10 -7 -10
-15 0 -8 -11 -38 -25 -67 -14 -28 -25 -58 -25 -65 0 -7 -4 -13 -10 -13 -5 0
-10 -9 -10 -21 0 -11 -7 -27 -15 -35 -8 -9 -15 -24 -15 -35 0 -10 -4 -19 -10
-19 -5 0 -10 -11 -10 -25 0 -14 -4 -25 -9 -25 -5 0 -12 -11 -15 -25 -4 -14
-11 -25 -16 -25 -6 0 -10 -9 -10 -20 0 -11 -4 -20 -10 -20 -5 0 -10 -5 -10
-12 0 -18 -33 -88 -42 -88 -4 0 -8 -9 -8 -20 0 -11 -4 -20 -10 -20 -5 0 -10
-7 -10 -15 0 -8 -4 -15 -9 -15 -5 0 -12 -11 -15 -25 -4 -14 -11 -25 -16 -25
-6 0 -10 -9 -10 -20 0 -11 -4 -20 -10 -20 -5 0 -10 -7 -10 -15 0 -8 -4 -15
-10 -15 -5 0 -10 -8 -10 -19 0 -10 -7 -24 -15 -31 -8 -7 -15 -19 -15 -26 0 -8
-4 -14 -10 -14 -5 0 -10 -5 -10 -10 0 -10 -8 -22 -37 -55 -7 -7 -13 -18 -13
-24 0 -6 -4 -11 -10 -11 -5 0 -10 -9 -10 -20 0 -11 -4 -20 -8 -20 -5 0 -17
-16 -28 -35 -10 -19 -22 -35 -26 -35 -5 0 -8 -5 -8 -10 0 -10 -8 -22 -37 -55
-7 -7 -13 -16 -13 -20 0 -3 -11 -17 -25 -31 -14 -14 -25 -28 -25 -32 0 -4 -14
-23 -30 -42 -16 -19 -30 -38 -30 -42 0 -4 -11 -18 -25 -32 -14 -14 -25 -28
-25 -30 0 -7 -35 -49 -82 -97 -21 -21 -38 -41 -38 -44 0 -3 -21 -28 -47 -55
-27 -27 -68 -72 -93 -100 -57 -67 -143 -153 -210 -210 -28 -25 -73 -66 -100
-92 -27 -27 -52 -48 -55 -48 -3 0 -23 -17 -44 -37 -48 -48 -90 -83 -97 -83 -2
0 -16 -11 -30 -25 -14 -14 -28 -25 -32 -25 -4 0 -23 -14 -42 -30 -19 -16 -38
-30 -42 -30 -4 0 -18 -11 -32 -25 -14 -14 -28 -25 -31 -25 -6 0 -20 -11 -50
-38 -7 -6 -18 -12 -24 -12 -6 0 -11 -3 -11 -8 0 -4 -16 -16 -35 -26 -19 -11
-35 -23 -35 -28 0 -4 -9 -8 -20 -8 -11 0 -20 -4 -20 -10 0 -5 -5 -10 -10 -10
-10 0 -22 -8 -55 -37 -7 -7 -18 -13 -24 -13 -6 0 -11 -4 -11 -10 0 -5 -6 -10
-14 -10 -7 0 -19 -7 -26 -15 -7 -8 -21 -15 -31 -15 -11 0 -19 -4 -19 -10 0 -5
-7 -10 -15 -10 -8 0 -15 -4 -15 -10 0 -5 -9 -10 -20 -10 -11 0 -20 -4 -20 -10
0 -5 -11 -12 -25 -16 -14 -3 -25 -10 -25 -15 0 -5 -7 -9 -15 -9 -8 0 -15 -4
-15 -10 0 -5 -9 -10 -20 -10 -11 0 -20 -4 -20 -8 0 -9 -70 -42 -88 -42 -7 0
-12 -4 -12 -10 0 -5 -9 -10 -20 -10 -11 0 -20 -4 -20 -10 0 -5 -11 -12 -25
-16 -14 -3 -25 -10 -25 -15 0 -5 -11 -9 -25 -9 -14 0 -25 -4 -25 -10 0 -5 -9
-10 -19 -10 -11 0 -26 -7 -35 -15 -8 -8 -24 -15 -35 -15 -12 0 -21 -4 -21 -10
0 -5 -6 -10 -13 -10 -7 0 -37 -11 -65 -25 -29 -14 -59 -25 -67 -25 -8 0 -15
-4 -15 -10 0 -5 -9 -10 -20 -10 -11 0 -28 -4 -38 -9 -46 -23 -95 -41 -112 -41
-11 0 -20 -4 -20 -10 0 -5 -7 -10 -16 -10 -22 0 -118 -33 -122 -42 -2 -5 -19
-8 -38 -8 -19 0 -34 -4 -34 -10 0 -5 -15 -10 -34 -10 -19 0 -37 -4 -40 -9 -4
-5 -24 -12 -46 -16 -22 -4 -42 -11 -46 -16 -3 -5 -21 -9 -40 -9 -19 0 -34 -4
-34 -9 0 -5 -21 -11 -47 -14 -27 -3 -77 -13 -113 -22 -36 -10 -91 -19 -122
-22 -32 -3 -58 -8 -58 -13 0 -5 -26 -11 -57 -14 -104 -9 -227 -27 -259 -37
-17 -5 -81 -9 -142 -9 -68 0 -112 -4 -112 -10 0 -6 -117 -10 -330 -10 -213 0
-330 4 -330 10 0 6 -44 10 -112 10 -61 0 -125 4 -142 9 -32 10 -155 28 -258
37 -32 3 -58 9 -58 14 0 5 -26 10 -57 13 -32 3 -87 12 -123 22 -36 9 -86 19
-112 22 -27 3 -48 9 -48 14 0 5 -14 9 -30 9 -17 0 -38 4 -48 9 -26 15 -118 41
-141 41 -12 0 -21 5 -21 10 0 6 -15 10 -34 10 -19 0 -36 3 -38 8 -4 9 -100 42
-122 42 -9 0 -16 5 -16 10 0 6 -11 10 -24 10 -13 0 -39 8 -58 17 -61 31 -68
33 -88 33 -11 0 -20 5 -20 10 0 6 -7 10 -15 10 -8 0 -38 11 -67 25 -28 14 -58
25 -65 25 -7 0 -13 5 -13 10 0 6 -11 10 -24 10 -13 0 -29 7 -36 15 -7 8 -21
15 -31 15 -11 0 -19 5 -19 10 0 6 -11 10 -25 10 -14 0 -25 4 -25 9 0 5 -11 12
-25 15 -14 4 -25 11 -25 16 0 6 -9 10 -20 10 -11 0 -20 5 -20 10 0 6 -5 10
-12 10 -18 0 -88 33 -88 42 0 4 -9 8 -19 8 -11 0 -21 3 -23 8 -1 4 -28 20 -58
36 -30 16 -57 32 -60 35 -3 3 -23 15 -44 26 -68 35 -76 40 -76 47 0 5 -5 8
-10 8 -10 0 -22 8 -55 38 -7 6 -18 12 -24 12 -6 0 -11 5 -11 10 0 6 -9 10 -20
10 -11 0 -20 4 -20 8 0 5 -16 17 -35 28 -19 10 -35 22 -35 26 0 5 -5 8 -10 8
-10 0 -22 8 -55 37 -7 7 -16 13 -20 13 -3 0 -17 11 -31 25 -14 14 -28 25 -32
25 -4 0 -23 14 -42 30 -19 16 -38 30 -42 30 -4 0 -18 11 -32 25 -14 14 -28 25
-31 25 -4 0 -12 6 -19 12 -8 7 -37 33 -66 58 -28 25 -76 68 -105 95 -30 28
-75 68 -101 90 -53 46 -214 204 -214 211 0 5 -9 15 -93 106 -28 31 -72 80 -97
108 -25 29 -51 58 -57 66 -7 7 -13 15 -13 19 0 3 -11 17 -25 31 -14 14 -25 28
-25 32 0 4 -14 23 -30 42 -16 19 -30 38 -30 42 0 4 -11 18 -25 32 -14 14 -25
28 -25 31 0 6 -11 20 -37 50 -7 7 -13 18 -13 24 0 6 -3 11 -8 11 -4 0 -16 16
-26 35 -11 19 -23 35 -28 35 -4 0 -8 9 -8 20 0 11 -4 20 -10 20 -5 0 -10 5
-10 10 0 10 -8 22 -38 55 -6 7 -12 18 -12 24 0 6 -3 11 -8 11 -7 0 -12 8 -47
76 -11 21 -23 41 -26 44 -3 3 -19 30 -35 60 -16 30 -32 57 -37 58 -4 2 -7 12
-7 23 0 10 -4 19 -10 19 -5 0 -12 11 -16 25 -3 14 -10 25 -15 25 -5 0 -9 11
-9 25 0 14 -4 25 -10 25 -5 0 -10 9 -10 20 0 11 -4 20 -10 20 -5 0 -12 11 -16
25 -3 14 -10 25 -15 25 -5 0 -9 11 -9 25 0 14 -4 25 -10 25 -5 0 -10 8 -10 19
0 10 -7 24 -15 31 -8 7 -15 23 -15 36 0 13 -4 24 -10 24 -5 0 -10 6 -10 13 0
7 -11 37 -25 65 -14 29 -25 59 -25 67 0 8 -4 15 -10 15 -5 0 -10 9 -10 20 0
20 -2 27 -33 88 -9 19 -17 45 -17 58 0 13 -4 24 -10 24 -5 0 -10 7 -10 16 0
22 -33 118 -42 122 -5 2 -8 19 -8 38 0 19 -4 34 -10 34 -5 0 -10 9 -10 21 0
23 -26 115 -41 141 -5 10 -9 31 -9 48 0 16 -4 30 -9 30 -5 0 -11 21 -14 48 -3
26 -13 76 -22 112 -10 36 -19 91 -22 122 -3 32 -8 58 -13 58 -4 0 -10 24 -13
53 -10 104 -29 233 -38 263 -5 17 -9 81 -9 142 0 68 -4 112 -10 112 -6 0 -10
117 -10 330 0 213 4 330 10 330 6 0 10 44 10 112 0 61 4 125 9 142 10 33 29
171 38 269 3 31 8 57 13 57 4 0 10 24 13 53 3 28 12 81 22 117 9 36 19 86 22
113 3 26 9 47 14 47 5 0 9 14 9 30 0 17 4 38 9 48 15 26 41 118 41 141 0 12 5
21 10 21 6 0 10 15 10 34 0 19 3 36 8 38 9 4 42 100 42 122 0 9 5 16 10 16 6
0 10 11 10 24 0 13 8 39 17 58 31 61 33 68 33 88 0 11 5 20 10 20 6 0 10 7 10
15 0 8 11 38 25 67 14 28 25 58 25 65 0 7 5 13 10 13 6 0 10 11 10 24 0 13 7
29 15 36 8 7 15 21 15 31 0 10 4 21 10 24 5 3 10 15 10 26 0 10 3 19 8 19 4 0
15 20 25 45 11 25 23 45 28 45 5 0 9 11 9 25 0 14 4 25 9 25 5 0 12 11 15 25
4 14 11 25 16 25 6 0 10 9 10 19 0 11 3 21 8 23 4 2 20 28 36 58 16 30 32 57
35 60 3 3 15 23 26 44 35 68 40 76 47 76 5 0 8 5 8 10 0 10 8 22 38 55 6 7 12
18 12 24 0 6 5 11 10 11 6 0 10 9 10 20 0 11 4 20 8 20 5 0 17 16 28 35 10 19
22 35 26 35 5 0 8 5 8 10 0 10 8 22 37 55 7 7 13 18 13 24 0 6 4 11 9 11 5 0
12 8 15 18 3 10 24 38 46 62 22 24 40 48 40 52 0 4 11 18 25 32 14 14 25 28
25 31 0 4 6 12 12 19 7 8 33 37 58 66 25 28 62 70 83 91 20 22 37 46 37 54 0
8 5 15 10 15 11 0 60 44 60 54 0 5 201 206 206 206 10 0 54 49 54 60 0 5 7 10
15 10 8 0 32 17 54 38 21 20 63 57 91 82 29 25 58 51 66 58 7 6 15 12 19 12 3
0 17 10 30 23 35 33 53 47 60 47 3 0 19 13 36 30 17 16 40 32 50 35 11 4 19
11 19 16 0 5 5 9 10 9 10 0 22 8 55 38 7 6 18 12 24 12 6 0 11 3 11 8 0 4 16
16 35 26 19 11 35 23 35 28 0 4 9 8 20 8 11 0 20 5 20 10 0 6 5 10 10 10 10 0
22 8 55 38 7 6 18 12 24 12 6 0 11 3 11 8 0 7 8 12 76 47 21 11 41 23 44 26 3
3 30 19 60 35 30 16 57 32 58 37 2 4 12 7 23 7 10 0 19 4 19 10 0 5 11 12 25
16 14 3 25 10 25 15 0 5 9 9 21 9 11 0 27 7 36 15 8 8 19 13 24 10 5 -4 9 -2
9 4 0 6 11 13 25 17 14 3 25 10 25 15 0 5 9 9 19 9 11 0 23 5 26 10 3 6 14 10
24 10 10 0 24 7 31 15 7 8 23 15 36 15 13 0 24 5 24 10 0 6 6 10 13 10 7 0 37
11 65 25 29 14 59 25 67 25 8 0 15 5 15 10 0 6 9 10 20 10 20 0 27 2 88 33 19
9 45 17 58 17 13 0 24 5 24 10 0 6 7 10 16 10 22 0 118 33 122 43 2 4 19 7 38
7 19 0 34 5 34 10 0 6 9 10 21 10 23 0 115 26 141 41 10 5 31 9 48 9 16 0 30
4 30 9 0 5 21 11 48 14 26 3 76 13 112 22 36 10 89 19 118 22 28 3 52 9 52 13
0 5 26 10 58 13 97 9 235 28 268 38 17 5 81 9 142 9 68 0 112 4 112 10 0 6
117 10 330 10 213 0 330 -4 330 -10z"/>
<path d="M4710 8730 c0 -5 -16 -10 -35 -10 -19 0 -35 -4 -35 -10 0 -5 -6 -10
-14 -10 -18 0 -76 -32 -76 -42 0 -5 -5 -8 -10 -8 -13 0 -90 -75 -90 -87 0 -5
-9 -15 -20 -23 -11 -8 -20 -21 -20 -30 0 -8 -7 -24 -15 -34 -8 -11 -15 -28
-15 -38 0 -10 -4 -18 -10 -18 -5 0 -10 -11 -10 -25 0 -14 -4 -33 -9 -43 -35
-63 -36 -107 -39 -2332 -3 -2032 -2 -2191 14 -2275 10 -49 21 -94 26 -100 4
-5 8 -22 8 -37 0 -15 5 -28 10 -28 6 0 10 -8 10 -18 0 -10 7 -27 15 -38 8 -10
15 -26 15 -34 0 -9 9 -22 20 -30 11 -8 20 -18 20 -23 0 -12 77 -87 90 -87 5 0
10 -3 10 -7 0 -11 58 -43 76 -43 8 0 14 -4 14 -10 0 -5 16 -10 35 -10 19 0 35
-4 35 -10 0 -6 38 -10 95 -10 57 0 95 4 95 10 0 6 18 10 40 10 22 0 48 4 58 9
9 5 38 18 64 28 27 10 48 21 48 26 0 4 11 7 25 7 14 0 25 3 25 8 0 4 17 16 38
27 20 11 39 22 42 25 3 3 22 14 43 25 20 11 37 23 37 27 0 5 6 8 14 8 8 0 16
3 18 8 4 10 86 62 98 62 5 0 10 4 10 8 0 5 16 17 35 28 19 10 35 22 35 26 0 5
7 8 15 8 8 0 15 5 15 10 0 6 7 10 15 10 9 0 28 11 43 25 15 14 32 25 39 25 7
0 13 5 13 10 0 6 6 10 13 10 7 0 24 11 39 25 15 14 34 25 43 25 8 0 15 5 15
10 0 6 5 10 11 10 6 0 17 6 24 12 26 24 40 33 78 53 20 11 37 23 37 27 0 5 7
8 15 8 8 0 15 5 15 10 0 6 7 10 15 10 9 0 28 11 43 25 15 14 32 25 39 25 7 0
13 5 13 10 0 6 5 10 11 10 6 0 17 6 24 12 33 30 45 38 55 38 5 0 10 5 10 10 0
6 7 10 15 10 9 0 28 11 43 25 15 14 32 25 39 25 7 0 13 5 13 10 0 6 5 10 11
10 6 0 25 11 43 25 18 14 38 25 44 25 7 0 12 5 12 10 0 6 7 10 15 10 8 0 15 4
15 9 0 5 8 12 18 15 10 4 27 14 38 24 27 23 56 41 77 48 9 4 17 10 17 15 0 5
7 9 15 9 9 0 28 11 43 25 15 14 32 25 39 25 7 0 13 5 13 10 0 6 5 10 11 10 6
0 17 6 24 13 26 22 40 32 70 47 17 8 39 23 49 32 11 10 28 20 38 24 10 3 18
10 18 15 0 5 5 9 11 9 6 0 17 7 26 15 8 8 18 13 23 10 4 -3 10 2 14 10 3 8 12
15 21 15 8 0 15 5 15 10 0 6 7 10 15 10 8 0 15 5 15 10 0 6 6 10 13 10 7 0 23
10 37 23 14 12 39 29 55 37 17 8 35 20 42 25 29 24 40 31 76 50 20 11 37 23
37 27 0 5 7 8 15 8 8 0 15 5 15 10 0 6 5 10 12 10 6 0 26 11 44 25 18 14 37
25 43 25 6 0 11 5 11 10 0 6 5 10 11 10 6 0 17 6 24 13 33 29 45 37 55 37 5 0
10 5 10 10 0 6 7 10 16 10 8 0 22 6 29 13 33 29 45 37 55 37 5 0 10 5 10 10 0
6 6 10 13 10 7 0 24 11 39 25 15 14 34 25 43 25 8 0 15 5 15 10 0 6 7 10 15
10 8 0 15 4 15 9 0 5 8 12 18 15 10 4 27 14 38 24 27 23 56 41 77 48 9 4 17
10 17 15 0 5 7 9 15 9 9 0 28 11 43 25 15 14 32 25 39 25 7 0 13 5 13 10 0 6
5 10 11 10 6 0 17 6 24 13 33 29 45 37 55 37 5 0 10 5 10 10 0 6 9 10 20 10
11 0 20 4 20 8 0 5 16 17 35 28 19 10 35 22 35 26 0 5 5 8 10 8 11 0 25 10 65
48 13 12 27 22 30 22 4 0 30 24 58 54 85 89 97 103 97 115 0 6 5 11 10 11 6 0
10 7 10 15 0 8 4 15 9 15 5 0 12 11 15 25 4 14 11 25 16 25 6 0 10 11 10 25 0
14 4 25 9 25 5 0 11 12 14 28 3 15 11 47 17 72 14 55 8 266 -9 283 -6 6 -11
24 -11 39 0 15 -4 28 -10 28 -5 0 -10 8 -10 18 0 9 -11 34 -25 54 -14 20 -25
42 -25 47 0 6 -4 11 -10 11 -5 0 -10 5 -10 10 0 25 -175 200 -200 200 -6 0
-10 5 -10 10 0 6 -16 18 -35 27 -19 9 -35 20 -35 25 0 4 -5 8 -11 8 -6 0 -17
6 -24 13 -33 29 -45 37 -55 37 -5 0 -10 5 -10 10 0 6 -6 10 -13 10 -7 0 -24
11 -39 25 -15 14 -34 25 -43 25 -8 0 -15 5 -15 10 0 6 -5 10 -11 10 -6 0 -17
6 -24 13 -33 29 -45 37 -55 37 -5 0 -10 5 -10 10 0 6 -6 10 -14 10 -7 0 -19 7
-26 15 -7 8 -21 15 -31 15 -11 0 -19 4 -19 8 0 5 -16 17 -35 28 -19 10 -35 22
-35 26 0 5 -7 8 -15 8 -8 0 -15 3 -15 8 0 4 -16 16 -35 26 -19 11 -35 23 -35
28 0 4 -9 8 -20 8 -11 0 -20 5 -20 10 0 6 -5 10 -11 10 -6 0 -17 6 -24 13 -33
29 -45 37 -55 37 -5 0 -10 4 -10 8 0 4 -25 21 -55 37 -30 17 -55 33 -55 38 0
4 -5 7 -11 7 -6 0 -17 6 -24 13 -33 29 -45 37 -55 37 -5 0 -10 5 -10 10 0 6
-4 10 -10 10 -9 0 -72 39 -97 60 -7 5 -17 10 -23 10 -5 0 -10 4 -10 9 0 5 -8
12 -18 15 -10 4 -27 14 -38 24 -26 22 -51 38 -94 60 -19 9 -45 27 -58 40 -13
12 -29 22 -37 22 -8 0 -15 5 -15 10 0 6 -7 10 -15 10 -9 0 -28 11 -43 25 -15
14 -32 25 -39 25 -7 0 -13 5 -13 10 0 6 -5 10 -11 10 -6 0 -17 6 -24 13 -33
29 -45 37 -55 37 -5 0 -10 5 -10 10 0 6 -5 10 -10 10 -12 0 -94 52 -98 63 -2
4 -8 7 -14 7 -5 0 -16 6 -23 13 -33 29 -45 37 -55 37 -5 0 -10 5 -10 10 0 6
-5 10 -10 10 -12 0 -94 52 -98 63 -2 4 -10 7 -18 7 -8 0 -14 3 -14 8 0 4 -16
16 -35 26 -19 11 -35 23 -35 28 0 4 -9 8 -20 8 -11 0 -20 4 -20 8 0 5 -17 17
-37 28 -21 10 -48 29 -61 42 -12 12 -28 22 -35 22 -7 0 -19 9 -27 20 -8 11
-20 20 -26 20 -17 0 -74 33 -74 43 0 4 -5 7 -11 7 -6 0 -17 6 -24 13 -33 29
-45 37 -55 37 -5 0 -10 5 -10 10 0 6 -9 10 -20 10 -11 0 -20 4 -20 8 0 5 -16
17 -35 28 -19 10 -35 22 -35 26 0 5 -7 8 -15 8 -8 0 -15 3 -15 8 0 4 -16 16
-35 26 -19 11 -35 23 -35 28 0 4 -9 8 -20 8 -11 0 -20 4 -20 8 0 5 -16 17 -35
28 -19 10 -35 22 -35 26 0 5 -7 8 -15 8 -8 0 -15 3 -15 8 0 4 -16 16 -35 26
-19 11 -35 23 -35 28 0 4 -9 8 -20 8 -11 0 -20 5 -20 10 0 6 -5 10 -11 10 -6
0 -17 6 -24 13 -33 29 -45 37 -55 37 -5 0 -10 4 -10 9 0 5 -11 12 -25 15 -14
4 -25 11 -25 16 0 6 -7 10 -15 10 -8 0 -15 5 -15 10 0 6 -9 10 -20 10 -11 0
-20 3 -20 8 0 10 -58 42 -76 42 -8 0 -14 5 -14 10 0 6 -8 10 -17 10 -10 0 -27
7 -37 15 -11 8 -30 15 -43 15 -13 0 -23 5 -23 10 0 6 -20 10 -45 10 -25 0 -45
5 -45 10 0 6 -38 10 -95 10 -57 0 -95 -4 -95 -10z m418 -750 c2 -6 13 -10 24
-10 10 0 26 -6 33 -12 33 -30 45 -38 55 -38 5 0 10 -4 10 -10 0 -5 5 -10 11
-10 6 0 25 -11 43 -25 18 -14 38 -25 44 -25 7 0 12 -4 12 -10 0 -5 7 -10 15
-10 8 0 15 -3 15 -8 0 -4 16 -16 35 -26 19 -11 35 -23 35 -28 0 -4 5 -8 11 -8
6 0 25 -11 43 -25 18 -14 38 -25 44 -25 7 0 12 -3 12 -8 0 -7 30 -25 63 -38 9
-3 17 -10 17 -15 0 -5 5 -9 10 -9 6 0 18 -6 26 -12 8 -7 20 -17 27 -23 7 -5
26 -17 42 -25 17 -8 41 -25 55 -37 14 -13 30 -23 37 -23 7 0 13 -4 13 -10 0
-5 5 -10 11 -10 6 0 17 -6 24 -12 33 -30 45 -38 55 -38 5 0 10 -4 10 -10 0 -5
9 -10 20 -10 11 0 20 -4 20 -8 0 -5 16 -17 35 -28 19 -10 35 -22 35 -26 0 -5
5 -8 11 -8 6 0 25 -11 43 -25 18 -14 38 -25 44 -25 7 0 12 -4 12 -10 0 -5 7
-10 15 -10 8 0 15 -3 15 -8 0 -4 16 -16 35 -26 19 -11 35 -23 35 -28 0 -4 4
-8 10 -8 9 0 72 -39 97 -60 7 -5 17 -10 23 -10 5 0 10 -3 10 -8 0 -4 17 -16
38 -27 35 -19 46 -26 75 -50 7 -5 26 -17 42 -25 17 -8 39 -23 49 -32 11 -10
28 -20 38 -24 10 -3 18 -10 18 -15 0 -5 5 -9 11 -9 6 0 17 -7 26 -15 8 -8 19
-13 24 -10 5 4 9 0 9 -8 0 -7 16 -19 35 -27 19 -8 35 -17 35 -20 0 -4 16 -15
35 -26 19 -10 35 -22 35 -26 0 -5 7 -8 15 -8 8 0 15 -4 15 -10 0 -5 7 -10 15
-10 15 0 25 -6 60 -37 7 -7 18 -13 24 -13 6 0 11 -4 11 -10 0 -5 6 -10 13 -10
7 0 23 -10 37 -22 14 -13 39 -30 55 -38 30 -15 44 -25 70 -47 7 -7 18 -13 24
-13 6 0 11 -4 11 -9 0 -5 8 -12 18 -15 27 -10 68 -36 57 -36 -5 0 8 -9 30 -20
47 -23 71 -38 99 -62 11 -10 28 -20 38 -24 10 -3 18 -10 18 -15 0 -5 7 -9 15
-9 8 0 15 -4 15 -10 0 -5 7 -10 15 -10 9 0 28 -11 43 -25 15 -14 32 -25 39
-25 7 0 13 -4 13 -10 0 -5 5 -10 10 -10 10 0 22 -8 55 -37 7 -7 18 -13 24 -13
6 0 11 -4 11 -10 0 -5 7 -10 15 -10 9 0 28 -11 43 -25 15 -14 32 -25 39 -25 7
0 13 -4 13 -10 0 -5 5 -10 10 -10 14 0 54 -40 85 -86 21 -32 25 -48 25 -115 0
-46 -4 -79 -10 -79 -5 0 -10 -6 -10 -14 0 -20 -86 -106 -105 -106 -8 0 -15 -4
-15 -8 0 -5 -16 -17 -35 -28 -19 -10 -35 -22 -35 -26 0 -5 -5 -8 -11 -8 -6 0
-25 -11 -43 -25 -18 -14 -38 -25 -44 -25 -7 0 -12 -4 -12 -10 0 -5 -7 -10 -15
-10 -8 0 -15 -3 -15 -8 0 -4 -17 -16 -37 -27 -38 -20 -52 -29 -78 -52 -7 -7
-18 -13 -24 -13 -6 0 -11 -4 -11 -10 0 -5 -9 -10 -20 -10 -11 0 -20 -4 -20 -8
0 -5 -16 -17 -35 -28 -19 -10 -35 -22 -35 -26 0 -5 -6 -8 -14 -8 -8 0 -16 -3
-18 -7 -4 -11 -86 -63 -98 -63 -5 0 -10 -4 -10 -10 0 -5 -5 -10 -10 -10 -10 0
-22 -8 -55 -37 -7 -7 -18 -13 -24 -13 -6 0 -11 -4 -11 -10 0 -5 -7 -10 -15
-10 -15 0 -25 -6 -60 -37 -7 -7 -18 -13 -24 -13 -6 0 -11 -4 -11 -10 0 -5 -6
-10 -13 -10 -7 0 -23 -10 -37 -23 -14 -12 -41 -31 -60 -40 -45 -23 -69 -38
-94 -59 -11 -10 -28 -20 -38 -24 -10 -3 -18 -10 -18 -15 0 -5 -7 -9 -15 -9 -8
0 -15 -4 -15 -10 0 -5 -7 -10 -15 -10 -9 0 -28 -11 -43 -25 -15 -14 -32 -25
-39 -25 -7 0 -13 -4 -13 -10 0 -5 -5 -10 -10 -10 -10 0 -22 -8 -55 -37 -7 -7
-18 -13 -24 -13 -6 0 -11 -4 -11 -10 0 -5 -9 -10 -20 -10 -11 0 -20 -3 -20 -8
0 -4 -16 -16 -35 -26 -19 -11 -35 -23 -35 -28 0 -4 -5 -8 -11 -8 -6 0 -25 -11
-43 -25 -18 -14 -38 -25 -44 -25 -7 0 -12 -4 -12 -10 0 -5 -7 -10 -15 -10 -8
0 -15 -3 -15 -8 0 -4 -17 -16 -37 -27 -36 -19 -47 -26 -76 -50 -7 -5 -25 -17
-42 -25 -16 -8 -39 -23 -49 -32 -11 -10 -28 -20 -38 -24 -10 -3 -18 -10 -18
-15 0 -5 -7 -9 -15 -9 -8 0 -15 -3 -15 -8 0 -4 -16 -16 -35 -26 -19 -11 -35
-23 -35 -28 0 -4 -9 -8 -20 -8 -11 0 -20 -4 -20 -9 0 -5 -8 -12 -18 -15 -10
-4 -27 -14 -38 -24 -10 -9 -32 -24 -49 -32 -30 -15 -44 -25 -70 -47 -7 -7 -18
-13 -24 -13 -6 0 -11 -4 -11 -10 0 -5 -6 -10 -13 -10 -7 0 -23 -10 -37 -22
-14 -13 -41 -31 -60 -40 -43 -22 -68 -38 -94 -60 -11 -10 -28 -20 -38 -24 -10
-3 -18 -10 -18 -15 0 -5 -7 -9 -15 -9 -8 0 -15 -4 -15 -10 0 -5 -5 -10 -12
-10 -6 0 -26 -11 -44 -25 -18 -14 -37 -25 -43 -25 -6 0 -11 -4 -11 -10 0 -5
-5 -10 -10 -10 -10 0 -22 -8 -55 -37 -7 -7 -23 -13 -33 -13 -11 0 -22 -5 -24
-12 -3 -8 -30 -12 -80 -13 -73 0 -76 1 -109 35 -19 19 -40 52 -47 72 -17 50
-20 3754 -3 3771 6 6 11 17 11 24 0 8 5 19 10 26 6 7 18 22 28 34 10 11 29 23
42 26 37 8 144 -2 148 -13z"/>
</g>
</svg>
