<?xml version="1.0" standalone="no"?>
<!DOCTYPE svg PUBLIC "-//W3C//DTD SVG 20010904//EN"
 "http://www.w3.org/TR/2001/REC-SVG-20010904/DTD/svg10.dtd">
<svg version="1.0" xmlns="http://www.w3.org/2000/svg"
 width="1200.000000pt" height="1200.000000pt" viewBox="0 0 1200.000000 1200.000000"
 preserveAspectRatio="xMidYMid meet">

<g transform="translate(0.000000,1200.000000) scale(0.100000,-0.100000)"
fill="#ffffff" stroke="none">
<path d="M5505 8434 c-68 -37 -105 -92 -105 -154 0 -17 -6 -32 -12 -34 -7 -2
-112 -9 -233 -16 -121 -7 -278 -18 -350 -25 -225 -23 -558 -64 -605 -75 -25
-6 -108 -19 -185 -30 -77 -11 -149 -23 -160 -27 -11 -3 -85 -19 -165 -34 -233
-44 -410 -86 -725 -172 -216 -59 -764 -248 -800 -276 -5 -5 -35 -18 -65 -29
-30 -11 -77 -32 -105 -45 -27 -13 -84 -40 -125 -60 -149 -72 -446 -241 -505
-289 -5 -4 -39 -29 -75 -55 -335 -243 -565 -521 -658 -798 -102 -302 -52 -636
137 -910 23 -33 52 -76 65 -95 51 -77 239 -262 362 -358 16 -12 43 -33 59 -46
36 -28 239 -163 286 -191 190 -110 444 -238 549 -277 30 -11 60 -24 65 -29 16
-12 263 -106 385 -146 41 -13 84 -29 95 -34 20 -9 74 -26 305 -93 134 -40 290
-80 410 -107 47 -10 135 -30 195 -44 150 -33 350 -71 470 -90 55 -8 136 -21
180 -29 44 -8 148 -22 230 -30 83 -9 173 -21 200 -26 87 -16 544 -51 945 -71
277 -14 1020 -5 1280 15 107 9 290 23 405 32 116 9 213 18 216 20 4 2 87 13
185 24 164 19 478 66 599 90 28 6 118 24 200 40 463 92 880 208 1260 351 199
74 239 90 250 98 5 5 36 18 68 30 105 38 398 186 535 270 58 35 260 169 295
195 147 110 366 320 423 406 13 19 42 62 65 95 122 177 189 384 189 587 0 211
-52 377 -193 608 -25 42 -164 208 -221 265 -65 64 -256 223 -326 271 -36 24
-84 57 -108 74 -23 16 -59 39 -80 51 -20 11 -66 37 -102 58 -36 21 -139 75
-230 120 -91 45 -172 86 -180 90 -17 9 -148 64 -250 106 -78 32 -178 68 -280
100 -41 14 -84 29 -95 35 -11 5 -51 19 -90 30 -142 40 -252 72 -315 91 -114
34 -385 98 -570 135 -257 52 -327 65 -430 79 -63 9 -131 20 -150 25 -20 5
-135 21 -255 35 -121 14 -254 30 -295 35 -41 5 -183 16 -315 25 -132 8 -307
20 -389 26 -82 6 -325 12 -540 13 -378 2 -391 3 -394 22 -2 10 -10 38 -18 60
-28 78 -141 125 -209 88z m1140 -214 c143 -6 307 -14 365 -20 326 -29 654 -61
660 -65 4 -2 96 -16 206 -30 109 -14 206 -28 214 -31 8 -3 89 -19 180 -34 394
-69 779 -165 1185 -294 142 -46 387 -136 451 -167 22 -10 44 -19 50 -19 5 0
31 -11 59 -24 27 -13 82 -39 120 -56 86 -40 231 -113 306 -154 30 -17 75 -42
100 -55 24 -13 58 -33 74 -45 30 -21 36 -25 113 -74 24 -15 52 -34 62 -42 10
-8 39 -31 65 -50 327 -246 531 -511 617 -798 31 -100 33 -117 33 -262 0 -141
-3 -164 -29 -254 -65 -224 -195 -428 -397 -621 -77 -74 -201 -178 -255 -215
-20 -13 -106 -71 -188 -126 -44 -29 -83 -52 -171 -101 -141 -79 -198 -108
-305 -157 -58 -26 -123 -56 -146 -67 -22 -10 -43 -19 -47 -19 -3 0 -30 -11
-59 -24 -29 -13 -80 -34 -113 -46 -33 -12 -96 -36 -140 -52 -44 -16 -115 -41
-158 -54 -43 -13 -82 -26 -86 -28 -9 -6 -235 -73 -346 -103 -347 -93 -733
-174 -1065 -223 -74 -11 -166 -25 -205 -31 -38 -6 -98 -15 -132 -20 -56 -8
-326 -35 -588 -59 -469 -43 -1562 -43 -2030 0 -211 19 -522 50 -560 55 -22 3
-83 13 -135 21 -52 8 -156 23 -230 34 -228 34 -582 102 -760 146 -235 57 -599
158 -628 173 -9 5 -48 18 -87 30 -104 30 -369 127 -442 161 -24 11 -46 20 -50
20 -4 0 -25 9 -47 19 -23 11 -88 41 -146 67 -128 58 -382 196 -476 258 -82 55
-168 113 -188 126 -12 8 -55 42 -96 75 -286 229 -490 506 -555 755 -32 123
-37 165 -32 295 4 107 10 148 36 232 86 284 292 549 616 793 26 19 55 42 65
50 10 8 40 29 66 45 26 17 66 42 88 57 97 65 321 184 491 263 44 20 98 45 120
56 22 10 65 28 95 40 30 11 89 34 130 51 343 135 796 268 1190 349 52 11 131
28 175 39 44 10 130 26 190 35 61 9 137 23 170 30 33 8 105 19 160 25 55 6
154 20 220 30 66 10 179 24 250 30 72 6 193 17 270 25 77 8 212 19 299 24
l160 10 33 -38 c40 -48 104 -75 152 -66 45 8 98 45 122 84 l19 31 327 0 c181
0 445 -5 588 -10z"/>
<path d="M5740 7900 c-270 -9 -875 -52 -920 -65 -8 -3 -105 -16 -215 -30 -110
-14 -208 -28 -218 -31 -9 -3 -92 -18 -185 -34 -231 -41 -539 -111 -742 -170
-137 -39 -305 -92 -325 -101 -11 -5 -51 -20 -90 -33 -112 -40 -208 -75 -240
-91 -16 -7 -97 -44 -180 -81 -82 -38 -166 -78 -186 -90 -20 -13 -52 -30 -70
-39 -19 -8 -57 -30 -86 -48 -29 -17 -72 -44 -96 -58 -114 -67 -346 -256 -431
-350 -47 -52 -106 -128 -153 -196 -79 -115 -143 -306 -150 -448 -9 -175 46
-358 162 -540 124 -193 401 -436 670 -589 162 -92 429 -226 450 -226 2 0 28
-11 57 -24 29 -13 74 -31 100 -40 26 -9 56 -20 65 -26 29 -17 262 -94 458
-151 261 -76 487 -129 764 -179 90 -16 171 -32 180 -35 9 -2 102 -16 206 -30
105 -14 219 -29 255 -34 36 -6 218 -22 405 -38 313 -25 380 -27 840 -27 455 0
530 3 830 27 182 15 362 32 400 37 350 46 456 61 495 70 25 6 106 21 180 35
252 46 486 101 735 174 189 55 412 129 470 155 17 8 48 19 70 26 21 7 60 24
86 36 26 13 50 24 53 24 15 0 237 108 347 168 264 146 400 243 568 406 208
201 321 400 363 636 30 167 -35 433 -145 593 -53 77 -110 149 -164 207 -89 97
-306 272 -420 339 -24 14 -67 40 -96 58 -58 36 -420 219 -452 229 -11 4 -38
15 -60 25 -46 21 -158 64 -228 87 l-48 16 7 41 c25 131 -40 218 -161 219 -71
0 -117 -30 -149 -98 l-25 -53 -68 19 c-185 55 -513 130 -733 168 -91 16 -172
31 -180 34 -8 3 -109 17 -224 31 -115 14 -212 28 -216 30 -3 2 -93 11 -200 19
-584 46 -957 59 -1360 46z m850 -40 c135 -6 288 -15 340 -20 311 -30 586 -61
660 -74 47 -9 141 -25 210 -36 211 -34 617 -118 674 -139 14 -6 57 -18 94 -26
133 -30 156 -43 180 -96 30 -65 78 -94 154 -94 43 0 64 6 87 23 31 22 66 29
75 13 3 -4 27 -14 53 -21 27 -8 95 -34 153 -58 58 -24 130 -54 160 -66 47 -20
263 -129 365 -185 249 -138 548 -392 659 -561 27 -41 57 -87 67 -102 28 -41
86 -196 98 -262 14 -77 14 -246 0 -320 -12 -65 -59 -188 -97 -256 -56 -99
-166 -237 -252 -317 -25 -24 -54 -51 -65 -62 -20 -19 -163 -128 -219 -166
-123 -86 -417 -248 -546 -301 -30 -12 -93 -39 -140 -59 -332 -143 -843 -289
-1320 -379 -357 -67 -496 -86 -990 -136 -413 -42 -1478 -42 -1865 1 -49 5
-173 18 -275 29 -426 44 -936 140 -1330 249 -263 74 -543 168 -700 236 -47 20
-105 45 -130 55 -56 23 -295 145 -375 192 -157 92 -132 76 -287 191 -99 74
-110 83 -198 169 -170 167 -297 382 -329 554 -15 79 -13 266 3 339 15 69 68
204 95 243 10 15 40 60 67 101 75 112 269 304 389 385 22 14 58 40 80 56 161
120 634 355 855 425 30 10 60 21 65 25 6 4 71 26 145 49 74 24 169 53 210 66
41 13 109 31 150 41 41 9 82 20 91 25 40 21 575 129 759 154 63 8 135 20 160
25 39 9 307 39 625 71 271 26 977 36 1395 19z"/>
<path d="M5610 7579 c-414 -23 -497 -31 -900 -90 -394 -57 -848 -169 -1170
-288 -47 -18 -114 -42 -150 -55 -36 -13 -78 -31 -95 -39 -16 -9 -70 -34 -120
-57 -49 -22 -97 -45 -105 -50 -8 -5 -42 -23 -75 -40 -33 -16 -76 -40 -95 -52
-69 -42 -145 -92 -150 -98 -3 -3 -18 -14 -35 -24 -70 -45 -278 -236 -314 -289
-124 -185 -163 -269 -181 -396 -17 -113 -4 -258 30 -336 39 -92 88 -180 129
-235 115 -153 285 -300 480 -415 18 -11 48 -30 66 -42 18 -12 51 -29 72 -39
21 -9 45 -22 53 -29 8 -6 58 -30 110 -54 52 -23 113 -51 135 -62 42 -20 203
-82 245 -94 14 -4 39 -13 55 -20 48 -21 285 -93 345 -106 30 -6 62 -15 71 -20
36 -19 475 -109 674 -139 72 -11 175 -26 229 -35 214 -34 845 -75 1147 -75
181 0 513 16 829 40 193 15 546 65 775 110 124 24 155 25 155 5 0 -18 45 -20
86 -5 19 8 37 7 62 -1 46 -15 99 -13 143 5 34 14 56 39 86 96 9 17 29 29 70
42 184 55 231 70 258 82 17 8 41 17 55 21 31 8 194 71 235 90 17 7 62 28 100
45 113 52 249 121 265 135 8 7 38 24 66 38 27 14 56 33 63 41 8 9 17 16 22 16
11 0 100 65 183 135 176 147 272 274 356 470 34 78 47 223 30 336 -18 126 -60
217 -180 394 -37 54 -246 247 -315 291 -16 10 -32 21 -35 24 -5 6 -83 57 -150
98 -19 12 -61 35 -93 51 -31 16 -63 33 -70 38 -6 5 -32 18 -57 28 -25 10 -52
24 -60 31 -8 6 -33 17 -55 24 -22 7 -50 19 -62 26 -33 21 -288 114 -478 174
-271 87 -750 190 -1039 225 -71 9 -172 22 -225 30 -301 44 -1057 67 -1471 44z
m925 -29 c526 -27 1096 -111 1535 -224 190 -50 312 -84 335 -95 11 -6 54 -20
95 -32 41 -11 80 -24 85 -29 6 -4 37 -17 70 -28 153 -53 427 -183 572 -271
191 -116 394 -291 489 -421 102 -140 164 -309 164 -450 0 -137 -62 -315 -151
-435 -124 -169 -335 -348 -554 -472 -57 -33 -342 -173 -351 -173 -4 0 -26 -9
-48 -19 -129 -62 -547 -198 -568 -185 -15 9 -8 33 22 81 29 45 29 49 13 61
-11 8 -28 10 -48 5 -35 -9 -71 -8 -136 2 -60 9 -106 -6 -148 -49 -35 -36 -52
-90 -44 -140 9 -56 -12 -64 -257 -106 -63 -11 -167 -29 -230 -40 -102 -18
-291 -40 -620 -71 -166 -16 -672 -25 -997 -17 -300 7 -345 10 -703 47 -212 22
-224 24 -350 47 -47 8 -137 24 -200 34 -170 29 -500 104 -625 143 -180 55
-351 111 -360 117 -5 4 -41 18 -80 30 -38 12 -75 27 -81 31 -6 5 -28 15 -50
23 -75 26 -366 175 -450 230 -16 10 -54 35 -84 55 -81 52 -241 190 -301 257
-122 139 -173 228 -213 372 -58 206 -11 418 138 622 96 132 297 304 489 421
88 54 347 184 437 219 467 185 820 279 1410 374 185 30 617 75 820 85 214 11
769 12 975 1z m1659 -2747 c-14 -10 -19 -10 -25 -1 -5 8 0 17 14 25 28 15 38
-4 11 -24z m-284 -212 c0 -5 -14 -14 -32 -20 -31 -11 -31 -11 -13 9 19 21 45
27 45 11z"/>
<path d="M5575 7149 c-199 -13 -676 -75 -725 -95 -8 -3 -73 -19 -145 -34 -170
-37 -287 -69 -410 -112 -217 -76 -275 -101 -437 -183 l-87 -45 -28 26 c-79 73
-183 83 -266 26 -94 -65 -126 -176 -78 -269 26 -53 26 -59 -2 -87 -35 -35 -83
-114 -116 -192 -85 -200 -29 -417 155 -610 98 -101 171 -157 344 -262 62 -38
237 -120 350 -166 242 -96 627 -196 904 -236 76 -11 141 -22 145 -25 4 -2 84
-11 177 -19 520 -48 888 -48 1408 0 93 8 173 17 176 19 4 3 85 16 179 30 94
14 182 30 194 34 12 5 61 16 107 25 190 38 530 148 700 227 91 43 191 93 220
111 173 105 246 161 344 262 187 195 241 412 152 617 -44 101 -82 154 -180
254 -79 80 -111 106 -205 170 -242 162 -615 311 -991 396 -47 10 -125 28 -175
39 -182 41 -510 83 -765 100 -190 12 -754 11 -945 -1z m965 -29 c588 -54 963
-128 1375 -274 113 -40 308 -126 355 -157 8 -5 29 -16 45 -24 17 -8 57 -33 90
-55 33 -22 78 -52 100 -66 69 -46 219 -205 262 -279 100 -171 100 -373 0 -536
-79 -128 -214 -256 -364 -347 -142 -84 -155 -91 -378 -192 -22 -10 -105 -39
-185 -65 -80 -26 -154 -51 -165 -56 -34 -14 -343 -85 -490 -113 -77 -14 -221
-35 -320 -46 -99 -12 -223 -26 -275 -33 -58 -6 -267 -11 -530 -11 -263 0 -472
5 -530 11 -52 7 -176 21 -275 33 -179 20 -465 69 -560 96 -27 7 -93 24 -145
38 -172 43 -375 109 -475 155 -22 10 -76 35 -120 55 -44 20 -87 41 -95 46 -8
5 -40 24 -70 40 -174 97 -333 231 -404 340 -16 25 -37 56 -46 70 -58 89 -78
254 -45 381 17 66 73 168 124 229 27 32 31 34 48 19 45 -39 131 -49 204 -24
102 36 150 135 126 260 -7 39 -7 40 35 65 24 14 48 27 53 29 6 2 30 13 55 26
172 84 449 181 642 225 47 11 98 24 112 30 14 5 67 16 118 25 51 9 136 24 188
35 52 10 163 26 245 34 83 9 187 21 233 27 202 27 809 32 1062 9z"/>
<path d="M6030 6863 c-28 -11 -49 -35 -55 -63 -7 -32 -19 -36 -126 -39 -82 -2
-458 -45 -529 -60 -242 -51 -361 -84 -522 -148 -232 -90 -414 -215 -502 -342
-37 -53 -76 -162 -76 -211 0 -49 39 -158 76 -211 171 -247 655 -451 1234 -520
278 -33 507 -43 713 -30 510 30 884 111 1197 258 164 77 314 191 384 292 37
53 76 162 76 211 0 49 -39 158 -76 211 -138 199 -478 371 -928 469 -144 32
-497 77 -625 81 -107 3 -119 7 -126 39 -3 15 -14 35 -24 44 -20 18 -68 28 -91
19z m-27 -150 c25 -24 90 -23 116 1 19 18 33 19 179 12 818 -35 1507 -330
1560 -669 33 -211 -120 -393 -466 -552 -72 -34 -78 -31 -39 12 14 16 20 36 19
68 0 40 3 47 29 61 17 8 67 52 113 97 96 95 126 156 126 257 0 100 -30 162
-125 256 -227 225 -643 354 -1297 405 -352 27 -915 -53 -1228 -174 -179 -69
-287 -134 -385 -231 -95 -94 -125 -156 -125 -256 0 -100 30 -162 125 -256 100
-98 189 -152 375 -226 165 -66 471 -136 690 -158 347 -35 478 -35 790 0 211
24 509 91 652 146 l47 19 30 -29 c23 -22 39 -29 72 -29 l43 0 -65 -23 c-140
-52 -324 -95 -619 -144 -234 -39 -885 -39 -1120 0 -394 66 -609 125 -813 225
-316 154 -457 330 -425 532 40 258 456 501 1043 609 257 47 374 60 579 63 82
1 103 -2 119 -16z m182 -84 c5 -5 19 -9 30 -9 39 0 129 -37 191 -78 189 -126
299 -326 298 -542 0 -79 -6 -112 -32 -195 -48 -151 -45 -148 -247 -181 -145
-24 -199 -28 -365 -28 -166 0 -220 4 -365 28 -202 33 -198 30 -247 181 -27 84
-32 115 -32 195 0 216 109 416 295 540 65 43 154 80 194 80 11 0 25 4 31 9 18
19 229 19 249 0z m-430 -26 c-16 -9 -44 -27 -62 -40 -20 -16 -54 -28 -95 -33
-199 -29 -500 -123 -608 -190 -8 -5 -37 -22 -65 -38 -90 -53 -195 -175 -195
-227 0 -8 -10 -19 -22 -24 -13 -5 -36 -23 -52 -39 -43 -46 -41 -102 6 -149 27
-27 44 -35 75 -36 33 -2 48 -10 89 -51 27 -26 72 -61 99 -78 28 -16 57 -33 65
-38 113 -69 354 -145 589 -185 56 -10 94 -22 115 -38 17 -13 45 -31 61 -40
l30 -16 -55 5 c-97 9 -315 36 -321 40 -3 2 -50 13 -105 24 -204 44 -478 150
-578 224 -77 57 -163 148 -190 202 -23 46 -29 70 -29 124 0 91 35 161 124 243
83 77 109 96 184 135 253 130 601 218 955 240 8 1 2 -6 -15 -15z m820 -9 c71
-9 133 -18 137 -20 3 -2 50 -13 104 -24 202 -42 470 -146 578 -224 75 -55 163
-148 190 -202 40 -79 41 -169 1 -246 -30 -59 -109 -146 -169 -187 -21 -14 -45
-30 -52 -36 -9 -6 -21 -2 -38 14 -18 17 -37 24 -67 24 -56 0 -110 -52 -112
-108 -1 -28 -6 -39 -22 -45 -63 -26 -225 -72 -309 -90 -54 -11 -101 -22 -104
-24 -7 -4 -220 -31 -322 -40 l-55 -5 30 16 c17 9 44 27 61 40 21 16 59 28 115
38 233 40 483 118 589 185 8 5 38 23 66 40 124 73 204 191 204 300 0 109 -82
230 -205 302 -27 16 -57 33 -65 38 -114 69 -409 161 -608 190 -41 6 -75 17
-95 33 -18 13 -45 31 -62 40 l-30 16 55 -5 c30 -3 113 -12 185 -20z m-996
-121 c-67 -86 -94 -113 -123 -119 -46 -10 -174 -63 -233 -96 -65 -37 -160
-129 -179 -174 -18 -44 -18 -122 1 -167 36 -88 163 -177 348 -247 94 -36 104
-42 149 -97 28 -33 43 -60 37 -62 -34 -11 -381 75 -423 105 -11 8 -26 14 -34
14 -14 0 -60 22 -140 66 -60 34 -172 129 -172 146 0 7 10 22 21 34 33 35 30
97 -7 136 -16 16 -39 34 -51 39 -26 10 -23 24 18 85 58 85 195 185 315 229 27
10 54 22 59 26 30 22 327 96 394 98 30 1 32 -1 20 -16z m1057 6 c68 -12 304
-77 319 -88 6 -4 33 -16 60 -26 28 -10 72 -31 98 -47 26 -15 52 -28 57 -28 19
0 167 -157 185 -195 11 -24 18 -63 18 -95 0 -32 -7 -71 -18 -95 -18 -38 -166
-195 -185 -195 -5 0 -31 -13 -57 -28 -26 -16 -70 -37 -98 -47 -27 -10 -54 -22
-60 -26 -16 -12 -255 -77 -327 -89 -102 -18 -106 -14 -50 53 45 55 55 61 149
97 123 46 215 97 270 148 34 30 49 37 81 37 25 0 48 7 61 19 44 40 33 118 -20
143 -17 8 -30 26 -38 52 -14 49 -109 147 -183 189 -60 33 -187 86 -234 96 -29
7 -42 19 -117 113 -18 23 -18 23 5 23 14 0 51 -5 84 -11z m-1176 -164 c0 -3
-11 -31 -24 -63 -62 -148 -62 -357 1 -506 13 -32 23 -60 21 -62 -8 -7 -125 34
-183 64 -139 72 -220 165 -220 253 0 87 80 179 220 251 74 38 185 76 185 63z
m1261 -11 c71 -21 160 -67 227 -116 77 -57 142 -168 99 -168 -39 0 -67 -74
-44 -119 14 -28 13 -31 -12 -53 -45 -41 -94 -74 -156 -105 -60 -31 -165 -66
-172 -59 -2 2 7 30 20 62 63 149 63 358 1 506 -24 56 -27 68 -21 68 2 0 28 -7
58 -16z m-1094 -698 c191 -48 674 -47 871 1 35 8 66 13 69 10 8 -9 -49 -75
-88 -103 -28 -19 -57 -27 -130 -35 -120 -14 -609 -6 -663 11 -24 7 -57 31 -87
62 -70 73 -68 77 28 54z m433 -161 c140 0 275 4 300 8 l45 8 -35 -24 c-75 -51
-131 -62 -315 -61 -148 0 -177 3 -228 22 -32 12 -70 31 -84 42 l-27 21 45 -8
c24 -4 159 -8 299 -8z"/>
<path d="M5046 241 c-4 -7 -5 -15 -2 -18 9 -9 19 4 14 18 -4 11 -6 11 -12 0z"/>
<path d="M5155 230 c12 -40 26 -59 19 -25 -4 17 -11 35 -16 40 -7 7 -8 1 -3
-15z"/>
<path d="M5221 234 c0 -11 3 -14 6 -6 3 7 2 16 -1 19 -3 4 -6 -2 -5 -13z"/>
<path d="M5266 225 c7 -33 24 -58 24 -35 -1 8 -7 26 -15 40 l-15 25 6 -30z"/>
<path d="M5291 234 c0 -11 3 -14 6 -6 3 7 2 16 -1 19 -3 4 -6 -2 -5 -13z"/>
<path d="M5513 243 c9 -2 23 -2 30 0 6 3 -1 5 -18 5 -16 0 -22 -2 -12 -5z"/>
<path d="M5572 213 c1 -37 1 -37 5 -5 2 17 9 32 14 32 6 0 8 -9 4 -19 -3 -11
-1 -22 4 -26 6 -3 8 0 5 8 -3 8 0 18 5 22 16 9 3 25 -20 25 -16 0 -19 -6 -17
-37z"/>
<path d="M5670 235 c7 -9 15 -13 17 -11 7 7 -7 26 -19 26 -6 0 -6 -6 2 -15z"/>
<path d="M5730 240 c-18 -12 -2 -12 25 0 13 6 15 9 5 9 -8 0 -22 -4 -30 -9z"/>
<path d="M5818 243 c6 -2 18 -2 25 0 6 3 1 5 -13 5 -14 0 -19 -2 -12 -5z"/>
<path d="M5955 240 c-4 -6 -4 -14 -1 -17 3 -4 6 -1 6 5 0 7 9 12 20 12 15 0
20 -7 20 -25 0 -18 -5 -25 -19 -25 -11 0 -22 5 -24 10 -3 6 -4 5 -3 -2 2 -7
14 -13 27 -13 20 0 24 5 24 30 0 23 -5 31 -22 33 -11 2 -24 -2 -28 -8z"/>
<path d="M6042 213 c1 -37 1 -37 5 -5 2 17 9 32 14 32 6 0 8 -8 4 -19 -3 -11
1 -24 12 -32 16 -12 17 -12 6 2 -7 8 -10 25 -6 37 4 18 1 22 -16 22 -18 0 -21
-5 -19 -37z"/>
<path d="M6115 215 c0 -19 3 -35 8 -35 4 0 7 16 7 35 0 19 -3 35 -7 35 -5 0
-8 -16 -8 -35z"/>
<path d="M6170 236 c0 -9 5 -16 10 -16 6 0 10 4 10 9 0 6 -4 13 -10 16 -5 3
-10 -1 -10 -9z"/>
<path d="M6256 241 c-3 -4 6 -6 19 -3 14 2 25 6 25 8 0 8 -39 4 -44 -5z"/>
<path d="M6348 243 c7 -3 16 -2 19 1 4 3 -2 6 -13 5 -11 0 -14 -3 -6 -6z"/>
<path d="M6415 239 c-4 -6 -5 -12 -2 -15 2 -3 7 2 10 11 7 17 1 20 -8 4z"/>
<path d="M6486 241 c-3 -4 6 -6 19 -3 14 2 25 6 25 8 0 8 -39 4 -44 -5z"/>
<path d="M6568 243 c6 -2 18 -2 25 0 6 3 1 5 -13 5 -14 0 -19 -2 -12 -5z"/>
<path d="M6648 243 c6 -2 18 -2 25 0 6 3 1 5 -13 5 -14 0 -19 -2 -12 -5z"/>
<path d="M6766 241 c-4 -5 3 -7 14 -4 23 6 26 13 6 13 -8 0 -17 -4 -20 -9z"/>
<path d="M6834 236 c-11 -28 0 -51 25 -51 14 0 25 6 27 13 1 7 0 8 -3 2 -2 -5
-13 -10 -24 -10 -14 0 -19 7 -19 25 0 18 5 25 19 25 11 0 22 -5 24 -10 3 -6 4
-5 3 2 -4 19 -45 22 -52 4z"/>
<path d="M6910 213 c0 -43 5 -41 13 5 4 18 2 32 -3 32 -6 0 -10 -16 -10 -37z"/>
<path d="M6952 230 c-7 -11 -10 -20 -6 -20 7 0 34 27 34 34 0 13 -16 5 -28
-14z"/>
<path d="M5021 213 c-1 -12 4 -25 9 -28 12 -7 12 2 0 30 -8 19 -9 19 -9 -2z"/>
<path d="M5072 209 c-7 -12 -11 -24 -7 -27 7 -8 25 17 25 36 0 17 -3 15 -18
-9z"/>
<path d="M5648 207 c-3 -19 -2 -25 4 -19 6 6 8 18 6 28 -3 14 -5 12 -10 -9z"/>
<path d="M5801 214 c0 -11 3 -14 6 -6 3 7 2 16 -1 19 -3 4 -6 -2 -5 -13z"/>
<path d="M6430 210 c0 -11 4 -20 9 -20 5 0 7 9 4 20 -3 11 -7 20 -9 20 -2 0
-4 -9 -4 -20z"/>
<path d="M6560 221 c0 -5 9 -7 20 -4 11 3 20 7 20 9 0 2 -9 4 -20 4 -11 0 -20
-4 -20 -9z"/>
<path d="M5130 201 c0 -12 5 -21 10 -21 6 0 10 6 10 14 0 8 -4 18 -10 21 -5 3
-10 -3 -10 -14z"/>
<path d="M5235 207 c-4 -10 -5 -21 -1 -24 10 -10 18 4 13 24 -4 17 -4 17 -12
0z"/>
<path d="M6197 213 c-7 -11 10 -40 18 -31 4 4 3 14 -3 24 -5 9 -12 12 -15 7z"/>
<path d="M5400 201 c0 -5 -8 -12 -17 -14 -14 -4 -12 -5 5 -6 13 -1 22 5 22 14
0 8 -2 15 -5 15 -3 0 -5 -4 -5 -9z"/>
<path d="M6300 201 c0 -9 -9 -12 -25 -9 -13 3 -22 1 -19 -3 7 -13 42 -11 49 2
4 6 4 13 1 16 -3 4 -6 1 -6 -6z"/>
<path d="M6530 201 c0 -9 -9 -12 -25 -9 -13 3 -22 1 -19 -3 7 -13 42 -11 49 2
4 6 4 13 1 16 -3 4 -6 1 -6 -6z"/>
<path d="M6670 202 c0 -6 -8 -13 -17 -15 -16 -4 -16 -5 -1 -6 18 -1 34 16 24
26 -3 4 -6 1 -6 -5z"/>
<path d="M5450 189 c0 -5 9 -9 20 -9 11 0 20 2 20 4 0 2 -9 6 -20 9 -11 3 -20
1 -20 -4z"/>
<path d="M5738 188 c5 -5 16 -8 23 -6 8 3 3 7 -10 11 -17 4 -21 3 -13 -5z"/>
<path d="M5890 189 c0 -5 9 -9 20 -9 11 0 20 2 20 4 0 2 -9 6 -20 9 -11 3 -20
1 -20 -4z"/>
<path d="M6768 188 c5 -5 16 -8 23 -6 8 3 3 7 -10 11 -17 4 -21 3 -13 -5z"/>
<path d="M5818 183 c6 -2 18 -2 25 0 6 3 1 5 -13 5 -14 0 -19 -2 -12 -5z"/>
<path d="M6568 183 c6 -2 18 -2 25 0 6 3 1 5 -13 5 -14 0 -19 -2 -12 -5z"/>
</g>
</svg>
