<?xml version="1.0" standalone="no"?>
<!DOCTYPE svg PUBLIC "-//W3C//DTD SVG 20010904//EN"
 "http://www.w3.org/TR/2001/REC-SVG-20010904/DTD/svg10.dtd">
<svg version="1.0" xmlns="http://www.w3.org/2000/svg"
 width="400.000000pt" height="200.000000pt" viewBox="0 0 1200.000000 967.000000"
 preserveAspectRatio="xMidYMid meet">

<g transform="translate(0.000000,967.000000) scale(0.100000,-0.100000)"
fill="#ffffff" stroke="none">
<path d="M3415 9663 c-198 -31 -377 -119 -507 -246 l-56 -56 -134 26 c-174 34
-406 38 -480 10 -65 -25 -98 -66 -98 -123 0 -63 31 -116 117 -205 l74 -76 -11
-49 c-37 -163 98 -331 270 -337 l49 -2 10 -46 c20 -90 74 -221 123 -297 140
-214 346 -352 603 -403 74 -14 268 -14 344 1 182 36 345 120 457 238 l52 53
158 -26 c192 -33 361 -37 444 -12 147 44 156 161 24 308 -72 80 -214 193 -323
255 l-69 39 -6 92 c-18 244 -108 445 -268 599 -179 173 -369 252 -618 259 -69
2 -138 1 -155 -2z m365 -192 c273 -92 471 -337 511 -633 24 -176 -42 -404
-159 -548 l-20 -25 -74 19 c-280 72 -938 332 -1145 453 l-42 24 15 35 c20 48
20 134 -1 192 -22 61 -18 79 45 175 95 143 224 247 374 298 114 40 175 49 297
44 86 -3 125 -10 199 -34z m-1089 -394 c52 -27 104 -99 114 -156 9 -55 -10
-116 -52 -162 -49 -54 -87 -72 -153 -73 -73 -1 -125 26 -167 87 -62 92 -54
190 21 263 69 66 159 82 237 41z m230 -443 c267 -133 617 -275 915 -369 98
-31 186 -59 194 -62 35 -11 -135 -119 -252 -160 -100 -35 -289 -43 -404 -18
-275 59 -509 299 -567 580 -13 64 -13 85 -1 85 2 0 54 -25 115 -56z"/>
<path d="M10864 8861 c-63 -29 -115 -80 -146 -146 -83 -176 19 -367 217 -404
214 -40 393 192 305 397 -28 65 -102 134 -167 156 -63 22 -158 20 -209 -3z
m169 -62 c84 -23 147 -110 147 -204 0 -119 -86 -206 -204 -207 -61 0 -91 11
-135 47 -134 114 -86 312 89 366 36 11 60 10 103 -2z"/>
<path d="M8479 8395 c-150 -28 -344 -99 -564 -206 -125 -61 -437 -230 -461
-249 -7 -7 -31 -3 -69 10 -115 40 -214 54 -365 54 -164 0 -255 -13 -383 -56
-402 -134 -689 -420 -806 -803 -46 -153 -55 -216 -56 -397 l0 -167 -61 -63
c-235 -244 -454 -539 -572 -769 -67 -131 -95 -231 -95 -335 0 -131 73 -231
197 -269 63 -19 192 -19 291 0 228 43 596 203 950 411 l91 53 64 -20 c115 -36
202 -51 330 -56 477 -20 931 254 1145 692 101 207 128 322 129 557 1 191 -13
157 128 313 225 249 442 550 518 720 130 290 103 487 -80 568 -59 27 -223 32
-331 12z m-1268 -574 c231 -49 384 -128 542 -280 85 -82 201 -245 231 -325
l18 -48 -68 -70 c-230 -233 -613 -561 -977 -836 -188 -143 -526 -372 -547
-372 -43 0 -222 176 -298 293 -89 136 -131 242 -158 399 -23 131 -15 329 19
459 89 343 351 628 678 740 180 61 387 76 560 40z m854 -1235 c-50 -247 -173
-465 -350 -620 -200 -174 -440 -266 -694 -266 -103 0 -251 17 -251 29 0 4 15
15 33 25 56 33 382 268 512 370 235 185 443 362 635 539 l125 116 3 -56 c2
-31 -4 -93 -13 -137z"/>
<path d="M10305 8363 c-109 -57 -167 -186 -135 -302 15 -57 98 -142 156 -159
100 -29 205 -5 260 61 113 133 73 329 -81 398 -51 23 -158 25 -200 2z m191
-84 c41 -25 71 -73 80 -126 15 -95 -69 -183 -173 -183 -58 0 -104 26 -141 80
-33 48 -28 146 8 186 62 67 158 86 226 43z"/>
<path d="M365 7628 c-2 -7 -9 -51 -15 -98 -7 -47 -21 -112 -32 -145 -48 -146
-162 -285 -286 -349 -51 -27 -44 -57 23 -95 70 -40 160 -131 208 -213 45 -76
73 -162 90 -283 11 -83 14 -90 37 -93 31 -5 50 21 50 68 0 99 72 288 146 386
45 60 125 129 172 149 18 8 35 21 38 30 7 17 -21 55 -40 55 -23 0 -129 90
-168 141 -76 100 -148 289 -148 386 0 19 -5 43 -10 54 -12 21 -58 26 -65 7z
m73 -346 c39 -93 103 -181 176 -243 l54 -46 -54 -41 c-64 -50 -139 -154 -179
-250 -16 -40 -32 -72 -35 -72 -3 1 -24 40 -47 88 -45 95 -111 180 -185 239
l-47 37 42 35 c92 76 139 135 185 233 26 53 49 97 52 97 3 1 20 -34 38 -77z"/>
<path d="M4650 7551 c-146 -45 -241 -219 -200 -367 17 -60 98 -149 165 -181
108 -50 250 -22 326 65 136 155 97 366 -83 457 -57 28 -82 35 -127 34 -31 0
-67 -4 -81 -8z m202 -106 c118 -84 118 -267 0 -350 -84 -58 -223 -43 -280 30
-61 77 -68 190 -16 263 66 94 205 120 296 57z"/>
<path d="M2323 7338 c-5 -7 -24 -59 -42 -115 l-32 -103 -132 0 c-141 0 -173
-9 -165 -45 2 -12 43 -43 107 -82 57 -34 108 -66 113 -71 4 -4 -7 -57 -26
-116 -34 -107 -34 -108 -14 -128 23 -23 20 -24 146 69 l73 54 95 -71 c53 -38
100 -70 104 -70 11 0 40 29 40 39 0 4 -16 57 -35 117 -25 80 -31 110 -22 116
7 3 49 34 95 67 127 94 112 121 -66 121 l-108 0 -35 113 c-31 102 -37 112 -60
115 -14 2 -30 -3 -36 -10z m50 -222 c10 -30 23 -59 30 -64 7 -6 41 -12 75 -14
l63 -3 -50 -38 c-56 -41 -60 -53 -36 -129 8 -27 11 -48 8 -48 -3 0 -27 16 -53
35 -26 19 -53 35 -59 35 -7 0 -35 -18 -64 -39 -28 -22 -53 -39 -54 -37 -2 1 6
29 17 61 11 32 20 64 20 71 0 7 -28 30 -62 51 l-63 38 80 5 80 5 20 63 c11 34
22 62 25 62 4 0 14 -24 23 -54z"/>
<path d="M9483 6926 c-57 -19 -135 -70 -174 -114 -18 -20 -46 -66 -63 -102
-28 -58 -31 -74 -31 -160 0 -87 3 -101 33 -162 38 -78 106 -144 190 -185 51
-25 67 -28 162 -28 90 0 112 3 153 24 72 36 149 111 181 177 100 204 21 432
-183 527 -77 36 -196 46 -268 23z m172 -157 c62 -17 139 -100 154 -166 19 -78
-3 -146 -68 -206 -76 -72 -152 -85 -239 -41 -61 30 -98 74 -118 141 -35 116
27 223 155 269 45 16 66 17 116 3z"/>
<path d="M2605 5899 c-193 -26 -404 -105 -565 -214 -298 -201 -500 -514 -567
-878 -11 -62 -16 -141 -16 -242 2 -242 52 -434 164 -630 196 -342 549 -594
926 -660 112 -19 331 -19 450 0 375 61 711 289 914 623 106 174 170 370 191
587 41 439 -182 912 -557 1181 -87 62 -262 150 -364 183 -152 49 -414 72 -576
50z m457 -317 c241 -245 410 -433 585 -649 76 -96 103 -111 123 -73 8 15 7 26
-2 44 -37 71 -461 553 -641 729 -38 38 -67 70 -65 73 7 7 169 -51 236 -85 202
-102 389 -285 500 -491 139 -255 175 -550 103 -831 -23 -88 -60 -189 -69 -189
-4 0 -29 28 -57 63 -76 95 -215 253 -299 340 -78 82 -97 90 -123 50 -14 -21
-8 -28 110 -155 119 -126 257 -288 306 -357 l22 -31 -35 -58 c-20 -31 -48 -72
-63 -90 l-28 -33 -105 133 c-97 121 -148 182 -299 357 -129 149 -406 446 -418
449 -20 5 -43 -17 -43 -42 1 -13 46 -70 116 -146 238 -257 462 -517 619 -714
l78 -100 -69 -62 c-62 -57 -70 -62 -82 -46 -26 35 -119 148 -187 227 -209 243
-219 254 -247 255 -40 0 -49 -42 -16 -78 197 -219 388 -447 388 -465 0 -10
-123 -75 -192 -101 l-66 -25 -43 57 c-49 65 -83 106 -223 271 -188 222 -213
241 -237 187 -10 -22 -3 -33 82 -131 167 -192 329 -390 329 -404 0 -16 -163
-36 -285 -35 -343 4 -675 165 -896 436 -147 180 -234 411 -246 653 l-5 110 77
-75 c134 -131 415 -447 540 -608 22 -28 48 -54 59 -58 26 -9 50 18 43 48 -11
44 -332 417 -568 662 -74 76 -135 144 -137 151 -4 19 37 198 48 209 12 12 408
-383 520 -517 53 -64 70 -77 90 -75 20 2 26 9 28 33 2 26 -14 49 -130 175 -73
80 -209 220 -303 313 l-170 167 50 97 c28 53 55 98 62 100 14 5 231 -212 351
-350 46 -54 91 -101 98 -104 19 -7 44 15 44 40 0 29 -92 138 -277 327 l-162
166 79 79 79 78 58 -51 c87 -76 330 -324 428 -437 48 -55 93 -104 101 -108 14
-8 54 24 54 43 0 19 -208 248 -385 423 -96 95 -175 176 -175 179 0 7 118 82
150 95 23 10 32 3 138 -106 63 -64 144 -152 181 -196 93 -109 108 -122 129
-109 9 6 18 22 20 35 3 27 -89 138 -262 316 -65 68 -94 104 -85 108 66 24 135
45 149 45 37 0 389 -373 645 -685 79 -97 103 -120 124 -120 21 0 27 5 29 28 3
23 -12 48 -79 130 -143 175 -449 516 -559 622 l-41 40 33 7 c18 4 74 5 124 2
l92 -4 154 -158z"/>
<path d="M10898 5479 c-10 -5 -18 -15 -18 -21 0 -5 -14 -55 -31 -109 l-32 -99
-143 0 c-135 0 -143 -1 -149 -20 -9 -30 5 -43 122 -113 56 -34 103 -64 103
-67 0 -3 -15 -52 -34 -110 -35 -107 -35 -140 0 -140 15 0 115 64 167 107 16
13 32 23 35 23 4 0 48 -29 97 -65 95 -68 114 -75 136 -49 11 13 8 31 -19 112
-17 53 -32 105 -34 114 -2 11 38 47 125 112 70 53 127 103 127 110 0 22 -30
47 -49 42 -19 -6 -254 -46 -268 -46 -6 0 -25 46 -42 103 -28 89 -50 128 -70
127 -3 0 -14 -5 -23 -11z m48 -237 c10 -30 25 -57 34 -62 8 -4 46 -2 85 5 38
8 71 12 73 10 2 -2 -26 -25 -62 -52 -36 -26 -67 -53 -69 -58 -3 -6 4 -37 14
-70 10 -32 16 -61 14 -63 -2 -2 -25 12 -51 32 -26 20 -54 36 -62 36 -8 0 -36
-16 -62 -35 -26 -19 -50 -35 -53 -35 -3 0 4 30 16 66 l22 66 -21 16 c-12 10
-43 31 -70 47 l-49 30 85 5 85 5 20 62 c11 34 23 59 26 55 3 -4 15 -31 25 -60z"/>
<path d="M9403 5111 c-193 -132 -330 -231 -542 -390 -62 -47 -134 -102 -160
-121 -59 -45 -252 -196 -356 -279 -879 -707 -1418 -1304 -1531 -1699 -36 -126
-32 -256 9 -346 38 -81 136 -177 213 -206 225 -86 462 19 795 350 454 452 986
1270 1571 2417 121 239 147 296 139 312 -19 35 -39 30 -138 -38z m-36 -173
c-24 -46 -86 -164 -137 -263 -51 -99 -114 -218 -140 -265 -259 -463 -273 -487
-428 -740 -336 -549 -613 -921 -902 -1211 -199 -200 -327 -287 -480 -325 -162
-41 -319 31 -384 176 -85 188 -4 418 276 782 235 307 801 845 1287 1223 35 28
109 85 165 129 203 158 771 575 784 576 2 0 -17 -37 -41 -82z"/>
<path d="M8973 4547 c-34 -39 -93 -109 -132 -154 -92 -108 -95 -115 -72 -144
17 -21 21 -22 36 -9 34 28 285 331 285 344 0 17 -21 36 -39 36 -9 0 -44 -33
-78 -73z"/>
<path d="M8440 4175 c-21 -25 3 -67 37 -63 34 4 52 31 37 56 -15 23 -57 27
-74 7z"/>
<path d="M8155 3905 c-158 -146 -190 -180 -190 -203 0 -22 5 -28 26 -30 22 -3
58 26 218 174 105 97 191 184 191 193 0 21 -19 41 -40 41 -8 0 -101 -79 -205
-175z"/>
<path d="M8472 3678 c-27 -27 -6 -68 35 -68 29 0 48 33 33 60 -12 22 -49 27
-68 8z"/>
<path d="M8414 3572 c-10 -6 -101 -133 -282 -389 -50 -72 -51 -103 -2 -103 24
0 36 12 88 88 34 48 104 148 156 222 53 74 96 143 96 152 0 10 -9 22 -19 28
-23 12 -23 12 -37 2z"/>
<path d="M7676 3344 c-22 -22 -20 -50 6 -68 19 -13 25 -14 43 -2 26 17 31 49
10 70 -21 20 -39 20 -59 0z"/>
<path d="M7376 2909 c-64 -15 -140 -65 -205 -134 -66 -71 -83 -99 -112 -183
-75 -217 78 -367 276 -272 155 74 291 294 271 437 -15 112 -117 179 -230 152z
m123 -104 c22 -22 26 -34 26 -89 0 -84 -45 -174 -124 -250 -105 -100 -195
-124 -252 -67 -44 45 -41 112 10 217 35 72 68 112 148 178 60 50 148 55 192
11z"/>
<path d="M5908 4361 c-104 -42 -175 -108 -225 -210 -25 -50 -28 -67 -28 -156
0 -87 3 -107 26 -155 41 -85 99 -144 187 -187 72 -36 81 -38 171 -38 83 0 104
4 153 27 77 36 152 112 191 196 28 59 32 78 32 152 0 159 -69 274 -209 345
-71 36 -86 40 -165 43 -65 1 -97 -2 -133 -17z m240 -177 c80 -47 120 -144 100
-238 -15 -72 -93 -149 -166 -165 -123 -26 -232 44 -262 169 -13 54 -7 96 20
150 26 50 62 80 122 101 65 23 125 18 186 -17z"/>
<path d="M788 3436 c-140 -40 -247 -160 -278 -311 -22 -104 7 -213 81 -306
121 -153 367 -185 526 -70 93 67 156 196 155 316 -1 205 -160 368 -372 380
-37 3 -85 -1 -112 -9z m199 -177 c76 -37 123 -115 123 -205 -1 -111 -110 -214
-226 -214 -148 0 -257 168 -198 308 47 113 188 166 301 111z"/>
<path d="M10609 3150 c-405 -46 -759 -318 -892 -685 -50 -140 -62 -218 -61
-390 1 -139 5 -173 27 -260 47 -175 149 -360 265 -481 201 -208 478 -324 777
-324 415 0 778 225 960 595 94 191 129 380 107 576 -16 140 -36 214 -92 341
-137 310 -415 539 -738 608 -108 23 -253 31 -353 20z m98 -210 c-10 -83 -61
-162 -189 -297 -158 -165 -166 -197 -81 -331 61 -95 77 -170 49 -235 -18 -43
-44 -65 -151 -130 -101 -61 -157 -122 -221 -239 -21 -40 -59 -93 -83 -117 -53
-53 -48 -57 -125 99 -43 89 -51 113 -50 160 1 79 75 297 119 347 l33 38 109 5
c124 6 155 19 179 77 19 45 15 64 -16 79 -14 7 -64 31 -111 53 -125 59 -151
97 -136 204 10 72 227 231 402 294 60 22 163 41 224 42 l54 1 -6 -50z m207 35
c199 -41 397 -167 522 -330 29 -38 51 -71 49 -73 -1 -2 -35 7 -75 19 -125 38
-211 17 -253 -62 -15 -27 -17 -49 -14 -109 3 -41 8 -83 12 -93 7 -17 -2 -18
-151 -15 -151 3 -161 2 -200 -20 -72 -42 -94 -114 -55 -178 11 -18 53 -52 98
-79 180 -111 213 -180 128 -275 -84 -94 -102 -161 -71 -264 39 -129 158 -193
251 -136 44 27 76 81 109 185 29 88 58 142 82 152 8 3 25 -4 39 -17 13 -12 47
-30 75 -39 l51 -17 -33 -49 c-87 -132 -266 -276 -416 -334 -144 -55 -196 -65
-342 -65 -157 0 -251 20 -387 84 -92 43 -226 140 -271 197 l-30 39 28 16 c34
19 75 74 137 180 51 89 120 156 218 213 119 70 170 148 163 251 -3 53 -13 81
-62 177 -55 106 -58 114 -45 139 8 15 64 79 126 142 124 128 167 200 186 312
13 74 11 74 131 49z m-951 -448 c20 -47 109 -123 188 -160 81 -37 74 -47 -31
-47 -161 0 -217 -44 -283 -220 l-28 -75 5 105 c7 132 33 235 88 345 23 47 43
85 45 85 1 0 9 -15 16 -33z m1466 -23 c35 -13 74 -24 87 -24 28 0 40 -22 78
-135 59 -176 57 -358 -8 -547 -26 -79 -35 -94 -55 -96 -32 -5 -74 14 -107 49
-21 22 -37 29 -66 29 -71 0 -121 -67 -184 -245 -41 -118 -81 -149 -137 -105
-55 43 -85 158 -56 213 7 12 36 48 65 79 53 55 54 58 54 117 0 54 -4 66 -42
122 -35 49 -57 70 -115 103 -137 78 -168 127 -101 162 27 14 53 16 184 9 84
-3 162 -4 172 -1 33 11 46 57 33 116 -39 179 16 222 198 154z"/>
<path d="M4380 2819 c-30 -5 -98 -30 -150 -55 -363 -178 -440 -635 -156 -920
115 -115 240 -167 401 -167 105 0 172 16 270 66 187 96 305 289 306 502 1 160
-53 289 -170 406 -141 142 -311 198 -501 168z m211 -175 c193 -57 326 -265
291 -456 -26 -140 -111 -250 -240 -311 -61 -29 -75 -32 -167 -32 -92 0 -106 3
-167 32 -165 78 -270 272 -238 438 48 244 289 397 521 329z"/>
<path d="M1105 2286 c-107 -47 -162 -197 -110 -301 42 -84 158 -137 250 -114
27 7 63 28 90 51 114 101 90 284 -46 352 -59 29 -133 34 -184 12z m155 -81
c85 -44 93 -172 14 -234 -35 -28 -116 -29 -160 -2 -57 34 -79 116 -49 175 36
68 127 96 195 61z"/>
<path d="M5693 2108 c-6 -7 -14 -47 -17 -88 -14 -148 -54 -295 -109 -405 -89
-179 -244 -341 -412 -431 -32 -18 -25 -54 15 -77 65 -36 165 -115 227 -179
153 -160 245 -368 274 -622 15 -130 14 -128 46 -124 32 4 37 15 52 139 13 99
74 295 121 389 91 180 214 310 372 394 61 32 59 61 -7 95 -157 82 -302 240
-378 412 -59 133 -117 347 -117 430 0 22 -5 49 -10 60 -12 22 -43 25 -57 7z
m87 -468 c66 -167 171 -314 300 -420 43 -36 78 -69 77 -75 -1 -5 -26 -29 -57
-51 -63 -47 -131 -117 -185 -188 -49 -67 -129 -227 -164 -332 l-29 -85 -22 68
c-36 112 -117 266 -189 354 -60 76 -171 182 -229 219 -23 15 -23 15 68 90 82
67 154 146 218 236 38 55 109 207 133 284 l22 75 17 -60 c10 -33 27 -85 40
-115z"/>
<path d="M5846 1079 c-54 -58 -90 -109 -123 -174 -51 -100 -52 -125 -5 -125
23 0 32 7 49 43 39 80 96 162 161 229 71 74 78 101 26 106 -28 3 -40 -6 -108
-79z"/>
</g>
</svg>
