<?xml version="1.0" standalone="no"?>
<!DOCTYPE svg PUBLIC "-//W3C//DTD SVG 20010904//EN"
 "http://www.w3.org/TR/2001/REC-SVG-20010904/DTD/svg10.dtd">
<svg version="1.0" xmlns="http://www.w3.org/2000/svg"
 width="100.000000pt" height="100.000000pt" viewBox="0 0 1200.000000 1200.000000"
 preserveAspectRatio="xMidYMid meet">

<g transform="translate(0.000000,1200.000000) scale(0.100000,-0.100000)"
fill="#ffffff" stroke="none">
<path d="M10940 11990 c0 -5 -24 -10 -52 -10 -29 0 -78 -7 -108 -15 -30 -8
-70 -15 -87 -15 -18 0 -33 -4 -33 -10 0 -5 -20 -10 -45 -10 -25 0 -45 -4 -45
-10 0 -5 -15 -10 -32 -10 -18 -1 -44 -7 -58 -15 -14 -8 -40 -14 -57 -15 -18 0
-33 -4 -33 -10 0 -5 -11 -10 -25 -10 -14 0 -33 -4 -43 -9 -46 -23 -95 -41
-112 -41 -11 0 -20 -4 -20 -10 0 -5 -11 -10 -25 -10 -25 0 -31 -2 -93 -33 -19
-9 -42 -17 -53 -17 -10 0 -19 -4 -19 -10 0 -5 -7 -10 -15 -10 -18 0 -89 -32
-93 -42 -2 -5 -15 -8 -28 -8 -13 0 -24 -4 -24 -10 0 -5 -7 -10 -17 -10 -22 0
-93 -32 -93 -42 0 -4 -11 -8 -25 -8 -14 0 -25 -4 -25 -10 0 -5 -6 -10 -14 -10
-17 0 -80 -32 -84 -42 -2 -5 -12 -8 -23 -8 -10 0 -19 -4 -19 -10 0 -5 -11 -10
-25 -10 -14 0 -25 -4 -25 -8 0 -5 -20 -17 -45 -28 -25 -10 -45 -22 -45 -26 0
-4 -7 -8 -15 -8 -9 0 -33 -11 -55 -25 -22 -14 -46 -25 -55 -25 -8 0 -15 -4
-15 -10 0 -5 -6 -10 -14 -10 -7 0 -19 -7 -26 -15 -7 -8 -21 -15 -31 -15 -11 0
-19 -4 -19 -10 0 -5 -7 -10 -15 -10 -8 0 -15 -4 -15 -10 0 -5 -6 -10 -14 -10
-18 0 -76 -32 -76 -42 0 -5 -11 -8 -25 -8 -14 0 -25 -4 -25 -8 0 -5 -16 -17
-35 -28 -19 -10 -35 -22 -35 -26 0 -5 -6 -8 -14 -8 -18 0 -76 -32 -76 -42 0
-5 -7 -8 -15 -8 -8 0 -15 -4 -15 -10 0 -5 -9 -10 -20 -10 -11 0 -20 -4 -20
-10 0 -5 -5 -10 -11 -10 -6 0 -17 -6 -24 -12 -29 -26 -71 -52 -132 -82 -13 -6
-23 -14 -23 -18 0 -5 -5 -8 -11 -8 -6 0 -17 -6 -24 -12 -33 -30 -45 -38 -55
-38 -5 0 -10 -4 -10 -10 0 -5 -9 -10 -20 -10 -11 0 -20 -3 -20 -8 0 -4 -17
-16 -37 -27 -21 -11 -42 -23 -48 -28 -30 -23 -87 -57 -95 -57 -6 0 -10 -4 -10
-10 0 -5 -6 -10 -13 -10 -7 0 -24 -11 -39 -25 -15 -14 -34 -25 -43 -25 -8 0
-15 -4 -15 -10 0 -5 -5 -10 -10 -10 -6 0 -23 -11 -38 -25 -15 -14 -32 -25 -39
-25 -7 0 -13 -4 -13 -8 0 -5 -16 -17 -35 -28 -19 -10 -35 -22 -35 -26 0 -5 -5
-8 -10 -8 -11 0 -25 -10 -65 -47 -13 -13 -29 -23 -35 -23 -5 0 -10 -4 -10 -10
0 -5 -6 -10 -13 -10 -7 0 -24 -11 -39 -25 -15 -14 -31 -25 -36 -25 -5 0 -21
-11 -36 -25 -15 -14 -31 -25 -37 -25 -5 0 -9 -4 -9 -10 0 -5 -7 -10 -15 -10
-9 0 -28 -11 -43 -25 -15 -14 -31 -25 -37 -25 -6 0 -17 -9 -25 -20 -8 -11 -20
-20 -27 -20 -7 0 -23 -11 -37 -25 -14 -14 -28 -25 -31 -25 -4 0 -14 -7 -22
-16 -13 -12 -27 -14 -62 -9 -25 4 -50 11 -56 16 -5 5 -22 9 -37 9 -15 0 -28 5
-28 10 0 6 -15 10 -33 10 -18 0 -37 4 -42 9 -13 13 -88 32 -147 38 -27 3 -48
9 -48 14 0 5 -16 9 -36 9 -19 0 -44 5 -55 11 -21 11 -123 27 -226 36 -35 2
-63 8 -63 12 0 5 -42 11 -92 14 -51 3 -124 11 -163 16 -87 13 -648 13 -730 0
-33 -5 -98 -12 -145 -15 -47 -4 -87 -10 -90 -15 -3 -4 -36 -9 -73 -10 -37 -1
-67 -5 -67 -9 0 -4 -29 -10 -65 -13 -36 -4 -74 -11 -84 -17 -11 -5 -36 -10
-55 -10 -20 0 -36 -4 -36 -10 0 -5 -20 -10 -45 -10 -25 0 -45 -4 -45 -9 0 -5
-22 -11 -50 -15 -27 -4 -52 -11 -55 -16 -3 -6 -22 -10 -41 -10 -19 0 -34 -4
-34 -10 0 -5 -13 -10 -29 -10 -17 0 -33 -4 -36 -10 -3 -5 -16 -10 -28 -10 -12
0 -35 -7 -51 -15 -15 -8 -39 -15 -52 -15 -13 0 -24 -4 -24 -10 0 -5 -9 -10
-20 -10 -11 0 -43 -11 -72 -25 -28 -14 -60 -25 -70 -25 -10 0 -18 -4 -18 -10
0 -5 -11 -10 -25 -10 -14 0 -25 -4 -25 -10 0 -5 -16 -12 -35 -16 -19 -3 -35
-10 -35 -15 0 -5 -11 -9 -25 -9 -14 0 -25 -4 -25 -10 0 -5 -7 -10 -15 -10 -9
0 -33 -11 -55 -25 -22 -14 -46 -25 -55 -25 -8 0 -15 -4 -15 -10 0 -5 -7 -10
-15 -10 -9 0 -33 -11 -55 -25 -22 -14 -46 -25 -55 -25 -8 0 -15 -3 -15 -8 0
-7 -8 -12 -76 -47 -21 -11 -41 -22 -44 -25 -14 -15 -61 -40 -75 -40 -8 0 -15
-4 -15 -10 0 -5 -5 -10 -11 -10 -6 0 -17 -6 -24 -12 -33 -30 -45 -38 -55 -38
-5 0 -10 -4 -10 -10 0 -5 -7 -10 -15 -10 -9 0 -28 -11 -43 -25 -15 -14 -31
-25 -35 -25 -5 0 -14 -6 -21 -12 -7 -7 -25 -22 -40 -33 -16 -11 -34 -26 -41
-32 -8 -7 -16 -13 -20 -13 -4 0 -13 -6 -20 -12 -31 -28 -44 -38 -50 -38 -4 0
-27 -20 -52 -45 -24 -25 -48 -45 -52 -45 -4 0 -24 -16 -44 -35 -20 -19 -40
-35 -42 -35 -3 0 -28 -21 -55 -47 -132 -127 -150 -143 -155 -143 -8 0 -35 -27
-35 -35 0 -3 -21 -28 -48 -55 -125 -131 -142 -150 -142 -155 0 -3 -16 -22 -35
-42 -19 -20 -35 -40 -35 -44 0 -4 -20 -28 -45 -52 -25 -25 -45 -48 -45 -52 0
-4 -6 -13 -12 -20 -28 -31 -38 -44 -38 -50 0 -4 -6 -12 -12 -20 -7 -7 -22 -25
-33 -41 -11 -15 -26 -33 -32 -40 -7 -7 -13 -16 -13 -21 0 -4 -11 -20 -25 -35
-14 -15 -25 -34 -25 -43 0 -8 -4 -15 -10 -15 -5 0 -10 -5 -10 -10 0 -10 -8
-22 -37 -55 -7 -7 -13 -18 -13 -24 0 -6 -4 -11 -10 -11 -5 0 -10 -7 -10 -15 0
-14 -25 -61 -40 -75 -3 -3 -14 -23 -25 -44 -35 -68 -40 -76 -47 -76 -5 0 -8
-7 -8 -15 0 -9 -11 -33 -25 -55 -14 -22 -25 -46 -25 -55 0 -8 -4 -15 -10 -15
-5 0 -10 -7 -10 -15 0 -9 -11 -33 -25 -55 -14 -22 -25 -46 -25 -55 0 -8 -4
-15 -10 -15 -5 0 -10 -11 -10 -25 0 -14 -4 -25 -9 -25 -5 0 -12 -16 -15 -35
-4 -19 -11 -35 -16 -35 -6 0 -10 -11 -10 -25 0 -14 -4 -25 -10 -25 -5 0 -10
-8 -10 -18 0 -10 -11 -42 -25 -70 -14 -29 -25 -61 -25 -72 0 -11 -4 -20 -10
-20 -5 0 -10 -11 -10 -24 0 -13 -7 -37 -15 -52 -8 -16 -15 -39 -15 -51 0 -12
-5 -25 -10 -28 -6 -3 -10 -19 -10 -36 0 -16 -4 -29 -10 -29 -5 0 -10 -15 -10
-34 0 -19 -4 -38 -10 -41 -5 -3 -12 -28 -16 -55 -4 -28 -10 -50 -15 -50 -5 0
-9 -20 -9 -45 0 -25 -4 -45 -10 -45 -5 0 -10 -16 -10 -36 0 -19 -5 -44 -10
-55 -6 -10 -13 -48 -17 -84 -3 -36 -9 -65 -13 -65 -4 0 -8 -30 -9 -67 -1 -37
-6 -70 -10 -73 -5 -3 -11 -43 -15 -90 -3 -47 -10 -112 -15 -145 -13 -82 -13
-643 0 -730 5 -38 13 -112 16 -162 3 -51 9 -93 14 -93 4 0 10 -28 12 -62 9
-104 25 -206 36 -227 6 -11 11 -36 11 -55 0 -20 4 -36 9 -36 5 0 11 -21 14
-48 6 -59 25 -134 38 -147 5 -5 9 -24 9 -42 0 -18 5 -33 10 -33 6 0 10 -13 10
-28 0 -15 4 -32 9 -37 5 -6 12 -31 16 -56 5 -35 3 -49 -9 -62 -9 -8 -16 -18
-16 -22 0 -3 -11 -17 -25 -31 -14 -14 -25 -30 -25 -37 0 -7 -9 -19 -20 -27
-11 -8 -20 -19 -20 -25 0 -6 -11 -22 -25 -37 -14 -15 -25 -34 -25 -43 0 -8 -4
-15 -10 -15 -5 0 -10 -4 -10 -9 0 -6 -11 -22 -25 -37 -14 -15 -25 -31 -25 -36
0 -5 -11 -21 -25 -36 -14 -15 -25 -32 -25 -39 0 -7 -4 -13 -10 -13 -5 0 -10
-5 -10 -10 0 -6 -10 -22 -22 -35 -38 -40 -48 -54 -48 -65 0 -5 -3 -10 -8 -10
-4 0 -16 -16 -26 -35 -11 -19 -23 -35 -28 -35 -4 0 -8 -6 -8 -13 0 -7 -11 -24
-25 -39 -14 -15 -25 -32 -25 -38 0 -5 -4 -10 -10 -10 -5 0 -10 -7 -10 -15 0
-9 -11 -28 -25 -43 -14 -15 -25 -32 -25 -39 0 -7 -4 -13 -10 -13 -5 0 -10 -4
-10 -10 0 -8 -34 -65 -57 -95 -5 -5 -17 -27 -28 -47 -11 -21 -23 -38 -27 -38
-5 0 -8 -9 -8 -20 0 -11 -4 -20 -10 -20 -5 0 -10 -5 -10 -11 0 -6 -6 -17 -12
-24 -30 -33 -38 -45 -38 -55 0 -5 -3 -10 -7 -10 -5 0 -13 -10 -19 -23 -18 -37
-48 -90 -59 -104 -5 -7 -16 -19 -23 -27 -6 -8 -12 -20 -12 -26 0 -5 -4 -10
-10 -10 -5 0 -10 -9 -10 -20 0 -11 -4 -20 -10 -20 -5 0 -10 -7 -10 -15 0 -8
-3 -15 -7 -15 -11 0 -43 -58 -43 -76 0 -8 -3 -14 -8 -14 -4 0 -16 -16 -26 -35
-11 -19 -23 -35 -28 -35 -4 0 -8 -11 -8 -25 0 -14 -3 -25 -7 -25 -11 0 -43
-58 -43 -76 0 -8 -4 -14 -10 -14 -5 0 -10 -7 -10 -15 0 -8 -4 -15 -10 -15 -5
0 -10 -8 -10 -19 0 -10 -7 -24 -15 -31 -8 -7 -15 -19 -15 -26 0 -8 -4 -14 -10
-14 -5 0 -10 -7 -10 -15 0 -9 -11 -33 -25 -55 -14 -22 -25 -46 -25 -55 0 -8
-4 -15 -8 -15 -4 0 -16 -20 -26 -45 -11 -25 -23 -45 -28 -45 -4 0 -8 -11 -8
-25 0 -14 -4 -25 -10 -25 -5 0 -10 -9 -10 -19 0 -11 -3 -21 -7 -23 -11 -4 -43
-67 -43 -84 0 -8 -4 -14 -10 -14 -5 0 -10 -11 -10 -25 0 -14 -4 -25 -8 -25
-10 0 -42 -71 -42 -93 0 -10 -4 -17 -10 -17 -5 0 -10 -11 -10 -24 0 -13 -3
-26 -7 -28 -11 -4 -43 -75 -43 -93 0 -8 -4 -15 -10 -15 -5 0 -10 -9 -10 -19 0
-11 -8 -34 -17 -53 -31 -62 -33 -68 -33 -93 0 -14 -4 -25 -10 -25 -5 0 -10 -9
-10 -20 0 -17 -18 -66 -41 -112 -5 -10 -9 -29 -9 -43 0 -14 -4 -25 -10 -25 -5
0 -10 -15 -10 -32 -1 -18 -7 -44 -15 -58 -8 -14 -14 -40 -15 -57 0 -18 -4 -33
-10 -33 -5 0 -10 -20 -10 -45 0 -25 -4 -45 -10 -45 -5 0 -10 -15 -10 -32 0
-18 -7 -58 -15 -88 -8 -30 -15 -79 -15 -107 0 -29 -4 -53 -10 -53 -6 0 -10
-63 -10 -170 0 -107 4 -170 10 -170 6 0 10 -17 10 -39 0 -21 7 -58 15 -81 8
-23 15 -53 15 -66 0 -13 5 -24 10 -24 6 0 10 -9 10 -19 0 -11 4 -23 10 -26 5
-3 10 -15 10 -25 0 -10 7 -25 15 -34 8 -8 15 -22 15 -30 0 -9 5 -16 10 -16 6
0 10 -5 10 -11 0 -7 16 -26 35 -45 19 -18 35 -37 35 -42 0 -10 43 -52 54 -52
4 0 22 -16 40 -35 19 -19 38 -35 45 -35 6 0 11 -4 11 -10 0 -5 9 -10 19 -10
11 0 26 -7 35 -15 8 -8 21 -15 30 -15 8 0 18 -4 21 -10 3 -5 15 -10 26 -10 10
0 19 -4 19 -10 0 -5 11 -10 24 -10 13 0 43 -7 66 -15 23 -8 60 -15 81 -15 21
0 41 -4 44 -10 4 -6 72 -10 171 -10 103 0 164 4 164 10 0 6 24 10 53 10 28 0
77 7 107 15 30 8 70 15 88 15 17 0 32 5 32 10 0 6 20 10 45 10 25 0 45 5 45
10 0 6 15 10 33 10 17 1 43 7 57 15 14 8 40 14 58 15 17 0 32 5 32 10 0 6 11
10 25 10 14 0 33 4 43 9 46 23 95 41 112 41 11 0 20 5 20 10 0 6 11 10 25 10
25 0 31 2 93 33 19 9 42 17 53 17 10 0 19 5 19 10 0 6 7 10 15 10 18 0 89 32
93 43 2 4 15 7 28 7 13 0 24 5 24 10 0 6 7 10 17 10 22 0 93 32 93 42 0 4 11
8 25 8 14 0 25 5 25 10 0 6 6 10 14 10 17 0 80 32 84 43 2 4 12 7 23 7 10 0
19 5 19 10 0 6 11 10 25 10 14 0 25 4 25 8 0 5 20 17 45 28 25 10 45 22 45 26
0 4 7 8 15 8 9 0 33 11 55 25 22 14 46 25 55 25 8 0 15 5 15 10 0 6 6 10 14
10 7 0 19 7 26 15 7 8 21 15 31 15 11 0 19 5 19 10 0 6 7 10 15 10 8 0 15 5
15 10 0 6 7 10 15 10 14 0 61 25 75 40 3 3 31 18 63 35 31 16 57 33 57 37 0 4
6 8 14 8 18 0 76 32 76 43 0 4 7 7 15 7 8 0 15 5 15 10 0 6 9 10 20 10 11 0
20 5 20 10 0 6 5 10 11 10 6 0 17 6 24 13 29 25 71 51 132 81 13 6 23 14 23
19 0 4 5 7 11 7 6 0 17 6 24 13 33 29 45 37 55 37 5 0 10 5 10 10 0 6 9 10 20
10 11 0 20 3 20 8 0 4 17 16 38 27 20 11 42 24 49 30 7 5 18 15 25 21 7 5 28
17 46 24 17 8 32 18 32 22 0 5 5 8 11 8 6 0 17 6 24 12 35 32 45 38 60 38 8 0
15 5 15 10 0 6 5 10 10 10 6 0 23 11 38 25 15 14 32 25 39 25 7 0 13 4 13 8 0
5 16 17 35 28 19 10 35 22 35 26 0 5 5 8 10 8 11 0 25 10 65 48 13 12 29 22
35 22 5 0 10 5 10 10 0 6 6 10 13 10 7 0 24 11 39 25 15 14 31 25 35 25 5 0
20 11 35 25 15 14 32 25 38 25 5 0 10 5 10 10 0 6 9 10 20 10 11 0 20 3 20 8
0 4 20 21 45 37 24 17 45 33 45 38 0 4 5 7 11 7 6 0 17 6 24 13 31 27 44 37
50 37 4 0 14 7 22 16 13 12 27 14 62 9 25 -4 50 -11 56 -16 5 -5 24 -9 42 -9
18 0 33 -4 33 -10 0 -5 10 -10 23 -10 12 0 54 -12 92 -25 39 -14 87 -25 108
-25 20 0 37 -4 37 -9 0 -5 21 -11 48 -14 67 -7 164 -28 184 -38 10 -5 49 -9
88 -9 38 0 70 -4 70 -9 0 -4 39 -11 88 -14 48 -4 119 -11 157 -16 101 -15 659
-11 775 5 52 7 116 13 143 13 26 1 47 5 47 10 0 5 33 11 73 14 39 2 106 12
147 21 41 10 94 20 118 23 23 3 42 9 42 14 0 5 20 9 45 9 25 0 45 4 45 9 0 5
22 11 50 15 27 4 52 11 55 16 3 6 22 10 41 10 19 0 34 5 34 10 0 6 13 10 29
10 17 0 33 5 36 10 3 6 16 10 28 10 12 0 35 7 51 15 15 8 39 15 52 15 13 0 24
5 24 10 0 6 9 10 20 10 11 0 43 11 72 25 28 14 60 25 70 25 10 0 18 5 18 10 0
6 11 10 25 10 14 0 25 4 25 10 0 5 16 12 35 16 19 3 35 10 35 15 0 5 11 9 25
9 14 0 25 5 25 10 0 6 7 10 15 10 9 0 33 11 55 25 22 14 46 25 55 25 8 0 15 5
15 10 0 6 7 10 15 10 9 0 33 11 55 25 22 14 46 25 55 25 8 0 15 3 15 8 0 7 8
12 76 47 21 11 41 23 44 26 3 3 20 14 38 24 17 11 32 23 32 27 0 4 9 8 21 8
11 0 27 6 34 13 33 29 45 37 55 37 5 0 10 5 10 10 0 6 7 10 15 10 9 0 28 11
43 25 15 14 31 25 35 25 5 0 14 6 21 13 7 6 25 21 40 32 16 11 34 26 41 32 8
7 16 13 20 13 4 0 13 6 20 12 31 28 44 38 50 38 4 0 27 20 52 45 24 25 48 45
52 45 4 0 24 16 44 35 20 19 40 35 42 35 3 0 28 21 55 47 132 127 150 143 155
143 8 0 35 27 35 35 0 3 21 28 48 55 125 131 142 150 142 155 0 3 16 22 35 42
19 20 35 40 35 44 0 4 20 28 45 52 25 25 45 48 45 52 0 4 6 13 13 20 27 31 37
44 37 50 0 4 6 12 13 20 6 7 21 25 32 41 11 15 26 33 33 40 6 7 12 16 12 21 0
4 11 20 25 35 14 15 25 34 25 43 0 8 5 15 10 15 6 0 10 5 10 11 0 6 6 17 13
24 31 36 37 46 37 65 0 11 4 20 8 20 4 0 16 15 27 32 10 18 21 35 24 38 3 3
15 23 26 44 35 68 40 76 47 76 5 0 8 7 8 15 0 9 11 33 25 55 14 22 25 46 25
55 0 8 5 15 10 15 6 0 10 7 10 15 0 9 11 33 25 55 14 22 25 46 25 55 0 8 5 15
10 15 6 0 10 11 10 25 0 14 4 25 9 25 5 0 12 16 15 35 4 19 11 35 16 35 6 0
10 11 10 25 0 14 5 25 10 25 6 0 10 8 10 18 0 10 11 42 25 70 14 29 25 61 25
72 0 11 5 20 10 20 6 0 10 11 10 24 0 13 7 37 15 52 8 16 15 39 15 51 0 12 5
25 10 28 6 3 10 19 10 36 0 16 5 29 10 29 6 0 10 15 10 34 0 19 4 38 10 41 5
3 12 28 16 55 4 28 10 50 15 50 5 0 9 20 9 45 0 25 5 45 10 45 6 0 10 16 10
36 0 19 5 44 10 55 6 10 13 48 17 84 3 36 9 65 13 65 4 0 8 30 9 68 1 37 6 69
12 70 5 2 9 31 9 65 0 34 7 100 14 147 17 103 21 648 5 755 -5 39 -13 112 -16
163 -3 50 -9 92 -14 92 -4 0 -10 28 -12 63 -9 103 -25 205 -36 226 -6 11 -11
36 -11 55 0 20 -4 36 -9 36 -5 0 -11 21 -14 48 -6 59 -25 134 -38 147 -5 5 -9
24 -9 42 0 18 -4 33 -10 33 -5 0 -10 13 -10 28 0 15 -4 32 -9 37 -5 6 -12 31
-16 56 -5 35 -3 49 9 62 9 8 16 18 16 22 0 3 11 17 25 31 14 14 25 30 25 37 0
7 9 19 20 27 11 8 20 19 20 25 0 6 11 22 25 37 14 15 25 34 25 43 0 8 5 15 10
15 6 0 10 4 10 9 0 6 11 22 25 37 14 15 25 31 25 36 0 5 11 21 25 36 14 15 25
32 25 39 0 7 5 13 10 13 6 0 10 5 10 10 0 6 10 22 23 35 37 40 47 54 47 65 0
5 3 10 8 10 4 0 16 16 26 35 11 19 23 35 28 35 4 0 8 6 8 13 0 7 11 24 25 39
14 15 25 32 25 38 0 5 5 10 10 10 6 0 10 7 10 15 0 15 6 25 38 60 6 7 12 18
12 24 0 6 3 11 8 11 4 0 14 15 22 33 7 17 19 38 24 45 6 7 16 18 21 25 6 7 19
29 30 50 11 20 23 37 27 37 5 0 8 9 8 20 0 11 5 20 10 20 6 0 10 5 10 11 0 6
6 17 13 24 29 33 37 45 37 55 0 5 3 10 8 10 4 0 12 10 18 23 18 37 48 90 59
104 6 7 16 19 23 27 6 8 12 20 12 26 0 5 5 10 10 10 6 0 10 9 10 20 0 11 5 20
10 20 6 0 10 7 10 15 0 8 4 15 10 15 5 0 12 11 16 25 3 14 10 25 15 25 5 0 9
9 9 20 0 11 3 20 8 20 7 0 12 8 47 76 11 21 22 41 25 44 15 14 40 61 40 75 0
8 5 15 10 15 6 0 10 7 10 15 0 8 5 15 10 15 6 0 10 8 10 19 0 10 7 24 15 31 8
7 15 19 15 26 0 8 5 14 10 14 6 0 10 7 10 15 0 9 11 33 25 55 14 22 25 46 25
55 0 8 4 15 8 15 4 0 16 20 26 45 11 25 23 45 28 45 4 0 8 11 8 25 0 14 5 25
10 25 6 0 10 9 10 19 0 11 3 21 8 23 10 4 42 67 42 84 0 8 5 14 10 14 6 0 10
11 10 25 0 14 4 25 8 25 10 0 42 71 42 93 0 10 5 17 10 17 6 0 10 11 10 24 0
13 3 26 8 28 10 4 42 75 42 93 0 8 5 15 10 15 6 0 10 9 10 19 0 11 8 34 17 53
31 62 33 68 33 93 0 14 5 25 10 25 6 0 10 9 10 20 0 17 18 66 41 112 5 10 9
29 9 43 0 14 5 25 10 25 6 0 10 15 10 33 1 17 7 43 15 57 8 14 14 40 15 58 0
17 5 32 10 32 6 0 10 20 10 45 0 25 5 45 10 45 6 0 10 15 10 33 0 17 7 57 15
87 8 30 15 81 15 113 0 31 5 57 10 57 6 0 10 62 10 165 0 103 -4 165 -10 165
-5 0 -10 17 -10 39 0 21 -7 58 -15 81 -8 23 -15 53 -15 66 0 13 -4 24 -10 24
-5 0 -10 9 -10 19 0 11 -4 23 -10 26 -5 3 -10 13 -10 21 0 9 -7 22 -15 30 -8
9 -15 24 -15 35 0 10 -4 19 -10 19 -5 0 -10 5 -10 11 0 7 -16 26 -35 45 -19
18 -35 37 -35 42 0 10 -43 52 -54 52 -4 0 -22 16 -40 35 -19 19 -38 35 -45 35
-6 0 -11 5 -11 10 0 6 -7 10 -16 10 -8 0 -22 7 -30 15 -9 8 -24 15 -34 15 -10
0 -22 5 -25 10 -3 6 -15 10 -26 10 -10 0 -19 5 -19 10 0 6 -11 10 -24 10 -13
0 -43 7 -66 15 -23 8 -60 15 -81 15 -22 0 -39 5 -39 10 0 6 -63 10 -170 10
-107 0 -170 -4 -170 -10z m330 -260 c0 -5 19 -10 43 -10 40 0 168 -45 175 -62
2 -5 10 -8 18 -8 7 0 43 -29 79 -65 36 -36 65 -72 65 -79 0 -8 3 -16 8 -18 17
-7 62 -135 62 -175 0 -24 5 -43 10 -43 6 0 10 -63 10 -170 0 -107 -4 -170 -10
-170 -5 0 -10 -26 -10 -57 0 -31 -4 -70 -9 -87 -15 -47 -32 -126 -38 -171 -3
-22 -9 -42 -14 -45 -5 -3 -9 -20 -11 -38 -1 -18 -5 -32 -9 -32 -4 0 -10 -20
-13 -45 -4 -25 -11 -45 -17 -45 -5 0 -9 -13 -9 -30 0 -16 -4 -30 -10 -30 -5 0
-10 -13 -10 -28 0 -16 -3 -32 -7 -36 -11 -11 -43 -99 -43 -118 0 -10 -4 -18
-10 -18 -5 0 -10 -9 -10 -21 0 -11 -7 -27 -15 -35 -8 -9 -15 -24 -15 -34 0
-10 -4 -22 -10 -25 -5 -3 -10 -15 -10 -26 0 -10 -4 -19 -10 -19 -5 0 -10 -10
-10 -22 0 -13 -7 -32 -15 -42 -8 -11 -15 -28 -15 -38 0 -10 -4 -18 -10 -18 -5
0 -10 -11 -10 -25 0 -14 -4 -25 -8 -25 -4 0 -16 -20 -26 -45 -11 -25 -23 -45
-28 -45 -4 0 -8 -11 -8 -25 0 -14 -4 -25 -8 -25 -4 0 -16 -22 -27 -50 -11 -27
-23 -50 -27 -50 -4 0 -8 -9 -8 -20 0 -11 -4 -20 -8 -20 -4 0 -14 -16 -21 -35
-7 -19 -18 -40 -24 -47 -7 -7 -25 -41 -42 -75 -16 -35 -33 -63 -37 -63 -5 0
-8 -9 -8 -19 0 -11 -3 -21 -7 -23 -5 -1 -17 -21 -28 -43 -11 -22 -22 -42 -25
-45 -4 -3 -15 -22 -26 -43 -36 -73 -39 -77 -46 -77 -5 0 -8 -9 -8 -20 0 -11
-4 -20 -9 -20 -5 0 -12 -11 -15 -25 -4 -14 -11 -25 -16 -25 -6 0 -10 -7 -10
-15 0 -8 -4 -15 -10 -15 -5 0 -10 -9 -10 -20 0 -11 -4 -20 -10 -20 -5 0 -12
-11 -16 -25 -3 -14 -10 -25 -15 -25 -5 0 -9 -6 -9 -14 0 -8 -3 -16 -7 -18 -11
-4 -63 -86 -63 -98 0 -5 -4 -10 -10 -10 -5 0 -10 -5 -10 -10 0 -10 -8 -22 -37
-55 -7 -7 -13 -21 -13 -29 0 -9 -4 -16 -10 -16 -5 0 -10 -7 -10 -15 0 -8 -3
-15 -8 -15 -4 0 -16 -16 -26 -35 -11 -19 -23 -35 -28 -35 -4 0 -8 -6 -8 -14 0
-8 -6 -21 -12 -28 -7 -7 -20 -26 -28 -43 -8 -16 -23 -39 -32 -49 -10 -11 -18
-23 -18 -27 0 -4 -6 -14 -12 -21 -7 -7 -20 -26 -28 -43 -15 -30 -25 -44 -47
-70 -7 -7 -13 -16 -13 -20 0 -3 -11 -18 -25 -33 -14 -15 -25 -32 -25 -39 0 -7
-4 -13 -8 -13 -4 0 -16 -15 -27 -32 -10 -18 -27 -40 -37 -49 -10 -9 -18 -21
-18 -28 0 -6 -3 -11 -8 -11 -4 0 -16 -16 -26 -35 -11 -19 -23 -35 -28 -35 -4
0 -8 -6 -8 -13 0 -7 -11 -24 -25 -39 -14 -15 -25 -32 -25 -38 0 -5 -3 -10 -8
-10 -4 0 -13 -12 -19 -27 -7 -16 -24 -40 -38 -55 -14 -15 -25 -32 -25 -38 0
-5 -4 -10 -8 -10 -5 0 -17 -16 -28 -35 -10 -19 -22 -35 -26 -35 -5 0 -8 -5 -8
-10 0 -10 -8 -22 -37 -55 -7 -7 -13 -16 -13 -20 0 -3 -11 -17 -25 -31 -14 -14
-25 -28 -25 -32 0 -4 -16 -25 -35 -47 -19 -22 -35 -43 -35 -47 0 -7 -25 -37
-72 -89 -10 -10 -18 -23 -18 -28 0 -5 -7 -12 -16 -15 -9 -4 -14 -9 -11 -12 3
-3 -10 -21 -29 -39 -19 -18 -34 -37 -34 -42 0 -4 -13 -22 -28 -40 -16 -18 -40
-48 -53 -67 -13 -20 -27 -36 -31 -36 -5 0 -8 -5 -8 -10 0 -6 -10 -22 -22 -35
-34 -36 -48 -53 -48 -60 0 -4 -6 -12 -12 -19 -26 -27 -58 -66 -58 -71 0 -3
-16 -21 -35 -39 -19 -19 -35 -37 -35 -41 0 -6 -4 -12 -50 -64 -14 -16 -41 -48
-60 -71 -19 -22 -45 -52 -57 -65 -13 -13 -23 -27 -23 -30 0 -4 -20 -26 -45
-51 -25 -24 -45 -47 -45 -52 0 -5 -27 -37 -60 -72 -33 -35 -60 -66 -60 -70 0
-3 -16 -23 -35 -43 -19 -20 -35 -39 -35 -42 0 -6 -22 -31 -82 -95 -21 -22 -38
-42 -38 -45 0 -3 -21 -28 -47 -54 -52 -52 -93 -99 -93 -105 0 -2 -36 -41 -80
-85 -44 -45 -80 -84 -80 -87 0 -6 -15 -23 -115 -127 -41 -43 -75 -80 -75 -83
0 -3 -17 -22 -37 -43 -67 -69 -103 -111 -103 -121 0 -6 -5 -10 -11 -10 -11 0
-39 -24 -39 -34 0 -3 -84 -90 -187 -194 -206 -209 -233 -237 -233 -252 0 -6
-6 -10 -13 -10 -7 0 -21 -12 -32 -26 -26 -34 -365 -373 -399 -399 -14 -11 -26
-25 -26 -32 0 -7 -4 -13 -10 -13 -15 0 -43 -27 -252 -233 -104 -103 -191 -187
-194 -187 -10 0 -34 -28 -34 -39 0 -6 -4 -11 -10 -11 -10 0 -52 -36 -121 -102
-21 -21 -40 -38 -43 -38 -3 0 -40 -34 -83 -75 -104 -100 -121 -115 -127 -115
-3 0 -42 -36 -87 -80 -44 -44 -83 -80 -85 -80 -6 0 -53 -41 -105 -92 -26 -27
-51 -48 -54 -48 -3 0 -23 -17 -45 -37 -64 -61 -89 -83 -95 -83 -3 0 -22 -16
-42 -35 -20 -19 -40 -35 -43 -35 -4 0 -35 -27 -70 -60 -35 -33 -67 -60 -72
-60 -5 0 -28 -20 -52 -45 -25 -25 -47 -45 -51 -45 -3 0 -17 -10 -30 -22 -13
-13 -43 -39 -65 -58 -23 -19 -56 -47 -73 -63 -49 -42 -56 -47 -62 -47 -4 0
-22 -16 -41 -35 -18 -19 -36 -35 -40 -35 -3 0 -11 -6 -18 -13 -27 -25 -66 -57
-71 -57 -7 0 -25 -15 -60 -47 -13 -13 -29 -23 -35 -23 -5 0 -10 -3 -10 -7 0
-5 -16 -19 -36 -32 -19 -13 -49 -37 -67 -53 -18 -15 -36 -28 -40 -28 -5 0 -24
-15 -42 -34 -18 -19 -36 -32 -39 -29 -3 3 -8 -2 -12 -11 -3 -9 -10 -16 -15
-16 -5 0 -18 -8 -28 -18 -52 -47 -82 -72 -89 -72 -4 0 -25 -16 -47 -35 -22
-19 -43 -35 -47 -35 -4 0 -18 -11 -32 -25 -14 -14 -28 -25 -31 -25 -6 0 -20
-11 -50 -38 -7 -6 -18 -12 -24 -12 -6 0 -11 -3 -11 -8 0 -4 -16 -16 -35 -26
-19 -11 -35 -23 -35 -28 0 -4 -5 -8 -10 -8 -6 0 -23 -11 -38 -25 -15 -14 -39
-31 -54 -38 -16 -6 -28 -15 -28 -19 0 -5 -5 -8 -10 -8 -6 0 -23 -11 -38 -25
-15 -14 -32 -25 -39 -25 -7 0 -13 -4 -13 -8 0 -5 -16 -17 -35 -28 -19 -10 -35
-22 -35 -26 0 -5 -5 -8 -11 -8 -7 0 -19 -8 -28 -18 -9 -10 -31 -27 -49 -37
-17 -11 -32 -23 -32 -27 0 -4 -6 -8 -13 -8 -7 0 -24 -11 -39 -25 -15 -14 -30
-25 -33 -25 -3 0 -13 -6 -21 -12 -8 -7 -20 -17 -27 -23 -7 -5 -25 -17 -42 -25
-16 -8 -36 -21 -43 -27 -7 -7 -17 -13 -21 -13 -4 0 -16 -8 -27 -17 -10 -10
-32 -25 -49 -33 -16 -8 -36 -21 -43 -28 -7 -6 -20 -12 -28 -12 -8 0 -14 -4
-14 -8 0 -5 -16 -17 -35 -28 -19 -10 -35 -22 -35 -26 0 -5 -7 -8 -15 -8 -8 0
-15 -4 -15 -10 0 -5 -7 -10 -15 -10 -15 0 -25 -6 -60 -37 -7 -7 -18 -13 -24
-13 -6 0 -11 -4 -11 -10 0 -5 -5 -10 -10 -10 -12 0 -94 -52 -98 -62 -2 -5 -10
-8 -18 -8 -8 0 -14 -4 -14 -9 0 -5 -11 -12 -25 -15 -14 -4 -25 -11 -25 -16 0
-6 -9 -10 -20 -10 -11 0 -20 -4 -20 -10 0 -5 -7 -10 -15 -10 -8 0 -15 -4 -15
-10 0 -5 -11 -12 -25 -16 -14 -3 -25 -10 -25 -15 0 -5 -9 -9 -20 -9 -11 0 -20
-3 -20 -8 0 -7 -4 -10 -77 -46 -21 -11 -40 -22 -43 -26 -3 -3 -23 -14 -45 -25
-22 -11 -42 -23 -43 -27 -2 -5 -12 -8 -23 -8 -10 0 -19 -3 -19 -7 0 -5 -28
-21 -63 -38 -34 -16 -68 -35 -75 -42 -7 -6 -28 -17 -47 -24 -19 -7 -35 -17
-35 -21 0 -4 -9 -8 -20 -8 -11 0 -20 -4 -20 -8 0 -4 -22 -16 -50 -27 -27 -11
-50 -23 -50 -27 0 -4 -11 -8 -25 -8 -14 0 -25 -4 -25 -8 0 -5 -20 -17 -45 -28
-25 -10 -45 -22 -45 -26 0 -4 -11 -8 -25 -8 -14 0 -25 -4 -25 -10 0 -5 -8 -10
-18 -10 -10 0 -27 -7 -38 -15 -10 -8 -29 -15 -41 -15 -13 0 -23 -4 -23 -10 0
-5 -9 -10 -19 -10 -11 0 -23 -5 -26 -10 -3 -6 -15 -10 -25 -10 -10 0 -25 -7
-34 -15 -8 -8 -24 -15 -35 -15 -12 0 -21 -4 -21 -10 0 -5 -8 -10 -17 -10 -20
0 -108 -32 -119 -43 -4 -4 -20 -7 -36 -7 -15 0 -28 -4 -28 -10 0 -5 -13 -10
-30 -10 -16 0 -30 -4 -30 -9 0 -6 -20 -13 -45 -17 -25 -3 -45 -9 -45 -13 0 -4
-14 -8 -32 -9 -18 -2 -35 -6 -38 -11 -3 -5 -23 -11 -45 -14 -45 -6 -124 -23
-171 -38 -17 -5 -56 -9 -87 -9 -31 0 -57 -4 -57 -10 0 -6 -63 -10 -170 -10
-107 0 -170 4 -170 10 0 6 -19 10 -42 10 -41 0 -169 45 -176 62 -2 5 -10 8
-18 8 -18 0 -144 126 -144 144 0 8 -3 16 -8 18 -17 7 -62 135 -62 176 0 23 -4
42 -10 42 -6 0 -10 63 -10 170 0 107 4 170 10 170 6 0 10 26 10 57 0 31 4 70
9 87 15 47 32 126 38 171 3 22 9 42 14 45 5 3 9 20 11 38 1 18 5 32 9 32 4 0
10 20 13 45 4 25 11 45 17 45 5 0 9 14 9 30 0 17 5 30 10 30 6 0 10 13 10 28
0 16 3 32 7 36 11 11 43 99 43 119 0 9 5 17 10 17 6 0 10 9 10 21 0 11 7 27
15 35 8 9 15 24 15 34 0 10 5 22 10 25 6 3 10 15 10 26 0 10 5 19 10 19 6 0
10 10 10 23 0 12 7 31 15 41 8 11 15 28 15 38 0 10 5 18 10 18 6 0 10 12 10
26 0 14 4 23 10 19 6 -3 10 -1 10 6 0 19 33 89 42 89 4 0 8 11 8 25 0 14 4 25
8 25 4 0 16 22 27 50 11 27 23 50 27 50 4 0 8 9 8 20 0 11 5 20 10 20 6 0 10
6 10 14 0 7 7 19 15 26 8 7 15 21 15 31 0 11 5 19 10 19 6 0 10 7 10 15 0 8 5
15 10 15 6 0 10 8 10 19 0 10 7 24 15 31 8 7 15 19 15 26 0 8 5 14 10 14 6 0
10 11 10 25 0 14 3 25 8 25 10 0 42 58 42 76 0 8 5 14 10 14 6 0 10 7 10 15 0
8 4 15 8 15 5 0 17 20 28 45 10 25 22 45 26 45 4 0 8 6 8 14 0 18 32 76 43 76
4 0 7 7 7 15 0 8 5 15 10 15 6 0 10 9 10 20 0 11 4 20 8 20 4 0 16 15 27 32
10 18 21 35 24 38 3 3 15 22 25 43 11 20 23 37 28 37 4 0 8 9 8 20 0 11 5 20
10 20 6 0 10 5 10 10 0 10 8 22 37 55 7 7 13 21 13 29 0 9 5 16 10 16 6 0 10
7 10 15 0 8 4 15 10 15 5 0 12 11 16 25 3 14 10 25 15 25 5 0 9 7 9 15 0 8 3
15 8 15 4 0 16 18 26 40 11 22 23 40 28 40 4 0 8 7 8 15 0 8 5 15 10 15 6 0
10 6 10 13 0 7 11 24 25 39 14 15 25 34 25 41 0 8 7 18 16 21 8 3 12 10 9 16
-3 5 1 10 9 10 9 0 16 7 16 15 0 8 5 15 10 15 6 0 10 7 10 15 0 9 11 28 25 43
14 15 25 32 25 39 0 7 4 13 8 13 4 0 16 15 27 32 10 18 27 40 37 49 10 9 18
21 18 28 0 6 3 11 8 11 4 0 16 16 26 35 11 19 23 35 28 35 4 0 8 9 8 20 0 11
4 20 8 20 5 0 17 16 28 35 10 19 22 35 26 35 5 0 8 5 8 10 0 10 8 22 38 55 6
7 12 19 12 25 0 25 36 3 45 -28 5 -17 13 -32 17 -32 4 0 8 -9 8 -20 0 -11 5
-20 10 -20 6 0 10 -7 10 -14 0 -8 11 -36 25 -62 14 -26 25 -53 25 -60 0 -8 5
-14 10 -14 6 0 10 -6 10 -14 0 -18 32 -76 43 -76 4 0 7 -11 7 -25 0 -14 4 -25
8 -25 4 0 21 -26 37 -57 17 -32 33 -59 38 -61 11 -5 8 -72 -3 -72 -5 0 -10 -6
-10 -12 0 -16 -53 -122 -62 -126 -5 -2 -8 -9 -8 -15 0 -15 -53 -121 -62 -125
-5 -2 -8 -12 -8 -22 0 -11 -11 -40 -25 -66 -14 -26 -25 -55 -25 -65 0 -11 -4
-19 -10 -19 -5 0 -10 -7 -10 -15 0 -8 -11 -40 -25 -71 -14 -31 -25 -65 -25
-75 0 -11 -4 -19 -10 -19 -5 0 -10 -8 -10 -17 0 -10 -11 -49 -25 -88 -13 -38
-25 -80 -25 -92 0 -13 -4 -23 -9 -23 -5 0 -11 -21 -14 -48 -3 -26 -14 -90 -26
-142 -34 -160 -25 -407 18 -488 6 -11 11 -30 11 -41 0 -12 5 -21 10 -21 6 0
10 -9 10 -20 0 -19 6 -29 38 -65 6 -7 12 -16 12 -20 0 -8 97 -105 105 -105 6
0 20 -11 50 -37 7 -7 23 -13 34 -13 12 0 21 -4 21 -10 0 -5 8 -10 18 -10 10 0
22 -4 27 -9 50 -46 552 -47 600 0 5 5 24 9 42 9 18 0 33 5 33 10 0 6 16 10 35
10 19 0 43 4 53 9 24 13 117 41 136 41 9 0 16 5 16 10 0 6 9 10 20 10 11 0 43
11 72 25 28 14 60 25 70 25 10 0 18 4 18 9 0 5 10 11 22 14 47 12 98 32 98 39
0 5 11 8 24 8 13 0 26 3 28 8 4 9 110 62 126 62 6 0 12 4 12 9 0 5 11 12 25
15 14 4 25 11 25 16 0 6 9 10 19 10 11 0 23 5 26 10 3 6 15 10 26 10 10 0 19
4 19 9 0 5 11 12 25 15 14 4 25 11 25 16 0 6 9 10 20 10 11 0 20 5 20 10 0 6
9 10 20 10 11 0 20 3 20 8 0 4 14 13 30 20 17 8 36 19 43 25 7 7 38 25 70 42
31 16 57 33 57 37 0 4 9 8 20 8 11 0 20 4 20 9 0 5 8 12 18 15 32 13 62 31 62
38 0 5 9 8 20 8 11 0 20 5 20 10 0 6 5 10 10 10 10 0 22 8 55 38 7 6 18 12 24
12 6 0 11 4 11 9 0 5 11 12 25 15 14 4 25 11 25 16 0 6 9 10 20 10 11 0 20 4
20 8 0 5 16 17 35 28 19 10 35 22 35 26 0 5 7 8 15 8 8 0 15 3 15 8 0 4 16 16
35 26 19 11 35 23 35 28 0 4 9 8 20 8 11 0 20 5 20 10 0 6 5 10 10 10 10 0 22
8 55 37 7 7 16 13 20 13 3 0 18 11 33 25 15 14 31 25 37 25 6 0 17 9 25 20 8
11 19 20 25 20 6 0 22 11 37 25 15 14 32 25 38 25 5 0 10 3 10 8 0 4 16 16 35
26 19 11 35 23 35 28 0 4 7 8 16 8 9 0 31 16 50 35 18 19 36 35 41 35 4 0 20
11 35 25 15 14 32 25 38 25 5 0 10 3 10 8 0 4 17 18 37 32 20 14 47 35 59 48
13 12 27 22 31 22 5 0 20 11 35 25 15 14 30 25 33 25 7 0 24 14 60 47 13 13
27 23 30 23 4 0 12 6 19 12 27 26 66 58 71 58 3 0 21 16 39 35 19 19 38 35 43
35 4 0 26 17 49 38 23 20 54 46 69 57 15 11 42 34 61 51 18 17 45 39 60 50 15
10 37 29 50 41 13 13 25 23 28 23 3 0 33 27 67 60 34 33 66 60 70 60 5 0 30
21 57 48 26 26 60 56 76 67 15 11 49 41 76 68 27 26 52 47 55 47 10 0 35 28
35 39 0 6 5 11 11 11 6 0 37 26 69 58 33 31 82 77 110 102 28 25 126 118 218
208 92 89 170 162 173 162 8 0 389 381 389 389 0 3 73 81 163 173 89 92 182
190 207 218 25 28 71 77 103 110 31 32 57 63 57 69 0 6 5 11 11 11 11 0 39 25
39 35 0 3 21 28 48 55 26 27 56 61 67 76 11 16 41 50 68 76 26 27 47 52 47 57
0 4 27 36 60 70 33 34 60 64 60 67 0 3 10 15 23 28 12 13 31 35 41 50 11 15
33 42 50 60 17 19 40 46 51 61 11 15 37 46 58 69 20 23 37 45 37 49 0 5 16 24
35 43 19 18 35 36 35 40 0 3 6 11 13 18 25 27 57 66 57 72 0 2 10 16 23 29 33
36 47 53 47 60 0 3 11 18 25 33 14 15 25 30 25 35 0 4 10 18 23 31 12 12 33
39 47 59 14 20 28 37 33 37 4 0 7 5 7 10 0 6 11 23 25 38 14 15 25 31 25 35 0
5 16 23 35 41 19 19 35 41 35 50 0 9 4 16 8 16 5 0 17 16 28 35 10 19 22 35
26 35 5 0 8 5 8 10 0 6 11 23 25 38 14 15 25 31 25 37 0 6 9 17 20 25 11 8 20
19 20 25 0 6 11 22 25 37 14 15 25 30 25 33 0 6 11 20 38 50 6 7 12 18 12 24
0 6 5 11 10 11 6 0 10 9 10 20 0 11 4 20 8 20 5 0 17 16 28 35 10 19 22 35 26
35 5 0 8 7 8 15 0 8 3 15 8 15 4 0 16 16 26 35 11 19 23 35 28 35 4 0 8 9 8
20 0 11 4 20 10 20 5 0 12 11 16 25 3 14 10 25 15 25 5 0 9 5 9 10 0 10 8 22
38 55 6 7 12 18 12 24 0 6 5 11 10 11 6 0 10 9 10 20 0 11 5 20 10 20 6 0 10
5 10 11 0 6 11 25 25 43 14 18 25 40 25 49 0 10 4 17 8 17 4 0 21 26 37 57 17
32 35 63 42 70 6 7 17 26 25 43 7 16 16 30 20 30 5 0 8 9 8 20 0 11 5 20 10
20 6 0 10 9 10 20 0 11 4 20 10 20 5 0 12 11 16 25 3 14 10 25 15 25 5 0 9 6
9 12 0 16 53 122 63 126 4 2 7 12 7 23 0 10 4 19 8 19 4 0 16 23 27 50 11 28
23 50 27 50 4 0 8 9 8 19 0 11 11 41 25 67 14 26 25 55 25 65 0 11 5 19 10 19
6 0 10 6 10 14 0 7 11 39 25 70 14 31 25 65 25 76 0 11 5 20 10 20 6 0 10 8
10 18 0 9 12 49 25 87 14 39 25 82 25 98 0 15 5 27 10 27 6 0 10 16 10 36 0
19 4 43 9 52 19 36 41 208 41 325 0 95 -5 138 -21 192 -11 39 -23 82 -26 98
-3 15 -9 27 -14 27 -5 0 -9 9 -9 20 0 19 -6 29 -37 65 -7 7 -13 16 -13 20 0 8
-97 105 -105 105 -6 0 -20 11 -50 38 -7 6 -23 12 -34 12 -12 0 -21 5 -21 10 0
6 -9 10 -21 10 -11 0 -30 5 -41 11 -81 43 -328 52 -488 18 -52 -12 -116 -23
-142 -26 -27 -3 -48 -9 -48 -14 0 -5 -10 -9 -22 -9 -13 0 -54 -12 -93 -25 -38
-14 -78 -25 -87 -25 -10 0 -18 -4 -18 -10 0 -5 -8 -10 -19 -10 -10 0 -44 -11
-75 -25 -31 -14 -63 -25 -71 -25 -8 0 -15 -4 -15 -10 0 -5 -8 -10 -19 -10 -10
0 -39 -11 -65 -25 -26 -14 -55 -25 -66 -25 -10 0 -20 -3 -22 -7 -4 -10 -110
-63 -125 -63 -6 0 -13 -3 -15 -7 -4 -10 -110 -63 -126 -63 -6 0 -12 -4 -12
-10 0 -11 -67 -14 -72 -2 -1 4 -29 20 -60 37 -32 16 -58 33 -58 37 0 4 -11 8
-25 8 -14 0 -25 3 -25 8 0 10 -58 42 -76 42 -8 0 -14 5 -14 10 0 6 -6 10 -14
10 -7 0 -34 11 -60 25 -26 14 -54 25 -62 25 -7 0 -14 5 -14 10 0 6 -9 10 -20
10 -11 0 -20 4 -20 8 0 4 -15 12 -32 17 -31 9 -53 45 -28 45 10 0 21 8 55 38
7 6 18 12 24 12 6 0 11 3 11 8 0 4 16 16 35 26 19 11 35 23 35 28 0 4 9 8 20
8 11 0 20 4 20 8 0 5 16 17 35 28 19 10 35 22 35 26 0 5 5 8 11 8 7 0 19 8 28
18 9 10 31 27 49 37 17 11 32 23 32 27 0 4 6 8 13 8 7 0 24 11 39 25 15 14 34
25 43 25 8 0 15 5 15 10 0 6 7 10 15 10 8 0 15 7 15 16 0 8 5 12 10 9 6 -3 13
1 16 9 3 9 13 16 21 16 7 0 26 11 41 25 15 14 32 25 39 25 7 0 13 5 13 10 0 6
7 10 15 10 8 0 15 4 15 8 0 5 18 17 40 28 22 10 40 22 40 27 0 4 7 7 15 7 8 0
15 4 15 9 0 5 11 12 25 15 14 4 25 11 25 16 0 6 7 10 15 10 8 0 15 5 15 10 0
6 7 10 15 10 15 0 25 6 60 38 7 6 18 12 24 12 6 0 11 5 11 10 0 6 9 10 20 10
11 0 20 4 20 8 0 5 17 17 38 28 20 10 39 22 42 25 3 3 20 14 38 24 17 11 32
23 32 27 0 4 9 8 20 8 11 0 20 5 20 10 0 6 7 10 15 10 8 0 15 3 15 8 0 10 58
42 76 42 8 0 14 4 14 8 0 4 20 16 45 26 25 11 45 23 45 28 0 4 7 8 15 8 8 0
15 5 15 10 0 6 6 10 14 10 18 0 76 32 76 43 0 4 11 7 25 7 14 0 25 5 25 10 0
6 6 10 14 10 7 0 19 7 26 15 7 8 21 15 31 15 11 0 19 5 19 10 0 6 7 10 15 10
8 0 15 5 15 10 0 6 8 10 19 10 10 0 24 7 31 15 7 8 19 15 26 15 8 0 14 5 14
10 0 6 9 10 20 10 11 0 20 4 20 8 0 4 23 16 50 27 28 11 50 23 50 27 0 4 11 8
25 8 14 0 25 4 25 8 0 9 70 42 89 42 7 0 9 5 6 10 -4 6 5 10 19 10 14 0 26 5
26 10 0 6 8 10 18 10 10 0 27 7 38 15 10 8 29 15 42 15 12 0 22 5 22 10 0 6 9
10 19 10 11 0 23 5 26 10 3 6 15 10 25 10 10 0 25 7 34 15 8 8 24 15 35 15 12
0 21 5 21 10 0 6 8 10 18 10 19 0 107 32 118 43 4 4 20 7 36 7 15 0 28 5 28
10 0 6 14 10 30 10 17 0 30 4 30 9 0 6 20 13 45 17 25 3 45 9 45 13 0 4 14 8
32 9 18 2 35 6 38 11 3 5 23 11 45 14 45 6 124 23 171 38 17 5 56 9 87 9 31 0
57 5 57 10 0 6 63 10 170 10 107 0 170 -4 170 -10z m-5220 -1570 c0 -6 61 -10
162 -10 89 0 187 -4 217 -10 82 -14 207 -31 279 -37 34 -2 62 -8 62 -13 0 -4
24 -10 53 -13 28 -3 79 -13 112 -22 33 -10 79 -20 103 -22 23 -3 42 -9 42 -14
0 -5 15 -9 33 -9 17 -1 43 -7 57 -15 14 -8 35 -14 48 -15 12 0 22 -4 22 -10 0
-5 16 -10 35 -10 19 0 35 -4 35 -10 0 -5 7 -10 16 -10 22 0 118 -33 122 -42 2
-5 15 -8 28 -8 13 0 24 -4 24 -10 0 -5 8 -10 19 -10 10 0 44 -11 75 -25 31
-14 63 -25 71 -25 8 0 15 -4 15 -8 0 -4 23 -16 50 -27 28 -11 50 -23 50 -27 0
-4 11 -8 25 -8 14 0 25 -3 25 -7 0 -5 20 -17 45 -28 25 -11 45 -23 45 -27 0
-5 11 -8 25 -8 14 0 25 -3 25 -7 0 -11 58 -43 76 -43 8 0 14 -4 14 -10 0 -5 7
-10 15 -10 8 0 15 -3 15 -8 0 -4 17 -16 38 -27 52 -27 116 -69 120 -77 2 -5
10 -8 18 -8 8 0 14 -4 14 -10 0 -5 7 -10 15 -10 9 0 28 -11 43 -25 15 -14 32
-25 39 -25 7 0 13 -4 13 -8 0 -4 15 -16 33 -27 17 -10 39 -27 48 -37 9 -10 19
-18 23 -18 7 0 20 -10 51 -37 7 -7 17 -13 20 -13 4 0 26 -20 51 -45 24 -25 47
-45 52 -45 5 0 37 -27 72 -60 35 -33 65 -60 67 -60 9 0 53 -50 53 -60 0 -5 6
-10 14 -10 18 0 126 -108 126 -126 0 -8 5 -14 10 -14 10 0 60 -44 60 -53 0 -3
32 -37 70 -77 39 -40 70 -75 70 -79 0 -3 11 -18 25 -33 14 -15 25 -32 25 -38
0 -5 3 -10 8 -10 4 0 21 -20 37 -45 17 -24 33 -45 38 -45 4 0 7 -7 7 -15 0 -9
11 -26 25 -39 14 -13 25 -29 25 -35 0 -7 14 -26 30 -44 17 -18 33 -40 36 -49
3 -10 10 -18 15 -18 11 0 12 -47 2 -52 -5 -1 -16 -19 -25 -38 -20 -38 -40 -72
-49 -80 -3 -3 -13 -21 -22 -40 -19 -37 -39 -72 -47 -80 -5 -5 -25 -38 -49 -84
-17 -32 -28 -48 -48 -71 -7 -7 -13 -18 -13 -24 0 -6 -4 -11 -10 -11 -5 0 -10
-9 -10 -20 0 -11 -4 -20 -8 -20 -5 0 -17 -16 -28 -35 -10 -19 -22 -35 -26 -35
-5 0 -8 -7 -8 -15 0 -8 -3 -15 -8 -15 -4 0 -16 -16 -26 -35 -11 -19 -23 -35
-28 -35 -4 0 -8 -9 -8 -20 0 -11 -4 -20 -8 -20 -5 0 -17 -16 -28 -35 -10 -19
-22 -35 -26 -35 -5 0 -8 -5 -8 -10 0 -6 -11 -23 -25 -38 -14 -15 -25 -31 -25
-37 0 -6 -9 -17 -20 -25 -11 -8 -20 -19 -20 -25 0 -6 -11 -22 -25 -37 -14 -15
-25 -30 -25 -33 0 -6 -11 -20 -37 -50 -7 -7 -13 -18 -13 -24 0 -6 -4 -11 -9
-11 -5 0 -12 -8 -16 -19 -3 -10 -19 -33 -35 -50 -17 -17 -30 -34 -30 -39 0 -4
-11 -19 -25 -34 -14 -15 -25 -30 -25 -33 0 -4 -6 -12 -12 -19 -26 -27 -58 -66
-58 -72 0 -2 -11 -16 -25 -30 -14 -14 -25 -28 -25 -32 0 -4 -14 -23 -30 -42
-16 -19 -30 -38 -30 -42 0 -4 -11 -18 -25 -32 -14 -14 -25 -28 -25 -31 0 -4
-6 -12 -12 -19 -25 -25 -58 -66 -58 -71 0 -2 -17 -22 -37 -44 -49 -52 -63 -69
-63 -76 0 -4 -20 -27 -45 -52 -25 -24 -45 -48 -45 -52 0 -4 -16 -24 -35 -44
-19 -20 -35 -39 -35 -42 0 -6 -22 -31 -82 -95 -21 -22 -38 -43 -38 -46 0 -3
-22 -28 -50 -56 -27 -28 -50 -54 -50 -57 0 -4 -25 -33 -55 -65 -30 -32 -55
-60 -55 -62 0 -7 -43 -55 -102 -116 -32 -32 -58 -62 -58 -68 0 -5 -5 -10 -11
-10 -11 0 -39 -25 -39 -35 0 -4 -16 -22 -35 -41 -19 -18 -35 -36 -35 -39 0 -3
-27 -32 -60 -65 -33 -33 -60 -63 -60 -66 0 -7 -867 -874 -874 -874 -3 0 -33
-27 -66 -60 -33 -33 -62 -60 -65 -60 -3 0 -21 -16 -39 -35 -19 -19 -39 -35
-45 -35 -6 0 -11 -5 -11 -11 0 -11 -24 -39 -34 -39 -3 0 -32 -26 -64 -57 -62
-62 -109 -103 -117 -103 -2 0 -22 -17 -43 -37 -21 -21 -63 -58 -92 -83 -29
-25 -64 -55 -76 -67 -13 -13 -26 -23 -29 -23 -3 0 -23 -17 -45 -37 -64 -61
-89 -83 -95 -83 -3 0 -22 -16 -42 -35 -20 -19 -40 -35 -44 -35 -4 0 -28 -20
-52 -45 -25 -25 -48 -45 -52 -45 -7 0 -24 -14 -76 -62 -22 -21 -42 -38 -45
-38 -3 0 -11 -6 -18 -13 -27 -25 -66 -57 -72 -57 -2 0 -16 -11 -30 -25 -14
-14 -28 -25 -32 -25 -4 0 -23 -14 -42 -30 -19 -16 -38 -30 -42 -30 -4 0 -18
-11 -32 -25 -14 -14 -28 -25 -31 -25 -4 0 -12 -6 -19 -13 -27 -25 -66 -57 -72
-57 -2 0 -17 -11 -32 -25 -15 -14 -30 -25 -34 -25 -5 0 -22 -13 -39 -30 -17
-16 -40 -32 -50 -35 -11 -4 -19 -11 -19 -16 0 -5 -5 -9 -10 -9 -10 0 -22 -8
-55 -37 -7 -7 -16 -13 -20 -13 -3 0 -18 -11 -33 -25 -15 -14 -31 -25 -37 -25
-6 0 -17 -9 -25 -20 -8 -11 -19 -20 -25 -20 -6 0 -22 -11 -37 -25 -15 -14 -32
-25 -38 -25 -5 0 -10 -3 -10 -8 0 -4 -16 -16 -35 -26 -19 -11 -35 -23 -35 -28
0 -4 -9 -8 -20 -8 -11 0 -20 -4 -20 -8 0 -5 -16 -17 -35 -28 -19 -10 -35 -22
-35 -26 0 -5 -7 -8 -15 -8 -8 0 -15 -3 -15 -8 0 -4 -16 -16 -35 -26 -19 -11
-35 -23 -35 -28 0 -4 -9 -8 -20 -8 -11 0 -20 -4 -20 -10 0 -5 -5 -10 -10 -10
-6 0 -18 -6 -26 -12 -31 -27 -41 -33 -69 -49 -46 -24 -79 -43 -85 -49 -8 -8
-43 -28 -80 -47 -19 -9 -37 -19 -40 -22 -8 -9 -42 -29 -80 -49 -19 -9 -36 -20
-38 -24 -5 -11 -52 -10 -52 1 0 5 -8 12 -17 15 -10 3 -32 19 -50 36 -18 16
-37 30 -44 30 -6 0 -22 11 -35 25 -13 14 -30 25 -39 25 -8 0 -15 3 -15 8 0 4
-21 21 -45 37 -25 17 -45 33 -45 38 0 4 -5 7 -10 7 -6 0 -23 11 -38 25 -15 14
-30 25 -33 25 -4 0 -39 32 -79 70 -40 39 -74 70 -77 70 -9 0 -53 50 -53 60 0
5 -6 10 -14 10 -18 0 -126 108 -126 126 0 8 -5 14 -10 14 -10 0 -60 44 -60 53
0 3 -32 37 -70 77 -39 40 -70 75 -70 79 0 4 -16 24 -35 44 -19 20 -35 39 -35
42 0 6 -11 20 -37 50 -7 7 -13 17 -13 21 0 3 -8 14 -18 23 -10 9 -27 31 -37
49 -11 17 -23 32 -27 32 -4 0 -8 6 -8 13 0 7 -11 24 -25 39 -14 15 -25 34 -25
43 0 8 -4 15 -10 15 -5 0 -10 6 -10 14 0 8 -3 16 -7 18 -9 4 -51 68 -78 121
-11 20 -23 37 -27 37 -5 0 -8 7 -8 15 0 8 -4 15 -10 15 -5 0 -10 6 -10 14 0
18 -32 76 -42 76 -5 0 -8 11 -8 25 0 14 -3 25 -8 25 -4 0 -16 20 -27 45 -11
25 -23 45 -27 45 -5 0 -8 11 -8 25 0 14 -4 25 -8 25 -4 0 -16 23 -27 50 -11
27 -23 50 -27 50 -4 0 -8 7 -8 15 0 8 -11 40 -25 71 -14 31 -25 65 -25 75 0
11 -4 19 -10 19 -5 0 -10 11 -10 24 0 13 -3 26 -7 28 -10 4 -43 100 -43 122 0
9 -4 16 -10 16 -5 0 -10 16 -10 35 0 19 -4 35 -10 35 -5 0 -10 10 -10 23 -1
12 -7 33 -15 47 -8 14 -14 40 -15 58 0 17 -4 32 -9 32 -5 0 -11 19 -14 43 -2
23 -12 69 -22 102 -9 33 -19 84 -22 113 -3 28 -9 52 -13 52 -5 0 -11 28 -13
63 -6 71 -23 196 -37 278 -6 30 -10 128 -10 217 0 101 -4 162 -10 162 -6 0
-10 28 -10 65 0 36 4 65 9 65 5 0 12 78 14 173 3 94 13 222 22 282 9 61 18
136 21 168 3 31 9 57 14 57 5 0 10 26 13 58 3 31 12 84 22 117 9 33 19 77 22
98 3 20 9 37 14 37 5 0 9 14 9 31 0 34 30 132 43 137 4 2 7 19 7 38 0 19 5 34
10 34 6 0 10 7 10 16 0 22 33 118 43 122 4 2 7 15 7 28 0 13 5 24 10 24 6 0
10 9 10 20 0 22 31 93 43 98 4 2 7 17 7 33 0 16 4 29 8 29 4 0 16 23 27 50 11
28 23 50 27 50 4 0 8 11 8 25 0 14 3 25 8 25 4 0 16 20 27 45 11 25 23 45 28
45 4 0 7 7 7 15 0 17 48 98 61 103 5 2 9 15 9 28 0 13 3 24 8 24 4 0 16 17 27
38 11 20 22 39 25 42 3 3 14 22 25 43 11 20 23 37 27 37 5 0 8 7 8 15 0 8 5
15 10 15 6 0 10 7 10 15 0 9 11 28 25 43 14 15 25 32 25 39 0 7 4 13 8 13 4 0
16 15 27 33 10 17 27 39 37 48 10 9 18 19 18 23 0 7 10 20 38 51 6 7 12 17 12
20 0 4 20 26 45 51 25 24 45 47 45 52 0 5 27 37 60 72 33 35 60 65 60 67 0 9
50 53 60 53 5 0 10 5 10 11 0 6 6 16 13 23 6 8 21 24 33 37 29 34 72 69 84 69
6 0 10 5 10 10 0 10 44 60 53 60 2 0 32 27 67 60 35 33 67 60 72 60 5 0 28 20
52 45 25 25 47 45 51 45 6 0 19 10 50 38 7 6 17 12 21 12 3 0 14 8 23 18 9 10
31 27 49 37 17 11 32 23 32 27 0 4 6 8 13 8 7 0 24 11 39 25 15 14 34 25 43
25 8 0 15 5 15 10 0 6 7 10 15 10 8 0 15 3 15 8 0 4 17 16 38 27 20 11 39 22
42 25 3 3 22 14 43 25 20 11 37 23 37 27 0 5 11 8 24 8 13 0 26 4 28 9 5 13
86 61 103 61 8 0 15 3 15 8 0 4 20 16 45 27 25 11 45 23 45 27 0 5 11 8 25 8
14 0 25 4 25 8 0 4 23 16 50 27 28 11 50 23 50 27 0 4 13 8 29 8 16 0 31 3 33
8 5 11 76 42 98 42 11 0 20 5 20 10 0 6 11 10 24 10 13 0 26 3 28 8 4 9 100
42 122 42 9 0 16 5 16 10 0 6 15 10 34 10 19 0 36 3 38 8 5 12 103 42 137 42
17 0 31 4 31 9 0 5 17 11 38 14 20 3 64 13 97 22 33 10 86 19 118 22 31 3 57
8 57 13 0 5 26 11 58 14 31 3 107 12 167 21 61 9 188 19 283 22 94 2 172 9
172 14 0 5 29 9 65 9 37 0 65 -4 65 -10z m3678 -211 c2 -5 14 -9 27 -9 25 0
85 -30 85 -42 0 -5 5 -8 11 -8 14 0 39 -25 39 -39 0 -6 3 -11 8 -11 12 0 42
-60 42 -85 0 -13 5 -25 11 -27 14 -5 15 -358 1 -367 -5 -3 -12 -24 -15 -46 -7
-54 -30 -142 -40 -151 -4 -4 -7 -22 -7 -41 0 -18 -4 -33 -10 -33 -5 0 -10 -9
-10 -20 0 -17 -18 -66 -41 -112 -5 -10 -9 -27 -9 -38 0 -11 -4 -20 -10 -20 -5
0 -10 -7 -10 -15 0 -18 -32 -89 -42 -93 -5 -2 -8 -19 -8 -38 0 -19 -4 -34 -10
-34 -5 0 -10 -6 -10 -14 0 -7 -7 -19 -15 -26 -8 -7 -15 -21 -15 -31 0 -11 -4
-19 -10 -19 -5 0 -10 -11 -10 -25 0 -14 -4 -25 -9 -25 -5 0 -12 -11 -15 -25
-4 -16 -13 -25 -26 -25 -11 0 -20 3 -20 8 0 6 -16 27 -60 79 -5 7 -10 15 -10
18 0 4 -6 12 -12 19 -26 27 -58 66 -58 72 0 2 -11 17 -25 32 -14 15 -25 30
-25 34 0 4 -25 32 -55 63 -30 31 -55 61 -55 66 0 5 -7 9 -15 9 -8 0 -15 5 -15
10 0 6 -15 26 -32 45 -87 91 -108 115 -108 120 0 8 -27 35 -35 35 -5 0 -29 21
-120 108 -19 17 -39 32 -45 32 -5 0 -10 7 -10 15 0 8 -4 15 -9 15 -5 0 -35 25
-66 55 -31 30 -59 55 -63 55 -4 0 -19 11 -34 25 -15 14 -30 25 -33 25 -4 0
-12 6 -19 13 -27 25 -66 57 -71 57 -3 0 -11 5 -18 10 -52 44 -73 60 -79 60 -5
0 -8 9 -8 20 0 13 9 22 25 26 14 3 25 10 25 15 0 5 11 9 25 9 14 0 25 5 25 10
0 6 8 10 19 10 10 0 24 7 31 15 7 8 19 15 26 15 8 0 14 5 14 10 0 6 15 10 34
10 19 0 36 3 38 8 4 10 75 42 93 42 8 0 15 5 15 10 0 6 9 10 20 10 11 0 28 4
38 9 46 23 95 41 112 41 11 0 20 5 20 10 0 6 15 10 33 10 19 0 37 3 41 7 10
10 100 34 154 40 23 3 42 9 42 14 0 17 361 15 368 -2z m280 -2842 c2 -20 7
-37 12 -37 4 0 10 -17 13 -37 3 -21 13 -65 22 -98 10 -33 19 -86 22 -117 3
-32 8 -58 13 -58 5 0 11 -26 13 -57 3 -32 13 -105 22 -163 10 -62 19 -190 22
-312 2 -121 8 -208 14 -208 5 0 9 -31 9 -70 0 -38 -4 -70 -9 -70 -5 0 -11 -71
-15 -157 -3 -87 -12 -205 -21 -263 -9 -58 -19 -133 -22 -167 -2 -35 -8 -63
-13 -63 -4 0 -10 -24 -13 -52 -3 -29 -13 -80 -22 -113 -9 -33 -19 -77 -22 -97
-3 -21 -9 -38 -14 -38 -5 0 -9 -14 -9 -31 0 -34 -30 -132 -42 -137 -5 -2 -8
-19 -8 -38 0 -19 -4 -34 -10 -34 -5 0 -10 -7 -10 -16 0 -22 -33 -118 -42 -122
-5 -2 -8 -15 -8 -28 0 -13 -4 -24 -10 -24 -5 0 -10 -9 -10 -20 0 -22 -31 -93
-42 -98 -5 -2 -8 -17 -8 -33 0 -16 -4 -29 -8 -29 -4 0 -16 -22 -27 -50 -11
-27 -23 -50 -27 -50 -4 0 -8 -11 -8 -25 0 -14 -3 -25 -8 -25 -4 0 -16 -20 -27
-45 -11 -25 -23 -45 -27 -45 -5 0 -8 -7 -8 -15 0 -17 -48 -98 -61 -103 -5 -2
-9 -15 -9 -28 0 -13 -3 -24 -8 -24 -4 0 -16 -17 -27 -37 -11 -21 -22 -40 -25
-43 -3 -3 -14 -22 -25 -42 -11 -21 -23 -38 -27 -38 -5 0 -8 -7 -8 -15 0 -8 -4
-15 -10 -15 -5 0 -10 -7 -10 -15 0 -9 -11 -28 -25 -43 -14 -15 -25 -32 -25
-39 0 -7 -4 -13 -8 -13 -4 0 -16 -15 -27 -32 -10 -18 -27 -40 -37 -49 -10 -9
-18 -19 -18 -23 0 -7 -10 -20 -37 -51 -7 -7 -13 -17 -13 -20 0 -4 -20 -26 -45
-51 -25 -24 -45 -47 -45 -52 0 -5 -27 -37 -60 -72 -33 -35 -60 -65 -60 -67 0
-9 -50 -53 -60 -53 -5 0 -10 -5 -10 -11 0 -6 -6 -16 -12 -23 -7 -8 -22 -24
-34 -37 -29 -34 -72 -69 -84 -69 -6 0 -10 -5 -10 -10 0 -10 -44 -60 -53 -60
-2 0 -32 -27 -67 -60 -35 -33 -67 -60 -72 -60 -5 0 -28 -20 -52 -45 -25 -25
-47 -45 -51 -45 -6 0 -19 -10 -50 -38 -7 -6 -17 -12 -21 -12 -3 0 -14 -8 -23
-18 -9 -10 -31 -27 -48 -37 -18 -11 -33 -23 -33 -27 0 -4 -6 -8 -13 -8 -7 0
-24 -11 -39 -25 -15 -14 -34 -25 -43 -25 -8 0 -15 -4 -15 -10 0 -5 -7 -10 -15
-10 -8 0 -15 -3 -15 -8 0 -4 -17 -16 -37 -27 -21 -11 -40 -22 -43 -25 -3 -3
-22 -14 -42 -25 -21 -11 -38 -23 -38 -27 0 -5 -11 -8 -24 -8 -13 0 -26 -4 -28
-9 -5 -13 -86 -61 -103 -61 -8 0 -15 -3 -15 -7 0 -5 -20 -17 -45 -28 -25 -11
-45 -23 -45 -27 0 -5 -11 -8 -25 -8 -14 0 -25 -4 -25 -8 0 -4 -22 -16 -50 -27
-27 -11 -50 -23 -50 -27 0 -4 -13 -8 -29 -8 -16 0 -31 -3 -33 -7 -5 -12 -76
-43 -98 -43 -11 0 -20 -4 -20 -10 0 -5 -11 -10 -24 -10 -13 0 -26 -3 -28 -7
-4 -10 -100 -43 -122 -43 -9 0 -16 -4 -16 -10 0 -5 -15 -10 -34 -10 -19 0 -36
-3 -38 -7 -5 -13 -103 -43 -137 -43 -17 0 -31 -4 -31 -9 0 -5 -17 -11 -37 -14
-21 -3 -65 -13 -98 -22 -33 -9 -84 -19 -112 -22 -29 -3 -53 -9 -53 -13 0 -5
-28 -11 -62 -13 -35 -3 -110 -13 -168 -22 -58 -9 -176 -18 -262 -21 -87 -4
-158 -10 -158 -15 0 -5 -31 -9 -70 -9 -38 0 -70 4 -70 9 0 6 -87 12 -207 14
-123 3 -251 12 -313 22 -58 9 -131 19 -162 22 -32 2 -58 8 -58 13 0 5 -26 10
-57 13 -32 3 -85 12 -118 22 -33 9 -77 19 -97 22 -21 3 -38 9 -38 14 0 5 -15
9 -34 9 -19 0 -38 5 -41 10 -6 9 17 40 29 40 3 0 23 16 43 35 20 19 41 35 46
35 4 0 23 16 41 35 19 19 37 35 40 35 4 0 13 6 20 13 27 25 66 57 72 57 2 0
16 10 29 23 37 34 54 47 61 47 4 0 22 16 41 35 19 19 38 35 44 35 5 0 25 16
43 35 19 19 37 35 41 35 6 0 24 13 60 48 13 12 27 22 30 22 4 0 12 6 19 13 22
20 66 57 69 57 2 0 32 27 68 60 35 33 68 60 72 60 4 0 27 20 51 45 25 25 47
45 50 45 7 0 25 15 96 83 21 20 42 37 45 37 3 0 17 10 30 23 32 30 53 47 58
47 2 0 32 27 67 60 35 33 67 60 70 60 4 0 44 36 89 80 45 44 84 80 86 80 5 0
76 65 156 143 27 26 52 47 55 47 3 0 32 26 64 58 73 71 87 82 100 82 5 0 10 6
10 13 0 7 12 21 27 32 15 11 92 84 172 163 80 78 148 142 152 142 10 0 939
929 939 939 0 4 64 72 143 152 78 80 151 157 162 172 11 15 25 27 32 27 7 0
13 5 13 10 0 13 11 27 83 100 31 32 57 61 57 64 0 3 21 28 48 55 77 80 142
151 142 156 0 2 36 41 80 86 44 45 80 85 80 89 0 3 27 35 60 70 33 35 60 65
60 67 0 5 17 26 48 58 12 13 22 27 22 30 0 3 17 24 38 45 67 71 82 89 82 96 0
3 20 25 45 50 25 24 45 47 45 51 0 4 27 37 60 72 33 36 60 66 60 69 0 2 6 9
13 16 25 27 57 66 57 72 0 2 10 16 23 29 34 36 47 54 47 60 0 4 16 22 35 41
19 18 35 38 35 43 0 6 16 25 35 44 19 19 35 37 35 41 0 7 13 24 48 61 12 13
22 27 22 29 0 6 32 45 58 72 6 7 12 16 12 20 0 3 16 21 35 40 19 18 35 37 35
41 0 5 16 26 35 46 19 20 35 39 35 42 0 12 25 34 35 31 6 -1 11 -19 13 -39z
m-7618 -3644 c0 -7 16 -28 60 -80 5 -7 10 -15 10 -18 0 -5 32 -44 58 -71 6 -7
12 -15 12 -19 0 -3 11 -18 25 -33 14 -15 25 -30 25 -34 0 -4 25 -32 55 -63 30
-31 55 -61 55 -66 0 -5 7 -9 15 -9 8 0 15 -5 15 -10 0 -6 15 -26 33 -45 86
-91 107 -115 107 -120 0 -4 6 -13 14 -21 8 -8 17 -14 21 -14 5 0 29 -21 120
-107 19 -18 39 -33 45 -33 5 0 10 -7 10 -15 0 -8 4 -15 9 -15 5 0 35 -25 66
-55 31 -30 59 -55 63 -55 4 0 19 -11 34 -25 15 -14 30 -25 33 -25 4 0 12 -6
19 -12 27 -26 66 -58 71 -58 3 0 11 -5 18 -10 52 -44 73 -60 80 -60 4 0 7 -9
7 -20 0 -13 -9 -22 -25 -26 -14 -3 -25 -10 -25 -15 0 -5 -11 -9 -25 -9 -14 0
-25 -4 -25 -10 0 -5 -8 -10 -19 -10 -10 0 -24 -7 -31 -15 -7 -8 -19 -15 -26
-15 -8 0 -14 -4 -14 -10 0 -5 -15 -10 -34 -10 -19 0 -36 -3 -38 -7 -4 -11 -75
-43 -93 -43 -8 0 -15 -4 -15 -10 0 -5 -9 -10 -20 -10 -11 0 -28 -4 -38 -9 -46
-23 -95 -41 -112 -41 -11 0 -20 -4 -20 -10 0 -5 -15 -10 -33 -10 -19 0 -37 -3
-41 -7 -9 -10 -97 -33 -151 -40 -22 -3 -43 -10 -46 -15 -9 -14 -362 -13 -367
1 -2 6 -14 11 -27 11 -25 0 -85 30 -85 43 0 4 -5 7 -11 7 -14 0 -39 25 -39 39
0 6 -3 11 -7 11 -13 0 -43 60 -43 85 0 13 -5 25 -11 27 -14 5 -15 358 -1 367
5 3 12 24 15 46 7 54 30 142 40 151 4 4 7 22 7 41 0 18 5 33 10 33 6 0 10 9
10 20 0 17 18 66 41 112 5 10 9 27 9 38 0 11 5 20 10 20 6 0 10 7 10 15 0 18
32 89 43 93 4 2 7 19 7 38 0 19 5 34 10 34 6 0 10 6 10 14 0 7 7 19 15 26 8 7
15 21 15 31 0 11 5 19 10 19 6 0 10 11 10 25 0 14 4 25 9 25 5 0 12 11 15 25
4 16 13 25 26 25 11 0 20 -3 20 -7z"/>
</g>
</svg>
