<?xml version="1.0" standalone="no"?>
<!DOCTYPE svg PUBLIC "-//W3C//DTD SVG 20010904//EN"
 "http://www.w3.org/TR/2001/REC-SVG-20010904/DTD/svg10.dtd">
<svg version="1.0" xmlns="http://www.w3.org/2000/svg"
 width="500.000000pt" height="500.000000pt" viewBox="0 0 500.000000 500.000000"
 preserveAspectRatio="xMidYMid meet">

<g transform="translate(0.000000,500.000000) scale(0.100000,-0.100000)"
fill="#000000" stroke="none">
<path d="M1260 4352 c-39 -38 -39 -38 -34 -108 2 -38 6 -85 8 -104 3 -19 7
-76 11 -126 l6 -90 -58 -49 c-88 -74 -107 -91 -173 -154 -54 -52 -60 -62 -60
-98 0 -62 34 -104 101 -124 31 -10 71 -20 90 -23 19 -3 61 -12 94 -20 33 -9
76 -18 95 -21 19 -3 38 -9 41 -13 4 -4 24 -50 44 -102 20 -52 54 -133 75 -180
20 -47 50 -125 65 -175 84 -274 280 -521 515 -650 38 -21 71 -45 72 -54 2 -9
0 -36 -5 -61 -5 -25 -9 -97 -9 -160 1 -111 0 -116 -26 -143 -21 -22 -27 -38
-27 -74 0 -39 5 -49 36 -77 49 -42 68 -110 44 -155 -48 -93 -69 -293 -45 -420
28 -150 117 -279 226 -327 30 -13 54 -29 54 -36 0 -27 50 -118 86 -158 49 -54
87 -73 149 -73 53 0 85 12 122 45 21 20 21 20 33 -2 21 -40 83 -101 121 -121
24 -12 58 -19 91 -19 97 0 198 80 221 174 12 49 11 160 -2 184 -5 9 -11 33
-14 53 -2 20 -7 42 -11 47 -22 36 -55 351 -37 353 3 0 58 2 122 4 125 3 154
12 201 62 86 91 92 310 13 553 -25 80 -31 105 -41 185 -11 88 -53 239 -83 297
l-29 57 29 6 c97 22 204 124 238 228 20 61 22 173 4 219 -13 31 -14 47 -5 76
13 43 24 127 27 197 3 81 -52 290 -102 389 -149 295 -444 449 -797 416 -200
-19 -344 -80 -471 -201 l-52 -49 -54 63 c-31 34 -58 67 -62 73 -3 6 12 82 34
170 21 87 39 173 39 189 0 66 -63 125 -128 120 -32 -3 -286 -107 -306 -126
-23 -21 -64 -4 -203 81 -127 77 -154 90 -192 90 -37 0 -49 -6 -81 -38z m1810
-459 c93 -30 191 -87 264 -154 141 -129 236 -353 236 -558 0 -70 -14 -178 -24
-188 -2 -3 -18 3 -35 11 -16 9 -38 16 -48 16 -17 0 -18 10 -14 121 4 140 -12
222 -64 335 -87 190 -251 353 -432 430 l-58 24 50 -6 c28 -3 84 -17 125 -31z
m-254 7 c335 -85 586 -394 588 -725 1 -113 -7 -155 -30 -155 -12 0 -14 7 -8
33 4 17 6 70 6 117 -3 323 -254 637 -557 700 -62 13 -207 15 -260 4 -52 -11
-19 8 47 27 83 23 119 23 214 -1z m-67 -135 c77 -18 187 -75 227 -116 l28 -29
-55 17 c-40 13 -89 18 -194 18 -122 0 -149 -3 -210 -24 -90 -31 -166 -69 -246
-123 -94 -64 -90 -63 -79 -34 88 233 294 346 529 291z m-904 -286 c44 -12 80
-40 101 -80 15 -29 67 -239 83 -337 10 -60 9 -67 -16 -115 -43 -86 -109 -179
-171 -240 l-59 -59 -46 74 c-25 40 -57 99 -71 130 -28 64 -70 188 -65 191 2 2
24 9 49 17 36 12 52 26 78 65 19 28 41 50 50 50 14 0 18 14 23 75 4 41 12 88
18 103 13 33 7 47 -20 47 -27 0 -59 35 -59 65 0 22 4 25 33 25 17 0 50 -5 72
-11z m195 -78 c0 -5 -3 -23 -7 -42 -5 -28 -7 -30 -14 -14 -13 34 -10 65 6 65
8 0 15 -4 15 -9z m1131 -260 c45 -45 33 -110 -27 -156 -33 -25 -89 -19 -113
11 -34 43 -28 89 18 135 48 48 81 51 122 10z m352 -210 l32 -32 -28 10 c-78
29 -156 0 -240 -88 -68 -73 -91 -129 -85 -211 l4 -60 -18 27 c-28 44 -31 100
-9 176 24 83 72 146 144 188 45 26 60 29 110 26 50 -3 63 -8 90 -36z m-1417
-116 c98 -201 270 -344 490 -407 65 -19 103 -22 219 -22 83 0 158 5 185 12 25
7 53 16 63 18 37 11 217 -200 307 -358 l32 -58 -44 0 c-44 0 -142 -25 -208
-52 -50 -21 -63 -17 -73 21 -10 41 -72 141 -88 141 -5 0 -8 -8 -6 -17 3 -10
11 -43 17 -73 6 -30 18 -71 25 -92 12 -32 12 -37 -1 -42 -20 -8 -128 -8 -175
0 -33 6 -37 10 -43 43 -5 34 -29 66 -65 86 -17 10 -467 36 -489 28 -9 -3 -28
-15 -41 -27 l-24 -21 7 89 c17 228 19 326 8 326 -7 0 -15 -12 -18 -27 -10 -43
-13 -44 -57 -22 -84 43 -221 151 -275 218 l-30 37 75 89 c41 50 93 121 116
159 38 65 42 67 50 45 5 -13 25 -55 43 -94z m882 76 c18 -11 12 -41 -10 -55
-14 -8 -22 -7 -35 6 -16 16 -16 19 2 38 20 22 24 23 43 11z m547 -46 c21 -20
25 -34 25 -80 0 -172 -217 -330 -291 -212 -66 105 67 317 198 317 33 0 50 -6
68 -25z m-450 -242 c-33 -26 -138 -71 -201 -86 -93 -24 -173 -29 -249 -17 -74
12 -201 52 -218 69 -6 6 23 -2 64 -16 60 -21 98 -27 200 -31 148 -5 248 15
352 71 62 33 89 39 52 10z m24 -105 c-55 -24 -142 -46 -209 -52 l-55 -6 60 15
c33 9 96 33 140 54 71 33 81 36 92 22 10 -14 6 -19 -28 -33z m125 -60 c75 -21
97 -55 135 -210 28 -117 27 -121 -18 -51 -21 33 -64 90 -95 126 -31 37 -56 69
-56 73 0 3 11 3 25 0 14 -4 25 -2 25 4 0 5 -7 10 -15 10 -8 0 -15 5 -15 10 0
6 -11 10 -24 10 -25 0 -51 22 -39 33 9 10 30 9 77 -5z m-914 -506 c0 -71 3
-83 30 -123 25 -37 30 -54 30 -104 l0 -60 -70 3 c-60 3 -72 7 -89 28 -18 23
-19 36 -14 132 8 168 22 199 91 201 21 1 22 -3 22 -77z m312 47 c27 -14 31
-44 23 -177 -7 -115 -9 -127 -32 -150 -22 -22 -30 -24 -76 -18 -29 3 -71 6
-94 6 l-42 0 1 69 c2 60 -1 73 -23 102 -36 47 -42 72 -34 136 l7 56 126 -8
c70 -4 134 -11 144 -16z m117 -25 c29 -37 26 -55 -14 -81 l-35 -22 0 49 c0 26
-3 55 -6 64 -10 27 32 19 55 -10z m669 -6 c19 -25 60 -174 72 -267 19 -148 1
-238 -60 -296 -31 -30 -33 -30 -150 -32 -156 -3 -150 -11 -150 198 0 98 -6
187 -15 236 -8 43 -15 82 -15 86 0 9 44 29 140 63 71 26 162 31 178 12z
m-1253 -135 c-6 -33 -7 -34 -20 -17 -19 25 -18 44 3 67 15 17 17 18 20 2 2 -9
1 -33 -3 -52z m894 21 c2 -2 6 -26 9 -54 l5 -50 -125 0 c-166 0 -186 5 -206
46 -14 31 -14 35 2 53 17 19 27 20 165 14 80 -3 148 -7 150 -9z m-319 -146
c11 -3 8 -11 -12 -31 -46 -46 -53 -35 -31 46 4 16 6 16 16 4 7 -8 19 -17 27
-19z m340 -50 c0 -24 2 -129 5 -234 4 -153 2 -194 -9 -203 -7 -6 -49 -20 -92
-31 -89 -23 -260 -29 -308 -11 l-29 11 7 73 c4 39 10 82 12 93 5 19 0 22 -58
28 -116 13 -197 41 -256 87 -33 26 -77 89 -86 123 l-7 29 93 -6 c51 -4 157
-10 235 -13 l142 -7 36 36 c19 19 35 42 35 51 0 14 18 16 140 16 l140 0 0 -42z
m-836 -132 c55 -94 156 -155 294 -178 l62 -11 0 -61 0 -62 -70 -27 c-107 -42
-202 -54 -270 -34 -96 28 -95 26 -95 179 0 103 4 145 18 186 10 28 22 52 27
52 4 0 20 -20 34 -44z m863 -428 c6 -40 23 -125 38 -188 35 -147 32 -221 -9
-275 -49 -64 -136 -91 -196 -60 -32 16 -109 104 -133 151 l-16 30 62 1 c34 0
78 7 97 16 l35 15 -65 -5 c-111 -9 -161 29 -218 162 -20 50 -49 181 -41 189 2
2 33 0 69 -6 70 -9 210 4 284 27 79 25 81 24 93 -57z m-507 58 c0 -2 7 -42 15
-90 16 -93 50 -187 84 -235 12 -16 28 -47 35 -69 14 -39 14 -41 -13 -66 -38
-37 -79 -47 -125 -31 -51 18 -83 49 -117 118 l-29 57 52 0 c29 1 66 6 81 13
26 11 24 12 -35 12 -81 1 -190 42 -250 95 -38 33 -117 155 -106 165 1 2 30 -4
62 -12 72 -18 151 -11 251 22 69 23 95 29 95 21z"/>
<path d="M2468 1899 c-25 -14 -39 -73 -26 -110 12 -35 35 -49 82 -49 48 0 65
8 81 41 21 39 19 72 -6 103 -17 22 -28 26 -67 26 -26 0 -55 -5 -64 -11z m64
-26 c27 -24 23 -61 -6 -69 -57 -14 -82 18 -50 64 18 26 31 28 56 5z"/>
</g>
</svg>
