<?xml version="1.0" standalone="no"?>
<!DOCTYPE svg PUBLIC "-//W3C//DTD SVG 20010904//EN"
 "http://www.w3.org/TR/2001/REC-SVG-20010904/DTD/svg10.dtd">
<svg version="1.0" xmlns="http://www.w3.org/2000/svg"
 width="200.000000pt" height="200.000000pt" viewBox="0 0 500.000000 500.000000"
 preserveAspectRatio="xMidYMid meet">

<g transform="translate(0.000000,500.000000) scale(0.100000,-0.100000)"
fill="#ffffff" stroke="none">
<path d="M4262 4581 c-7 -4 -24 -52 -39 -107 -14 -54 -30 -104 -34 -110 -5 -6
-54 -21 -110 -34 -147 -33 -148 -65 -3 -96 48 -9 95 -25 105 -33 11 -10 28
-54 42 -110 23 -94 44 -128 67 -105 6 6 22 53 36 105 14 53 33 101 43 110 11
8 57 24 105 33 143 30 139 64 -10 97 -48 11 -93 24 -100 30 -7 5 -22 51 -34
102 -23 95 -45 133 -68 118z"/>
<path d="M2260 4416 c-291 -42 -609 -167 -823 -323 l-48 -36 -82 17 c-526 103
-915 59 -1100 -125 -34 -34 -69 -82 -85 -116 -25 -53 -27 -68 -27 -183 0 -111
3 -134 29 -210 67 -199 209 -421 417 -651 l78 -86 4 -199 c6 -256 35 -419 115
-634 238 -640 796 -1100 1482 -1222 48 -8 157 -13 305 -13 195 0 248 4 346 23
234 44 502 152 696 281 l93 62 102 -20 c206 -38 283 -46 478 -45 163 0 211 4
290 22 334 76 482 289 410 588 -50 210 -197 456 -431 721 l-84 95 -1 171 c-2
195 -19 327 -64 489 -94 337 -253 611 -495 853 -278 279 -618 456 -1016 531
-116 22 -463 28 -589 10z m540 -81 c541 -89 992 -390 1281 -855 319 -514 355
-1176 93 -1730 -63 -131 -91 -178 -188 -310 -68 -94 -247 -282 -316 -333 l-35
-26 -95 25 c-938 246 -1977 816 -2690 1476 l-135 125 2 68 c5 138 75 371 170
565 134 272 345 517 598 692 260 181 594 298 915 322 96 7 301 -3 400 -19z
m-1632 -313 c68 -11 126 -22 128 -25 3 -3 -18 -27 -47 -53 -319 -299 -522
-657 -595 -1054 -9 -49 -18 -90 -20 -90 -16 0 -204 234 -277 345 -76 116 -120
203 -159 318 -27 78 -32 107 -32 187 0 119 23 177 98 248 77 73 182 117 341
143 87 14 428 2 563 -19z m-369 -1495 c629 -606 1755 -1234 2631 -1468 63 -17
116 -33 118 -34 7 -7 -96 -70 -201 -124 -703 -358 -1553 -222 -2116 340 -329
329 -511 748 -537 1242 -6 101 -4 127 6 127 7 0 52 -37 99 -83z m3756 -432
c102 -126 179 -243 235 -360 70 -144 84 -201 85 -325 0 -95 -3 -110 -28 -162
-35 -71 -90 -120 -183 -164 -126 -59 -191 -69 -444 -68 -209 0 -301 9 -452 40
-26 5 -23 9 85 117 171 170 287 331 385 536 63 132 124 314 147 438 9 49 19
95 22 103 5 17 24 -3 148 -155z"/>
<path d="M2450 3662 c0 -11 16 -51 35 -89 52 -105 152 -195 286 -260 157 -76
349 -138 362 -116 3 5 -38 39 -91 75 -134 92 -378 260 -494 341 -80 56 -98 65
-98 49z"/>
<path d="M2322 3593 c-133 -111 -378 -212 -567 -235 -26 -3 -22 -6 35 -25 183
-59 333 -28 453 92 47 47 136 189 125 200 -2 2 -23 -12 -46 -32z"/>
<path d="M2335 3425 c-88 -69 -196 -133 -261 -156 -63 -22 -152 -29 -225 -16
l-47 8 -12 -87 c-15 -106 -8 -285 15 -369 33 -123 107 -237 183 -286 110 -69
222 -58 317 32 29 27 63 70 76 94 13 25 26 45 29 45 3 -1 16 -24 30 -52 63
-130 219 -248 326 -248 63 0 156 44 205 96 103 110 146 236 153 454 l5 125
-10 -100 c-25 -267 -135 -468 -286 -525 -179 -67 -371 95 -444 375 -26 101
-36 293 -20 395 14 88 41 180 53 180 5 0 24 -11 41 -24 42 -31 158 -89 222
-110 68 -22 408 -106 413 -102 2 2 -88 34 -200 71 -229 75 -357 133 -438 200
-30 25 -57 45 -61 45 -3 0 -32 -20 -64 -45z m36 -22 c-68 -173 -67 -421 1
-619 l21 -61 -29 -58 c-59 -117 -136 -175 -231 -175 -67 1 -120 28 -179 92
-55 61 -104 169 -123 272 -12 65 -13 235 -3 306 l7 44 85 2 c138 2 244 51 390
178 41 36 76 65 77 66 2 0 -6 -21 -16 -47z"/>
<path d="M2227 3062 c-37 -41 -29 -134 13 -147 59 -19 94 81 49 139 -24 31
-40 33 -62 8z m60 -46 c-10 -25 -37 -19 -37 7 0 13 3 27 7 31 11 11 36 -21 30
-38z"/>
<path d="M3112 3110 c0 -19 2 -27 5 -17 2 9 2 25 0 35 -3 9 -5 1 -5 -18z"/>
<path d="M2424 3105 c-53 -37 -60 -164 -11 -212 35 -35 80 -35 114 0 51 50 40
186 -16 217 -28 14 -63 12 -87 -5z m93 -31 c15 -23 15 -29 2 -52 -18 -32 -33
-37 -53 -17 -21 21 -20 53 1 77 22 24 29 23 50 -8z"/>
<path d="M2375 2255 c-101 -22 -245 -97 -358 -186 -67 -53 -157 -162 -157
-189 0 -21 4 -19 48 21 196 180 362 264 557 284 133 14 323 -66 498 -208 l47
-39 0 35 c0 28 -9 42 -52 83 -185 173 -388 242 -583 199z"/>
<path d="M3261 1608 c-64 -23 -70 -103 -11 -133 36 -19 83 -4 99 31 15 35 14
47 -9 76 -23 30 -47 38 -79 26z"/>
<path d="M645 1285 c-14 -13 -25 -36 -25 -50 0 -14 11 -37 25 -50 13 -14 36
-25 50 -25 33 0 75 42 75 75 0 14 -11 37 -25 50 -13 14 -36 25 -50 25 -14 0
-37 -11 -50 -25z"/>
<path d="M3754 761 c-79 -36 -110 -142 -64 -217 28 -44 99 -78 148 -70 76 12
127 73 127 151 0 113 -109 184 -211 136z"/>
</g>
</svg>
