<?xml version="1.0" standalone="no"?>
<!DOCTYPE svg PUBLIC "-//W3C//DTD SVG 20010904//EN"
 "http://www.w3.org/TR/2001/REC-SVG-20010904/DTD/svg10.dtd">
<svg version="1.0" xmlns="http://www.w3.org/2000/svg"
 width="50.000000pt" height="60.000000pt" viewBox="0 0 1669.000000 1700.000000"
 preserveAspectRatio="xMidYMid meet">

<g transform="translate(0.000000,1700.000000) scale(0.100000,-0.100000)"
fill="#ffffff" stroke="none">
<path d="M9162 16130 c-20 -12 -40 -38 -53 -67 -12 -27 -37 -79 -55 -118 -40
-81 -41 -92 -14 -145 14 -28 20 -59 20 -106 l0 -66 -32 5 c-18 3 -147 18 -285
33 l-253 28 0 147 c0 175 -2 179 -101 203 -186 44 -339 56 -393 31 -57 -27
-70 -64 -76 -205 l-5 -125 -275 -6 c-1162 -28 -1997 -382 -2343 -994 -117
-207 -152 -353 -144 -605 5 -187 24 -276 82 -394 61 -123 109 -173 337 -350
194 -150 218 -172 265 -243 29 -43 66 -117 83 -165 18 -48 44 -105 60 -126
l28 -39 -361 144 c-314 125 -365 148 -387 176 -140 182 -282 217 -398 97 -48
-51 -94 -133 -118 -215 -26 -86 -23 -267 5 -405 56 -267 259 -755 323 -776 28
-9 90 27 111 64 12 21 20 54 21 92 0 33 3 60 5 60 2 0 35 -20 75 -44 80 -50
142 -70 183 -60 67 16 119 79 148 178 l17 56 70 -65 c180 -166 383 -256 583
-257 182 -1 335 68 504 227 102 97 150 202 131 290 -5 22 -29 98 -55 170 -94
263 -130 449 -129 670 0 252 41 374 168 501 232 231 620 314 999 212 69 -18
77 -23 77 -44 0 -29 10 -39 131 -137 52 -42 154 -142 228 -224 74 -81 209
-222 300 -313 204 -204 340 -299 491 -343 10 -3 22 -41 39 -123 32 -160 84
-330 127 -417 88 -176 175 -228 399 -242 50 -4 104 -2 120 3 23 7 41 3 80 -14
28 -12 82 -25 122 -29 l72 -6 3 42 3 42 70 24 c94 31 129 68 122 129 -5 50
-48 126 -121 217 -33 39 -43 58 -30 53 45 -17 120 -28 166 -24 116 12 140 117
49 220 l-31 36 62 4 c53 4 65 9 89 36 40 44 39 99 -1 168 -32 57 -95 108 -229
189 -62 38 -78 51 -62 53 27 4 131 -26 151 -43 33 -30 152 -77 233 -92 80 -16
87 -15 111 0 35 24 33 52 -10 134 -46 86 -80 135 -138 200 -36 40 -43 53 -33
61 7 6 19 35 26 64 18 70 50 137 70 147 9 4 59 14 111 21 188 25 323 74 387
142 17 18 46 62 65 98 29 58 33 74 33 145 -1 71 -5 89 -37 156 -24 52 -43 79
-58 84 l-22 7 22 23 c20 21 21 25 6 52 -8 16 -33 46 -56 67 -37 33 -47 53 -90
179 -27 78 -70 207 -95 287 -56 176 -102 255 -227 386 l-90 94 20 32 c31 50
54 154 54 240 1 97 -14 122 -76 136 -24 5 -106 45 -183 90 -112 65 -148 81
-193 86 -30 3 -100 20 -155 37 -112 34 -167 33 -260 -2 l-49 -19 -56 26 c-81
38 -101 43 -257 59 -180 19 -181 19 -221 -5z m253 -81 c90 -8 124 -17 186 -45
84 -38 110 -41 152 -19 15 8 54 19 85 25 51 9 67 7 157 -20 55 -17 123 -33
151 -36 30 -4 72 -19 100 -35 l49 -29 -70 6 c-38 3 -98 15 -132 26 -81 27
-282 24 -310 -5 -24 -24 -8 -37 92 -73 95 -35 164 -36 355 -10 l126 18 68 -36
c37 -20 76 -36 87 -36 14 0 19 -7 19 -28 0 -50 -27 -63 -152 -73 -95 -8 -132
-6 -233 11 -66 10 -181 24 -255 30 -74 6 -165 13 -202 17 -68 6 -68 6 -68 -20
0 -13 9 -35 19 -48 18 -23 25 -24 153 -25 116 0 149 -5 258 -33 120 -31 130
-33 280 -29 85 2 163 8 172 12 16 7 17 5 6 -25 -6 -19 -22 -50 -35 -69 -12
-19 -23 -44 -23 -55 0 -13 37 -59 94 -117 117 -120 186 -224 217 -326 13 -42
55 -173 94 -290 51 -153 66 -211 55 -207 -57 23 -154 36 -226 33 -126 -7 -146
-22 -398 -308 -84 -95 -170 -166 -221 -184 -54 -19 -401 -86 -444 -86 -44 0
-81 33 -81 73 0 36 32 65 142 127 45 26 91 58 101 72 42 56 78 237 57 287 -18
44 -41 55 -217 105 -217 62 -271 74 -388 85 -55 5 -119 17 -142 27 -47 19 -54
35 -74 191 -14 115 -6 194 26 231 31 37 126 87 201 107 82 21 97 42 92 126 -3
62 -8 73 -99 225 -53 87 -106 178 -118 202 l-21 42 35 67 c19 36 35 71 35 78
0 7 10 25 21 39 20 25 26 27 68 22 25 -3 96 -11 156 -17z m-1118 -70 l112 -21
-5 -362 c-2 -198 -6 -610 -8 -914 l-5 -553 72 -46 c285 -183 739 -441 893
-508 170 -73 287 -82 479 -35 277 66 442 33 594 -119 61 -60 150 -182 167
-226 7 -16 3 -17 -32 -11 -60 12 -141 42 -170 65 -40 31 -126 60 -227 75 -123
19 -277 29 -277 18 0 -12 135 -112 258 -191 208 -132 272 -191 272 -247 0 -32
-33 -39 -117 -24 -54 9 -207 54 -260 76 -6 3 -16 -3 -22 -14 -9 -16 0 -25 62
-69 40 -27 102 -75 139 -106 153 -130 133 -188 -47 -138 -79 22 -233 85 -339
138 l-71 35 170 -173 c174 -177 279 -313 273 -353 -4 -24 -89 -60 -120 -50
-33 10 -203 181 -334 335 -102 120 -129 147 -140 138 -8 -6 -14 -15 -14 -19 0
-4 25 -51 56 -105 84 -146 98 -192 84 -277 -7 -37 -15 -70 -19 -73 -12 -7
-163 117 -213 176 -126 147 -157 237 -168 482 -11 220 -17 238 -106 282 -34
17 -311 190 -617 384 l-557 355 0 42 c0 23 -11 417 -25 875 -14 459 -27 906
-28 995 -3 201 -3 199 103 191 41 -4 125 -16 187 -28z m-477 -361 c0 -7 27
-362 60 -788 32 -426 58 -775 57 -776 -1 -1 -42 7 -92 19 -135 30 -396 29
-520 -1 -115 -29 -179 -53 -285 -107 -257 -133 -385 -320 -420 -611 -26 -217
28 -549 140 -854 30 -81 38 -114 31 -128 -5 -10 -50 -55 -99 -100 -78 -71 -99
-85 -165 -107 -97 -32 -140 -32 -281 5 l-116 30 -209 139 c-115 77 -211 144
-212 150 -2 6 -35 42 -74 82 -73 75 -157 129 -267 175 -60 24 -70 26 -98 14
-31 -13 -60 -54 -60 -86 0 -10 28 -69 63 -132 52 -97 71 -121 120 -159 109
-85 141 -173 95 -263 -35 -68 -52 -66 -198 26 -74 46 -119 47 -166 0 -28 -28
-34 -42 -34 -78 l-1 -43 -34 67 c-72 140 -157 381 -190 538 -22 104 -30 263
-16 335 6 33 23 84 38 113 29 58 93 122 121 122 34 0 107 -57 152 -119 l45
-62 529 -210 c384 -153 536 -209 553 -204 58 14 91 84 63 134 -5 10 -56 48
-112 84 -111 71 -152 116 -206 222 -44 88 -187 321 -234 383 -49 62 -109 117
-185 168 -161 106 -297 433 -319 764 -5 76 -3 93 20 153 225 586 855 956 1837
1077 294 36 669 52 669 28z m955 -38 c147 -16 272 -30 280 -30 8 0 15 -20 19
-52 8 -56 37 -131 62 -159 14 -16 10 -20 -45 -49 -122 -65 -161 -132 -161
-275 0 -45 -9 -101 -24 -155 -45 -156 -50 -199 -33 -281 19 -89 30 -121 50
-137 9 -7 79 -15 188 -21 145 -8 204 -16 358 -50 166 -38 185 -40 201 -26 21
19 70 20 70 1 0 -48 -22 -72 -122 -131 -105 -62 -164 -121 -196 -195 -24 -54
-22 -205 2 -254 28 -56 56 -64 221 -61 160 3 211 17 315 87 61 41 110 105 110
145 0 15 13 28 46 44 74 36 153 107 303 278 156 176 190 201 280 201 66 0 177
-25 261 -59 l65 -26 -50 -7 c-27 -3 -93 -7 -146 -7 -183 -2 -281 -53 -373
-194 -58 -89 -170 -204 -307 -314 -77 -63 -109 -79 -312 -166 -124 -53 -235
-97 -247 -97 -114 0 -400 142 -902 448 l-208 127 0 610 c0 603 6 835 21 835 4
0 127 -13 274 -30z m2302 -1347 c15 -31 28 -79 31 -107 4 -43 3 -48 -12 -43
-101 39 -167 52 -266 52 -101 0 -107 -1 -165 -34 -33 -19 -126 -78 -206 -132
-81 -55 -149 -99 -153 -99 -3 0 34 39 82 88 48 48 109 121 135 163 47 75 90
115 152 140 25 10 135 19 333 27 l43 2 26 -57z m-703 -558 c106 -141 113 -182
22 -120 -113 75 -257 114 -380 101 l-61 -6 80 36 c44 19 118 48 165 64 99 34
90 38 174 -75z"/>
<path d="M9270 16001 l-35 -6 81 -47 c90 -52 150 -71 277 -88 91 -13 117 -10
117 13 0 21 -80 76 -119 83 -20 3 -71 16 -114 30 -76 23 -136 28 -207 15z"/>
<path d="M9905 15540 c-16 -4 -66 -8 -110 -9 -82 -1 -303 -48 -288 -61 4 -4
184 -26 398 -49 215 -23 400 -44 412 -46 32 -7 48 26 31 62 -29 60 -187 114
-329 112 -46 -1 -97 -5 -114 -9z"/>
<path d="M9789 15361 c-5 -31 -2 -36 21 -41 14 -3 -11 -6 -55 -6 -132 0 -210
-53 -256 -175 -32 -83 -36 -167 -11 -216 80 -157 431 -289 962 -363 158 -22
194 -21 204 6 7 18 -2 26 -124 117 -106 79 -150 134 -150 188 0 45 32 115 80
174 92 113 111 176 69 229 -20 26 -146 102 -155 94 -2 -3 4 -16 14 -29 35 -45
52 -88 52 -133 0 -43 -5 -51 -75 -127 -77 -84 -115 -147 -115 -191 0 -29 47
-124 87 -176 14 -18 23 -35 20 -38 -7 -7 -215 84 -278 121 -75 46 -97 71 -81
93 59 80 63 151 19 262 -33 80 -8 60 37 -30 19 -39 39 -100 47 -142 l12 -73
20 45 c28 62 33 144 12 215 -21 74 -96 153 -170 179 -64 22 -184 33 -186 17z
m74 -272 c55 -59 23 -145 -59 -156 -75 -10 -129 63 -98 135 15 37 65 65 104
56 14 -2 37 -18 53 -35z"/>
<path d="M7204 15415 c-7 -42 -2 -66 37 -163 20 -51 32 -103 38 -171 9 -101
75 -396 94 -418 16 -21 55 -15 72 10 14 21 13 41 -10 213 -29 225 -31 231 -57
314 -37 115 -97 213 -149 240 -15 9 -19 5 -25 -25z"/>
<path d="M6757 15389 c-23 -13 -22 -58 3 -139 37 -118 78 -293 95 -399 25
-160 68 -239 142 -257 62 -16 66 60 18 296 -50 247 -96 367 -172 451 -45 50
-64 60 -86 48z"/>
<path d="M6277 15297 c-16 -11 -6 -50 139 -517 86 -278 158 -507 160 -509 2
-2 90 13 196 33 282 52 385 66 505 66 168 1 232 12 325 59 47 24 95 41 115 41
45 0 86 22 117 63 15 19 26 36 26 39 0 3 -33 9 -72 13 -40 4 -93 13 -117 21
-47 16 -146 9 -326 -21 -44 -7 -106 -16 -139 -20 -48 -6 -64 -12 -86 -37 l-28
-30 -104 8 c-111 8 -110 8 -212 -11 l-68 -13 -203 414 c-112 228 -205 414
-207 414 -3 0 -12 -6 -21 -13z"/>
<path d="M8780 15705 c218 -27 248 -29 235 -16 -6 4 -68 13 -140 20 -250 21
-288 20 -95 -4z"/>
<path d="M5890 15414 c-1637 -499 -3070 -1531 -4062 -2927 -739 -1038 -1204
-2225 -1368 -3487 -70 -543 -79 -1207 -24 -1765 202 -2055 1240 -3959 2864
-5260 1169 -936 2566 -1509 4050 -1659 530 -54 1216 -46 1740 20 1257 158
2440 614 3480 1345 1681 1179 2834 2992 3180 4999 36 208 74 506 92 720 20
242 17 1055 -5 1285 -48 483 -121 897 -233 1319 -447 1676 -1459 3166 -2857
4207 -570 425 -1194 770 -1842 1019 -82 32 -151 57 -153 55 -2 -2 12 -25 31
-52 53 -73 70 -113 130 -304 l56 -175 78 -34 c1614 -699 2963 -2013 3712
-3616 855 -1830 916 -3926 169 -5798 -839 -2100 -2617 -3710 -4787 -4331
-1426 -408 -2963 -370 -4360 107 -936 319 -1788 819 -2526 1480 -171 153 -494
480 -636 643 -867 997 -1448 2197 -1684 3478 -141 773 -159 1576 -49 2347 292
2067 1451 3903 3205 5077 266 179 680 410 963 540 145 67 149 69 188 126 74
109 256 314 346 390 112 93 185 143 327 224 61 35 106 63 100 62 -5 0 -62 -16
-125 -35z"/>
<path d="M10500 12795 c-12 -13 -38 -29 -56 -35 l-32 -11 20 -46 c35 -79 10
-158 -61 -195 l-33 -16 44 -24 c384 -215 587 -351 858 -577 138 -115 434 -407
552 -546 614 -720 991 -1541 1128 -2455 40 -270 53 -483 47 -805 -9 -513 -78
-937 -227 -1400 -148 -457 -395 -950 -662 -1322 -472 -658 -1062 -1164 -1773
-1523 -595 -301 -1168 -460 -1835 -511 -220 -16 -697 -6 -910 20 -676 83
-1262 276 -1850 609 -643 364 -1235 920 -1645 1547 -679 1036 -936 2263 -730
3482 144 852 510 1639 1074 2313 103 123 379 405 500 513 l75 65 -66 139 c-36
76 -71 154 -78 173 -7 19 -16 38 -20 43 -18 21 -431 -365 -619 -579 -508 -578
-900 -1286 -1111 -2004 -212 -723 -263 -1501 -150 -2269 196 -1327 924 -2556
2000 -3375 1209 -921 2733 -1270 4230 -969 199 40 378 89 615 167 788 263
1456 677 2037 1263 742 748 1217 1625 1427 2636 135 647 145 1298 30 1977
-117 696 -392 1385 -794 1990 -399 600 -900 1096 -1507 1494 -185 120 -420
256 -446 256 -5 0 -19 -11 -32 -25z"/>
<path d="M7258 11699 c-249 -9 -374 -25 -497 -64 -285 -90 -500 -258 -673
-525 -159 -245 -221 -451 -222 -735 0 -282 60 -500 196 -705 161 -245 388
-423 698 -544 94 -38 170 -73 170 -80 0 -2 -47 -96 -104 -207 -57 -112 -319
-625 -581 -1139 -263 -514 -555 -1086 -651 -1270 -100 -194 -186 -374 -203
-425 -78 -235 -62 -483 44 -700 98 -201 249 -328 475 -400 75 -24 110 -28 305
-37 288 -14 3720 -13 4075 0 239 9 274 13 353 36 336 100 565 369 607 714 14
114 1 240 -37 356 -21 62 -223 423 -875 1565 -466 816 -848 1489 -848 1495 0
7 66 36 148 65 255 92 408 180 555 320 189 179 318 421 374 698 22 110 24 411
4 523 -37 206 -158 450 -308 622 -190 218 -516 391 -807 429 -104 13 -1890 20
-2198 8z m2112 -219 c183 -23 344 -77 488 -166 109 -67 301 -263 366 -372 54
-91 110 -232 132 -331 24 -109 29 -292 10 -401 -82 -476 -418 -825 -885 -920
-96 -19 -135 -20 -1249 -20 -1231 0 -1226 0 -1382 50 -80 26 -217 94 -296 146
-90 60 -219 189 -281 282 -70 105 -123 226 -159 367 -26 100 -29 125 -28 270
1 131 5 174 22 238 58 210 148 370 292 518 184 188 417 304 676 338 100 12
2190 13 2294 1z m-1252 -2453 c-3 -13 -368 -716 -812 -1562 -443 -846 -804
-1545 -802 -1552 4 -11 324 -13 1762 -13 l1756 0 -4 23 c-4 19 -480 865 -1616
2870 -88 156 -131 242 -125 248 6 6 158 9 414 7 l404 -3 61 -28 c124 -57 80
14 1149 -1887 274 -487 526 -930 560 -985 124 -198 165 -312 165 -454 -1 -268
-184 -500 -455 -576 -97 -27 -856 -36 -2690 -32 -1662 4 -1744 6 -1880 42
-222 59 -391 227 -434 433 -15 73 -14 203 4 284 21 101 49 162 207 455 194
357 360 680 753 1458 342 679 535 1052 591 1145 42 70 91 118 140 135 31 11
126 14 448 15 l408 0 -4 -23z m814 -1607 c382 -679 702 -1249 711 -1266 16
-31 16 -32 -6 -38 -12 -3 -642 -6 -1400 -6 -1519 0 -1410 -5 -1369 62 11 18
295 555 632 1193 787 1492 698 1331 720 1309 10 -11 330 -575 712 -1254z"/>
<path d="M7130 11209 c-291 -30 -513 -192 -645 -472 -55 -115 -77 -214 -77
-347 -1 -132 16 -221 62 -336 89 -223 236 -375 439 -453 146 -56 180 -59 966
-66 802 -7 1383 4 1505 30 340 69 533 237 627 542 25 81 27 102 27 263 1 188
-9 249 -61 374 -105 253 -352 433 -639 466 -109 12 -2080 11 -2204 -1z m2233
-222 c242 -58 417 -242 463 -487 63 -332 -120 -629 -441 -715 -90 -25 -418
-34 -1180 -34 -749 0 -1027 8 -1124 34 -110 28 -198 80 -281 164 -87 87 -132
165 -160 277 -38 149 -23 290 47 434 68 141 234 280 381 320 94 25 236 28
1212 26 897 -2 1023 -5 1083 -19z"/>
<path d="M7591 10879 c-79 -32 -121 -96 -121 -187 0 -85 30 -138 101 -175 105
-56 212 -20 264 88 24 47 27 64 22 108 -12 101 -95 177 -192 176 -27 0 -61 -5
-74 -10z"/>
<path d="M8705 10875 c-120 -61 -149 -231 -54 -326 63 -63 172 -77 238 -30 62
45 85 87 89 165 3 65 1 75 -26 117 -51 79 -168 114 -247 74z"/>
<path d="M7585 10291 c-43 -19 -90 -68 -107 -110 -17 -43 -12 -125 10 -167 39
-76 98 -108 188 -102 76 5 126 38 162 108 52 102 1 228 -110 274 -49 21 -94
20 -143 -3z"/>
<path d="M8702 10284 c-72 -36 -107 -95 -106 -179 1 -66 17 -106 61 -147 37
-35 73 -48 134 -48 109 0 189 82 189 192 0 92 -43 159 -122 193 -53 22 -97 19
-156 -11z"/>
</g>
</svg>
