<?xml version="1.0" standalone="no"?>
<!DOCTYPE svg PUBLIC "-//W3C//DTD SVG 20010904//EN"
 "http://www.w3.org/TR/2001/REC-SVG-20010904/DTD/svg10.dtd">
<svg version="1.0" xmlns="http://www.w3.org/2000/svg"
 width="50.000000pt" height="50.000000pt" viewBox="0 0 300.000000 300.000000"
 preserveAspectRatio="xMidYMid meet">

<g transform="translate(0.000000,300.000000) scale(0.100000,-0.100000)"
fill="#FFFFFF" stroke="none">
<path d="M1350 2863 c-24 -3 -49 -8 -55 -13 -5 -4 -33 -11 -61 -15 l-51 -7 15
-61 c8 -34 19 -65 24 -68 5 -3 8 -10 7 -15 0 -5 2 -19 6 -31 6 -18 12 -21 43
-16 21 3 41 10 47 14 5 5 27 9 50 9 85 0 85 1 85 105 0 97 -5 108 -48 103 -9
-1 -37 -3 -62 -5z"/>
<path d="M1560 2773 l0 -100 73 -8 c39 -3 77 -10 82 -14 6 -5 20 -11 33 -14
26 -6 35 10 53 95 6 26 15 48 20 48 4 0 6 7 3 15 -4 8 -1 15 6 15 25 0 -2 18
-37 25 -21 4 -43 11 -50 16 -6 6 -50 13 -97 16 l-86 6 0 -100z"/>
<path d="M1060 2802 c-19 -3 -203 -85 -218 -97 -6 -5 50 -95 59 -95 6 0 7 -5
4 -10 -3 -6 1 -13 9 -16 9 -3 16 -11 16 -18 0 -6 4 -17 9 -24 7 -11 17 -9 50
12 22 15 66 34 97 43 l56 18 -7 45 c-6 41 -12 59 -41 125 -6 14 -16 19 -34 17z"/>
<path d="M1943 2771 c-12 -27 -43 -142 -43 -158 0 -6 19 -16 43 -23 23 -8 44
-17 47 -20 3 -3 27 -15 54 -28 l50 -24 17 24 c45 59 79 126 73 142 -6 17 -147
90 -203 106 -23 6 -29 4 -38 -19z"/>
<path d="M653 2591 c-43 -32 -88 -70 -101 -83 l-23 -25 68 -66 c37 -37 71 -67
76 -67 5 0 25 16 44 35 19 19 37 35 40 35 2 0 21 12 41 27 20 15 39 28 41 30
6 4 -48 113 -57 113 -4 0 -13 14 -19 30 -6 17 -16 30 -22 30 -5 0 -45 -27 -88
-59z"/>
<path d="M2266 2606 c-10 -17 -29 -52 -42 -78 -14 -25 -29 -48 -34 -50 -6 -2
3 -15 20 -30 16 -14 30 -24 30 -21 0 3 25 -16 55 -42 30 -25 61 -45 69 -43 8
2 42 29 76 62 l61 58 -27 35 c-14 19 -28 32 -31 29 -3 -3 -14 6 -25 19 -11 14
-25 25 -32 25 -7 0 -25 13 -42 28 -44 43 -57 44 -78 8z"/>
<path d="M1353 2579 c-34 -13 -30 -48 7 -62 17 -6 30 -15 30 -20 0 -5 -13 -6
-30 -2 -33 7 -39 -5 -14 -29 10 -11 24 -14 42 -10 39 10 42 13 42 38 0 12 -3
26 -7 30 -5 4 -8 17 -8 28 0 25 -32 38 -62 27z"/>
<path d="M1430 2575 c0 -8 7 -15 15 -15 11 0 15 -12 15 -50 0 -43 3 -50 20
-50 17 0 20 7 20 50 0 38 4 50 15 50 8 0 15 7 15 15 0 11 -12 15 -50 15 -38 0
-50 -4 -50 -15z"/>
<path d="M1540 2531 c0 -52 2 -59 23 -65 55 -15 77 6 77 75 0 68 -25 68 -34
-1 -4 -27 -11 -50 -16 -50 -6 0 -10 23 -10 50 0 43 -3 50 -20 50 -18 0 -20 -7
-20 -59z"/>
<path d="M1665 2543 c-3 -21 -8 -48 -11 -59 -2 -14 2 -24 12 -28 26 -10 69 -7
82 6 9 9 12 8 12 -5 0 -29 28 -19 35 13 4 16 11 32 16 35 5 4 9 17 9 31 0 17
-5 24 -19 24 -15 0 -22 -10 -30 -42 l-9 -43 1 39 c1 44 -20 66 -64 66 -25 0
-29 -5 -34 -37z m65 -28 c0 -28 -4 -35 -20 -35 -20 0 -26 22 -14 54 12 30 34
18 34 -19z"/>
<path d="M1236 2563 c-27 -4 -28 -6 -21 -51 4 -26 11 -52 16 -58 5 -6 6 -14 2
-17 -9 -10 6 -9 50 4 47 13 52 42 5 32 -22 -4 -29 -3 -24 5 4 7 16 12 27 12
12 0 19 7 19 20 0 22 -28 28 -47 9 -8 -8 -13 -8 -18 0 -4 7 6 14 24 17 17 4
31 13 31 20 0 14 -9 15 -64 7z"/>
<path d="M1844 2532 c-6 -4 -16 -22 -22 -40 -23 -66 25 -113 77 -75 48 37 37
123 -17 123 -15 0 -32 -4 -38 -8z m54 -49 c3 -22 -22 -48 -38 -38 -14 8 -13
38 2 53 16 16 32 10 36 -15z"/>
<path d="M1085 2512 c-16 -9 -32 -18 -34 -19 -2 -1 4 -14 13 -28 18 -27 7 -35
-14 -10 -23 28 -100 12 -100 -21 0 -16 48 -104 57 -104 20 0 63 45 63 66 0 29
16 32 25 3 5 -16 12 -19 28 -14 12 4 32 9 45 12 12 3 22 12 22 20 0 12 -8 14
-35 9 -38 -7 -51 12 -15 21 11 3 20 12 20 20 0 12 -8 14 -32 10 l-33 -5 28 11
c16 7 26 17 25 26 -4 22 -27 22 -63 3z m-51 -94 c9 -33 8 -38 -9 -38 -17 0
-39 36 -30 50 11 18 33 11 39 -12z"/>
<path d="M1968 2493 c-29 -8 -30 -35 -1 -65 15 -16 21 -28 13 -28 -7 0 -19 8
-26 18 -9 12 -16 14 -24 6 -26 -26 20 -62 67 -52 13 3 18 12 17 36 -1 21 3 32
12 32 22 0 17 27 -8 44 -12 9 -25 15 -28 15 -3 -1 -12 -3 -22 -6z m37 -33 c3
-5 1 -10 -4 -10 -6 0 -11 5 -11 10 0 6 2 10 4 10 3 0 8 -4 11 -10z"/>
<path d="M414 2368 c-31 -29 -74 -74 -95 -100 l-39 -46 80 -57 79 -56 36 32
c19 18 35 38 35 44 0 7 18 27 40 46 22 19 40 37 40 42 0 4 -13 22 -30 40 -16
17 -43 49 -59 70 l-30 39 -57 -54z"/>
<path d="M2087 2392 c-21 -23 -22 -75 -3 -91 20 -17 71 -10 71 9 0 11 -8 14
-28 12 -26 -3 -28 -1 -25 25 2 20 9 29 26 31 15 2 22 -2 22 -13 0 -10 7 -15
17 -13 42 8 12 58 -36 58 -15 0 -35 -8 -44 -18z"/>
<path d="M2502 2347 c-58 -59 -74 -88 -53 -101 5 -4 35 -40 67 -82 46 -62 59
-73 66 -60 5 9 14 16 20 16 21 0 128 72 128 86 0 8 -9 23 -20 34 -11 11 -20
22 -20 25 0 7 -17 28 -55 70 -16 18 -35 41 -41 51 -6 10 -15 19 -20 21 -5 2
-37 -25 -72 -60z"/>
<path d="M827 2362 c-24 -26 -21 -65 6 -90 44 -41 107 -18 107 40 0 54 -78 89
-113 50z m63 -19 c0 -5 3 -18 6 -30 5 -18 2 -23 -14 -23 -25 0 -46 25 -38 45
5 15 46 22 46 8z"/>
<path d="M2188 2328 c-52 -64 -52 -65 -21 -93 15 -13 32 -25 37 -25 5 0 22
-15 37 -32 l27 -33 26 24 c29 28 30 26 15 -18 -6 -17 -8 -39 -4 -49 6 -16 7
-16 16 1 6 9 16 17 23 17 7 0 25 13 40 29 21 22 26 33 19 46 -9 15 -12 14 -27
-9 -24 -37 -36 -32 -24 10 16 61 -4 65 -58 14 -34 -34 -45 -39 -40 -23 5 15 1
25 -14 36 -11 7 -17 17 -13 20 3 4 14 0 23 -8 10 -9 25 -13 34 -9 20 7 21 24
2 24 -17 0 -41 28 -32 37 3 4 17 -4 30 -16 23 -21 46 -22 46 -1 0 5 -16 21
-36 37 l-37 28 -44 -50 c-24 -28 -41 -41 -37 -30 4 11 20 32 36 47 30 29 32
36 19 56 -6 10 -17 3 -43 -30z"/>
<path d="M763 2309 c-9 -9 -3 -23 24 -55 34 -42 56 -54 67 -35 3 5 -10 25 -29
45 -19 21 -35 42 -35 47 0 12 -14 11 -27 -2z"/>
<path d="M698 2254 c-37 -19 -36 -52 1 -88 24 -23 35 -27 58 -21 54 13 70 50
37 86 -15 17 -18 17 -40 2 -31 -20 -31 -37 1 -31 16 3 25 1 25 -7 0 -19 -28
-27 -51 -15 -26 14 -24 43 3 55 12 6 23 16 26 23 5 16 -27 15 -60 -4z"/>
<path d="M606 2145 c-15 -19 -23 -35 -19 -35 4 0 24 -14 43 -29 34 -29 34 -29
16 -50 -22 -24 -50 -20 -80 11 -12 13 -22 16 -28 10 -17 -17 -3 -37 47 -63
l47 -24 16 24 c10 14 34 45 55 70 39 49 47 75 21 69 -14 -2 -23 -13 -41 -47
-1 -1 -7 0 -13 4 -8 5 -5 14 9 29 14 15 17 25 10 36 -8 13 -13 10 -34 -13 -15
-17 -25 -23 -25 -14 0 8 7 20 15 27 19 16 19 30 1 30 -7 0 -26 -16 -40 -35z"/>
<path d="M1258 2164 c-16 -8 -28 -17 -28 -19 0 -2 11 -21 25 -41 14 -20 25
-47 25 -60 0 -21 -5 -24 -42 -25 -24 0 -52 -4 -63 -8 -14 -6 -29 -2 -47 11
l-28 19 7 -48 c3 -26 12 -60 19 -75 18 -35 18 -58 -1 -72 -10 -7 -17 -29 -18
-55 l-1 -43 -43 6 -43 6 0 -50 c0 -27 5 -52 10 -55 13 -8 40 -72 40 -94 0 -11
-16 -23 -42 -32 -40 -15 -43 -19 -44 -55 0 -43 -9 -68 -36 -103 -10 -14 -16
-32 -12 -43 3 -11 0 -20 -10 -24 -9 -3 -16 -17 -16 -30 0 -17 -6 -24 -19 -24
-35 0 -52 -12 -66 -46 -8 -19 -21 -34 -29 -34 -18 0 -21 -27 -6 -50 5 -8 10
-10 10 -5 0 6 16 -7 35 -28 45 -49 49 -110 10 -147 -19 -18 -22 -26 -14 -37 6
-7 20 -13 30 -13 11 0 18 -3 18 -7 -6 -36 3 -52 32 -58 19 -4 27 -10 20 -14
-20 -13 6 -94 34 -105 32 -12 50 -5 90 34 22 22 49 43 60 46 34 11 55 36 55
66 0 23 4 28 25 28 14 0 25 -5 25 -11 0 -8 12 -9 38 -4 20 4 49 6 63 6 21 -1
30 8 50 46 21 42 62 93 74 93 3 0 5 -9 5 -20 0 -15 7 -20 29 -20 16 0 31 -6
35 -15 7 -20 46 -18 71 3 17 14 32 49 50 118 2 6 17 14 33 17 49 10 75 57 80
148 4 74 3 79 -23 103 -19 18 -27 35 -27 58 1 58 8 73 45 91 25 11 37 24 37
37 0 12 8 23 18 26 41 14 62 29 62 46 0 10 4 18 10 18 5 0 7 -7 3 -16 -3 -8 3
-25 14 -37 11 -12 23 -39 26 -61 7 -47 12 -52 32 -36 14 12 15 10 10 -12 -5
-21 -2 -29 14 -38 17 -8 20 -18 17 -43 -3 -18 -6 -39 -7 -47 -1 -8 -1 -41 -1
-72 2 -55 3 -58 27 -58 16 0 31 -10 42 -27 24 -38 32 -43 78 -43 29 0 48 7 66
24 24 22 26 31 32 146 4 72 2 130 -3 141 -6 10 -10 42 -10 72 0 37 -5 59 -15
67 -14 12 -13 15 5 35 11 12 20 28 20 37 0 9 7 29 15 44 21 42 19 69 -11 101
-14 15 -33 40 -42 55 -17 29 -64 39 -77 18 -10 -16 -19 -12 -30 12 -6 13 -18
24 -27 26 -13 2 -17 -5 -20 -35 -3 -33 -7 -39 -36 -47 -26 -7 -36 -6 -43 5 -6
10 -2 15 16 17 25 3 44 40 31 61 -4 5 -2 12 4 16 10 6 15 85 5 85 -2 0 -16 -5
-30 -12 -20 -9 -26 -17 -22 -35 2 -13 0 -26 -4 -29 -5 -3 -9 4 -9 15 0 12 -7
21 -15 21 -8 0 -15 4 -15 9 0 5 -16 11 -36 13 -49 6 -95 -36 -88 -82 5 -27 2
-32 -30 -45 -19 -8 -47 -27 -61 -42 -23 -26 -25 -26 -25 -7 0 11 3 24 7 27 3
4 8 18 9 32 2 20 -2 25 -21 25 -22 0 -23 4 -22 53 2 75 -30 135 -86 166 -44
24 -80 23 -75 -1 4 -19 -41 -22 -48 -4 -3 9 -14 16 -23 16 -10 0 -28 11 -41
25 -27 29 -70 32 -112 9z"/>
<path d="M2405 2137 c5 -19 -1 -28 -29 -48 -20 -13 -36 -27 -36 -31 0 -16 38
-7 65 14 22 17 31 19 46 10 30 -19 33 6 4 43 -31 41 -58 47 -50 12z"/>
<path d="M203 2063 c-17 -27 -40 -73 -51 -103 -11 -30 -23 -63 -27 -72 -5 -12
-3 -18 6 -18 8 0 27 -7 43 -15 15 -8 53 -22 84 -30 57 -14 71 -10 72 22 0 17
43 106 55 115 7 5 7 8 0 8 -5 0 -2 5 8 11 25 15 21 26 -17 44 -19 9 -37 23
-40 31 -3 8 -11 14 -18 14 -7 0 -24 9 -38 20 -14 11 -30 20 -36 20 -6 0 -24
-21 -41 -47z"/>
<path d="M2753 2078 c-24 -10 -43 -22 -43 -27 0 -4 -20 -16 -45 -27 -25 -10
-45 -21 -45 -24 0 -3 7 -18 15 -34 9 -16 13 -36 11 -43 -3 -7 1 -13 10 -13 8
0 14 -6 13 -12 -1 -7 3 -26 10 -43 6 -16 14 -36 16 -44 3 -8 14 -11 28 -8 12
3 55 11 95 18 l74 14 -6 39 c-4 22 -20 68 -36 103 -17 36 -30 70 -30 77 0 7
-6 19 -12 28 -12 14 -17 14 -55 -4z"/>
<path d="M2432 2043 c-34 -23 -50 -39 -44 -45 14 -14 41 -3 82 32 55 46 26 56
-38 13z"/>
<path d="M2461 2004 c-25 -13 -49 -28 -55 -34 -14 -14 19 -23 42 -11 16 9 21
7 25 -9 3 -11 12 -20 21 -20 19 0 20 13 6 41 -8 15 -7 19 5 19 8 0 15 -6 15
-14 0 -20 19 -31 32 -18 7 7 4 20 -11 41 -26 36 -22 36 -80 5z"/>
<path d="M510 1987 c-19 -9 -26 -22 -28 -50 -3 -35 -1 -38 39 -56 l42 -19 19
23 c29 37 24 82 -12 100 -35 18 -29 18 -60 2z m58 -54 c3 -19 -1 -23 -22 -23
-28 0 -41 14 -32 36 9 24 50 13 54 -13z"/>
<path d="M2508 1916 c-32 -11 -58 -26 -58 -33 0 -7 6 -13 13 -13 19 0 104 34
106 43 6 20 -9 21 -61 3z"/>
<path d="M2513 1867 c-24 -14 -33 -26 -33 -45 0 -36 10 -49 43 -57 33 -9 36 9
5 34 -27 22 -16 41 23 41 26 0 29 -3 23 -25 -7 -29 15 -35 36 -10 11 13 11 20
0 40 -20 37 -58 46 -97 22z"/>
<path d="M430 1851 c-15 -29 -13 -39 15 -66 43 -44 115 -23 115 32 0 29 -27
50 -43 34 -9 -9 -9 -14 2 -20 19 -12 6 -41 -17 -41 -10 0 -27 9 -37 20 -18 20
-18 21 3 27 30 7 28 33 -3 33 -14 0 -29 -8 -35 -19z"/>
<path d="M2548 1751 c-28 -14 -32 -21 -30 -46 5 -43 19 -55 62 -55 58 0 90 51
58 92 -20 24 -54 28 -90 9z m62 -36 c17 -20 4 -35 -31 -35 -21 0 -29 5 -29 18
0 10 3 22 7 25 11 12 40 8 53 -8z"/>
<path d="M2845 1757 c-22 -6 -43 -15 -46 -20 -3 -5 -12 -8 -20 -7 -8 1 -23 -1
-35 -5 -22 -7 -23 -36 -3 -80 5 -11 10 -47 11 -80 l3 -60 95 -3 96 -3 2 87 c1
53 -2 92 -9 100 -6 8 -9 24 -7 37 5 25 -13 48 -34 46 -7 -1 -31 -6 -53 -12z"/>
<path d="M102 1729 c-12 -19 -31 -154 -32 -221 l0 -28 88 0 c48 0 92 4 99 8
12 7 37 197 28 212 -3 4 -34 13 -70 20 -36 7 -68 16 -71 21 -9 15 -29 10 -42
-12z"/>
<path d="M399 1679 c-11 -11 -18 -27 -15 -36 3 -8 6 -19 6 -23 0 -16 39 -31
65 -24 33 8 47 70 20 91 -27 19 -52 16 -76 -8z"/>
<path d="M2553 1623 c-16 -6 -17 -47 -3 -74 14 -24 35 -24 60 1 11 11 20 16
20 10 0 -17 19 -11 30 10 22 42 -34 82 -68 48 -9 -9 -12 -9 -12 0 0 13 -7 14
-27 5z m24 -45 c-3 -8 -6 -5 -6 6 -1 11 2 17 5 13 3 -3 4 -12 1 -19z"/>
<path d="M375 1524 c-14 -15 -25 -30 -25 -34 0 -4 11 -19 25 -34 31 -33 77
-35 99 -4 50 71 -40 136 -99 72z m76 -14 c16 0 10 -29 -9 -39 -21 -11 -52 3
-52 24 0 16 19 25 38 19 8 -2 18 -4 23 -4z"/>
<path d="M2653 1479 c-6 -6 -33 -17 -59 -24 -59 -15 -70 -35 -21 -35 24 0 46
-9 66 -26 l31 -26 0 25 c0 14 -7 28 -17 31 -15 6 -15 8 2 19 9 8 16 21 14 31
-3 13 -7 14 -16 5z"/>
<path d="M2865 1420 c-3 -5 -28 -10 -56 -10 l-49 0 0 -60 c0 -33 -3 -60 -8
-60 -4 0 -6 -18 -4 -40 3 -25 0 -40 -7 -40 -6 0 -11 -4 -11 -8 0 -4 39 -16 87
-26 47 -10 92 -20 100 -23 8 -3 13 2 13 15 0 11 5 22 11 24 7 2 13 47 17 121
l5 117 -46 0 c-25 0 -49 -4 -52 -10z"/>
<path d="M113 1408 c-2 -5 -15 -8 -29 -8 -22 0 -24 -4 -24 -47 0 -25 7 -85 17
-133 l16 -86 96 32 c53 17 96 35 96 40 -1 8 -22 133 -31 181 -3 19 -12 22 -70
25 -36 1 -68 0 -71 -4z"/>
<path d="M366 1395 c-21 -31 -20 -33 7 -56 26 -22 90 -25 106 -5 19 22 10 80
-13 84 -28 6 -45 -16 -23 -32 28 -21 21 -38 -15 -34 -33 3 -34 4 -21 51 8 26
-22 21 -41 -8z"/>
<path d="M2630 1314 c0 -14 -8 -16 -50 -10 -40 5 -50 4 -50 -8 0 -17 21 -26
61 -26 19 0 29 -5 29 -14 0 -21 21 -31 31 -15 15 24 11 89 -6 89 -8 0 -15 -7
-15 -16z"/>
<path d="M428 1301 c-52 -7 -67 -16 -52 -31 6 -6 30 -6 62 -1 l53 8 -23 -24
c-18 -20 -29 -23 -55 -18 -26 5 -33 2 -33 -10 0 -8 7 -15 15 -15 8 0 15 -4 15
-10 0 -5 -4 -10 -10 -10 -5 0 -10 -12 -10 -27 l0 -27 29 28 c35 34 81 29 81
-9 0 -13 3 -30 6 -39 3 -9 2 -16 -4 -16 -5 0 -12 9 -15 20 -3 11 -12 20 -21
20 -19 0 -20 -5 -6 -31 8 -15 7 -19 -3 -19 -8 0 -17 9 -20 20 -3 11 -13 20
-22 20 -13 0 -15 -5 -10 -17 4 -10 10 -31 13 -46 4 -25 8 -27 33 -22 15 4 46
15 69 26 37 18 39 21 28 42 -7 12 -12 25 -13 29 0 3 -3 10 -7 14 -5 4 -8 16
-8 27 0 10 -9 21 -20 24 -23 6 -26 19 -6 30 16 10 10 74 -8 72 -6 -1 -32 -5
-58 -8z"/>
<path d="M2519 1243 c-1 -5 -1 -11 0 -15 0 -4 -6 -19 -14 -35 -9 -16 -11 -31
-5 -37 14 -14 40 1 40 24 0 11 5 20 11 20 7 0 9 -9 5 -24 -4 -16 -1 -26 8 -29
9 -4 16 3 20 19 10 37 25 28 19 -11 -4 -27 -2 -35 9 -35 9 0 18 17 25 45 11
46 5 55 -35 55 -9 0 -30 7 -46 15 -32 17 -36 18 -37 8z"/>
<path d="M2482 1118 c-16 -16 -15 -63 2 -77 19 -16 30 2 22 35 -5 20 -3 24 17
24 25 0 47 -17 47 -37 0 -7 -7 -13 -15 -13 -8 0 -15 -7 -15 -15 0 -22 37 -18
50 4 15 29 12 49 -10 71 -22 22 -79 27 -98 8z"/>
<path d="M296 1102 c-4 -6 -43 -19 -86 -28 -44 -10 -80 -22 -80 -28 0 -23 29
-104 59 -163 17 -34 31 -67 31 -72 0 -6 7 -11 15 -11 8 0 15 4 15 8 0 5 24 21
53 36 28 15 62 35 75 46 l22 18 -20 35 c-11 19 -27 56 -35 83 -17 59 -39 92
-49 76z"/>
<path d="M2700 1054 c-6 -14 -10 -30 -10 -36 0 -6 -14 -38 -30 -70 -17 -33
-29 -62 -27 -64 1 -2 30 -18 63 -35 32 -17 66 -38 75 -45 8 -8 19 -14 22 -14
6 0 70 116 72 130 0 3 4 10 8 17 8 13 38 106 34 108 -7 4 -166 35 -180 35 -10
0 -22 -12 -27 -26z"/>
<path d="M502 1046 c-42 -17 -52 -25 -50 -41 2 -15 10 -20 31 -18 29 2 37 -11
12 -21 -8 -3 -15 -15 -15 -26 0 -19 4 -21 33 -15 48 11 87 34 87 51 0 10 -6
14 -15 10 -18 -6 -20 5 -3 22 9 9 8 13 -5 17 -9 4 -13 13 -11 20 9 22 -9 23
-64 1z"/>
<path d="M2450 1025 c0 -9 7 -18 15 -21 25 -10 17 -23 -17 -26 -17 -2 -33 -8
-35 -14 -5 -17 106 -69 119 -56 7 7 1 15 -18 26 l-29 15 36 1 c59 0 57 25 -4
60 -60 34 -67 36 -67 15z"/>
<path d="M2372 891 l-22 -38 25 -27 c26 -28 81 -36 103 -14 31 31 6 89 -45
109 -36 13 -37 12 -61 -30z m82 -21 c13 -13 -1 -40 -21 -40 -21 0 -47 36 -37
51 6 10 42 3 58 -11z"/>
<path d="M620 897 c0 -7 5 -18 12 -25 19 -19 0 -27 -20 -9 -19 18 -42 23 -42
9 0 -4 7 -17 15 -29 8 -12 11 -24 7 -27 -5 -3 -14 6 -20 19 -13 28 -32 33 -32
10 0 -22 30 -65 44 -65 19 0 96 53 96 66 0 15 -39 64 -51 64 -5 0 -9 -6 -9
-13z"/>
<path d="M2297 799 c-24 -25 -26 -30 -12 -35 9 -4 23 0 32 8 13 14 19 14 43 2
15 -8 31 -21 34 -29 7 -19 25 -19 32 0 6 15 -23 45 -70 72 -28 16 -27 16 -59
-18z"/>
<path d="M640 790 c-11 -11 -20 -29 -20 -40 0 -24 28 -70 42 -70 19 0 88 62
88 79 0 47 -74 67 -110 31z m78 -27 c2 -7 -2 -13 -9 -13 -7 0 -21 -7 -31 -16
-16 -16 -18 -16 -24 0 -3 9 -1 23 7 32 14 17 50 15 57 -3z"/>
<path d="M2563 793 c-10 -28 -94 -124 -116 -132 -17 -6 -12 -15 43 -79 35 -40
67 -72 73 -72 5 0 22 11 37 23 33 28 154 167 149 171 -2 2 -26 15 -53 30 -27
15 -63 38 -81 52 -38 29 -44 29 -52 7z"/>
<path d="M428 793 c-10 -2 -18 -9 -18 -14 0 -5 -26 -21 -57 -34 -31 -14 -59
-27 -61 -29 -7 -8 42 -98 60 -109 10 -7 18 -16 18 -22 0 -5 18 -31 40 -57 l40
-46 72 75 73 75 -31 27 c-17 15 -33 34 -36 42 -10 24 -68 99 -76 98 -4 -1 -15
-3 -24 -6z"/>
<path d="M2236 727 c-41 -41 -9 -107 51 -107 54 0 73 73 27 109 -34 27 -50 26
-78 -2z m69 -38 c4 -12 2 -26 -4 -32 -16 -16 -45 3 -49 32 -5 30 44 30 53 0z"/>
<path d="M756 669 c-32 -38 -33 -53 -1 -85 27 -27 54 -26 88 4 21 18 23 0 2
-22 -8 -8 -15 -18 -15 -22 0 -13 53 -64 66 -64 6 0 24 18 39 40 15 22 29 40
30 40 2 0 1 -27 -2 -60 -5 -55 -4 -60 14 -60 24 0 103 66 103 86 0 12 -8 13
-35 8 -29 -5 -36 -3 -42 14 -13 33 -82 75 -114 68 -23 -4 -26 -2 -22 15 7 26
-33 69 -63 69 -13 0 -33 -13 -48 -31z m77 -16 c10 -10 -24 -43 -44 -43 -10 0
-21 5 -24 10 -3 6 -1 10 4 10 6 0 11 7 11 15 0 15 40 21 53 8z m97 -78 c0 -12
-42 -45 -50 -40 -16 10 8 45 30 45 11 0 20 -2 20 -5z"/>
<path d="M2131 639 c-20 -22 -18 -37 9 -75 25 -35 56 -39 85 -10 30 31 31 45
4 80 -26 32 -70 35 -98 5z m63 -15 c23 -9 21 -54 -3 -54 -14 0 -17 6 -13 25 2
15 0 25 -7 25 -6 0 -11 -5 -11 -12 0 -6 -3 -9 -6 -5 -7 7 4 27 16 27 4 0 15
-3 24 -6z"/>
<path d="M2070 593 c1 -26 53 -97 74 -101 24 -5 14 29 -20 65 -13 14 -24 32
-24 39 0 8 -7 14 -15 14 -8 0 -15 -8 -15 -17z"/>
<path d="M1992 558 c-17 -17 -15 -58 3 -58 8 0 15 9 15 20 0 35 42 22 54 -17
6 -19 3 -22 -26 -25 -43 -4 -38 -22 7 -26 48 -4 64 28 41 81 -13 32 -19 37
-48 37 -19 0 -39 -5 -46 -12z"/>
<path d="M2317 535 c-17 -19 -36 -35 -42 -35 -6 0 -25 -13 -43 -29 -28 -26
-31 -33 -22 -56 17 -44 81 -135 95 -135 7 0 37 19 65 43 29 23 63 49 76 58 30
20 68 68 60 76 -3 4 -6 3 -6 -2 0 -4 -9 4 -21 19 -11 14 -26 26 -33 26 -6 0
-26 16 -45 35 -18 19 -37 35 -43 35 -5 0 -24 -16 -41 -35z"/>
<path d="M593 494 c-35 -35 -63 -67 -63 -71 0 -12 53 -63 67 -63 7 0 17 -8 22
-18 5 -10 30 -29 55 -42 26 -13 51 -29 57 -37 9 -10 20 4 51 64 21 42 36 83
34 90 -3 8 -1 11 4 8 6 -3 10 -3 10 2 0 4 -25 26 -55 47 -30 21 -64 50 -76 63
-13 12 -27 23 -33 22 -6 0 -39 -30 -73 -65z"/>
<path d="M1901 515 c-13 -8 -28 -21 -33 -29 -7 -12 -14 -14 -28 -6 -12 6 -28
6 -50 -1 -27 -10 -31 -15 -28 -43 3 -28 7 -32 43 -37 38 -6 38 -6 8 -8 -38 -1
-45 -25 -11 -34 40 -11 89 39 58 58 -5 3 -10 14 -10 23 0 12 8 8 28 -16 29
-35 64 -41 95 -18 27 20 22 72 -9 101 -30 28 -30 28 -63 10z m56 -79 c-9 -22
-34 -20 -47 5 -9 15 -8 24 1 35 11 13 15 13 32 -5 11 -11 17 -26 14 -35z
m-127 4 c0 -5 -6 -10 -14 -10 -8 0 -18 5 -21 10 -3 6 3 10 14 10 12 0 21 -4
21 -10z"/>
<path d="M1090 495 c0 -8 -4 -15 -9 -15 -5 0 -12 -11 -15 -25 -6 -24 -26 -35
-26 -14 0 5 -4 7 -10 4 -21 -13 -8 -33 30 -49 22 -9 45 -16 50 -16 15 0 12 19
-5 36 -12 13 -12 19 5 47 25 40 25 47 0 47 -11 0 -20 -7 -20 -15z"/>
<path d="M1155 477 c-13 -10 -16 -21 -11 -40 4 -16 2 -27 -7 -30 -9 -3 -9 -9
-1 -23 14 -25 66 -30 84 -9 11 13 9 20 -15 45 -16 17 -25 33 -21 37 5 5 15 -2
23 -14 20 -30 33 -29 33 2 0 39 -49 58 -85 32z m32 -83 c-3 -3 -12 -4 -19 -1
-8 3 -5 6 6 6 11 1 17 -2 13 -5z"/>
<path d="M1260 457 c0 -8 11 -18 25 -21 35 -9 31 -26 -5 -26 -20 0 -30 -5 -30
-15 0 -9 9 -15 25 -15 14 0 25 -4 25 -10 0 -5 -16 -10 -36 -10 -47 0 -40 -22
11 -32 49 -11 62 1 70 63 8 58 4 64 -47 73 -30 5 -38 4 -38 -7z"/>
<path d="M1653 453 c-25 -5 -53 -38 -53 -64 0 -33 39 -69 76 -69 32 0 34 2 34
33 0 54 -12 107 -24 106 -6 -1 -21 -4 -33 -6z m23 -68 c7 -30 1 -40 -21 -32
-20 8 -20 57 0 57 8 0 17 -11 21 -25z"/>
<path d="M1397 443 c-14 -13 -6 -24 24 -35 30 -10 31 -12 25 -54 -5 -39 -3
-44 14 -44 18 0 20 7 20 60 0 57 -1 60 -24 60 -14 0 -28 5 -31 10 -7 12 -19
13 -28 3z"/>
<path d="M1513 435 c-22 -24 -15 -35 17 -28 19 3 30 1 30 -6 0 -6 -13 -11 -30
-11 -20 0 -30 -5 -30 -15 0 -10 10 -15 29 -15 17 0 33 -4 36 -10 4 -6 -8 -10
-29 -10 -25 0 -36 -4 -36 -15 0 -11 12 -15 50 -15 l51 0 -7 63 c-4 34 -9 65
-11 70 -7 12 -57 7 -70 -8z"/>
<path d="M2063 386 c-7 -12 -130 -66 -151 -66 -17 0 -37 -31 -25 -38 12 -8 45
-142 35 -142 -4 0 0 -5 8 -10 8 -5 26 -7 40 -4 38 9 110 38 110 45 0 4 25 17
55 29 56 23 66 38 40 60 -8 6 -17 21 -21 33 -4 12 -20 34 -35 50 -16 16 -29
35 -29 43 0 18 -16 18 -27 0z"/>
<path d="M930 360 c0 -5 -8 -17 -18 -27 -10 -10 -28 -41 -41 -69 l-23 -52 21
-21 c12 -12 26 -19 31 -16 5 3 11 1 15 -5 6 -9 159 -60 182 -60 6 0 9 9 6 21
-3 12 -1 24 4 28 8 5 37 144 30 146 -1 0 -45 15 -98 33 -108 36 -109 36 -109
22z"/>
<path d="M1725 270 c-22 -4 -66 -11 -97 -15 l-58 -6 0 -100 0 -99 35 0 c20 0
81 7 135 17 83 13 100 19 100 34 0 10 -5 21 -10 24 -6 4 -10 14 -9 23 1 10 -1
24 -4 32 -4 8 -13 33 -20 54 -16 45 -18 46 -72 36z"/>
<path d="M1227 264 c-3 -3 -3 -12 0 -20 3 -8 1 -20 -5 -27 -5 -6 -15 -38 -22
-70 -13 -66 -5 -81 45 -83 17 -1 72 -5 123 -9 l92 -8 0 100 0 99 -102 12
c-118 14 -123 14 -131 6z"/>
</g>
</svg>
