<?xml version="1.0" standalone="no"?>
<!DOCTYPE svg PUBLIC "-//W3C//DTD SVG 20010904//EN"
 "http://www.w3.org/TR/2001/REC-SVG-20010904/DTD/svg10.dtd">
<svg version="1.0" xmlns="http://www.w3.org/2000/svg"
 width="11800.000000pt" height="4100.000000pt" viewBox="0 0 1181.000000 413.000000"
 preserveAspectRatio="xMidYMid meet">

<g transform="translate(0.000000,413.000000) scale(0.100000,-0.100000)"
fill="#29024D" stroke="none">
<path d="M5115 4020 c-296 -20 -665 -156 -896 -330 -239 -178 -479 -495 -544
-717 -22 -78 -16 -98 28 -89 268 54 681 75 1582 81 877 5 1320 -13 1794 -71
l54 -7 -7 37 c-11 56 -126 291 -195 395 -118 178 -362 394 -563 498 -193 100
-460 179 -668 198 -155 13 -421 16 -585 5z"/>
<path d="M4625 2899 c-560 -18 -1322 -115 -1625 -205 -92 -28 -179 -70 -181
-88 0 -6 -1 -136 -2 -290 l-2 -278 70 6 c39 4 106 11 150 17 44 5 229 25 410
45 182 19 431 46 556 59 124 14 228 25 232 25 4 0 7 -294 7 -653 l0 -654 -132
-8 c-73 -4 -149 -9 -168 -10 -19 -2 -109 -8 -200 -14 -194 -14 -248 -18 -315
-26 -27 -3 -198 -16 -380 -30 -181 -14 -354 -28 -382 -32 l-53 -6 0 912 c0
595 -4 919 -10 931 -11 20 -22 17 -247 -66 l-43 -16 0 -894 c0 -492 -2 -894
-5 -894 -3 0 -86 -9 -183 -20 -97 -11 -206 -22 -242 -25 -36 -3 -81 -7 -100
-9 -19 -3 -96 -12 -170 -21 -153 -17 -340 -41 -450 -57 -41 -6 -88 -12 -105
-14 -36 -4 -207 -30 -290 -44 -33 -6 -87 -15 -120 -21 -66 -10 -110 -19 -265
-55 -189 -44 -281 -92 -255 -134 33 -53 361 -99 895 -125 289 -15 1236 -22
1836 -16 l262 3 13 25 c19 35 62 63 127 83 l57 16 -130 8 c-150 8 -186 12
-273 26 -191 32 -128 78 183 134 173 32 290 50 395 61 30 3 107 12 170 20 63
7 142 16 175 20 33 3 94 10 135 15 41 5 111 12 155 15 44 4 91 8 105 10 14 2
61 6 105 10 44 3 96 8 115 11 62 8 867 67 1080 79 52 3 122 8 155 10 63 6 321
19 740 40 260 13 592 25 841 30 148 4 275 8 282 10 6 3 12 -2 12 -10 0 -17 29
-21 270 -35 365 -21 1187 -93 1198 -105 7 -7 -68 -20 -283 -50 -166 -23 -258
-36 -280 -40 -11 -2 -31 -4 -45 -4 -17 -1 -42 -20 -79 -63 l-55 -61 100 7
c136 10 195 15 294 26 47 5 121 12 165 15 93 7 156 12 280 25 50 5 126 12 170
15 110 9 747 78 955 104 273 35 418 55 575 82 342 57 566 112 641 158 34 21
52 61 28 61 -8 0 -14 4 -14 8 0 9 -80 34 -165 51 -63 13 -298 38 -435 46 -58
4 -123 8 -145 10 -22 2 -143 7 -270 10 -126 4 -261 8 -300 10 -38 2 -249 3
-467 4 l-398 1 0 178 c0 97 7 294 15 436 8 143 14 261 12 262 -9 9 -946 184
-1174 219 l-43 7 0 238 0 238 -27 6 c-103 21 -856 116 -1308 166 -154 16 -299
32 -322 36 l-43 5 0 -325 0 -326 239 0 c131 0 266 -3 300 -6 l61 -7 0 -313 0
-314 275 0 275 0 0 -264 0 -264 -147 -6 c-82 -3 -214 -9 -295 -12 l-148 -5 -2
238 -3 238 -252 3 -253 2 0 215 0 215 -262 2 -263 3 -3 243 -2 242 -240 0
-241 0 2 225 c1 124 0 227 -2 229 -2 2 -67 9 -145 15 -151 12 -332 12 -679 0z
m2565 -389 l0 -90 -165 0 -165 0 0 90 0 90 165 0 165 0 0 -90z m-1720 -385 l0
-65 -165 0 -165 0 0 58 c0 32 3 62 7 65 3 4 78 7 165 7 l158 0 0 -65z m2130
-140 l0 -125 -90 0 -90 0 0 125 0 125 90 0 90 0 0 -125z m-1630 -330 l0 -65
-130 0 -130 0 0 65 0 65 130 0 130 0 0 -65z m2210 -245 l0 -80 -165 0 -165 0
0 80 0 80 165 0 165 0 0 -80z m-1720 -215 l0 -95 -50 0 -50 0 0 95 0 95 50 0
50 0 0 -95z"/>
</g>
</svg>
