<?xml version="1.0" standalone="no"?>
<!DOCTYPE svg PUBLIC "-//W3C//DTD SVG 20010904//EN"
 "http://www.w3.org/TR/2001/REC-SVG-20010904/DTD/svg10.dtd">
<svg version="1.0" xmlns="http://www.w3.org/2000/svg"
 width="160.000000pt" height="40.000000pt" viewBox="0 0 1700.000000 500.000000"
 preserveAspectRatio="xMidYMid meet">

<g transform="translate(0.000000,500.000000) scale(0.100000,-0.100000)"
fill="#FFFFFF" stroke="none">
<path d="M14607 4604 c-19 -19 -34 -72 -29 -102 4 -30 2 -32 -24 -32 -16 0
-53 3 -81 6 l-53 7 0 43 c0 50 -2 51 -70 64 -69 13 -90 2 -90 -49 l0 -38 -106
-7 c-277 -18 -465 -85 -584 -207 -80 -83 -115 -203 -90 -308 14 -61 41 -95
120 -156 42 -32 66 -60 83 -97 14 -29 24 -54 23 -55 -7 -7 -202 79 -209 92 -4
8 -22 22 -39 31 -29 15 -32 15 -57 -3 -43 -33 -57 -89 -43 -173 14 -82 78
-230 99 -230 8 0 20 13 25 28 11 28 12 29 41 14 33 -16 53 -10 71 24 6 10 12
21 13 23 1 2 18 -8 38 -23 85 -65 172 -74 247 -27 86 54 90 74 49 220 -24 86
-27 177 -7 225 28 67 134 126 227 126 82 0 94 -8 232 -147 75 -76 150 -142
173 -153 37 -18 42 -26 53 -73 20 -88 46 -136 83 -151 43 -17 168 -29 168 -15
0 5 14 15 30 20 35 13 37 30 9 75 l-21 34 36 0 c31 0 36 3 36 23 0 13 -5 28
-12 35 -9 9 -7 12 9 12 51 0 40 59 -18 96 -51 32 -45 42 10 15 40 -21 101 -28
101 -13 0 5 -13 29 -30 54 -26 40 -29 49 -19 76 9 27 17 32 67 43 106 22 136
65 105 154 -10 27 -23 55 -30 60 -7 6 -24 46 -38 90 -29 86 -52 130 -84 159
-15 14 -18 23 -11 37 6 10 10 33 10 53 0 32 -5 37 -55 64 -58 32 -110 45 -185
48 -25 1 -72 5 -105 9 -33 4 -64 3 -68 -1z m119 -28 c25 -9 47 -10 62 -5 14 6
42 4 70 -2 73 -18 72 -29 -1 -22 -46 4 -67 2 -67 -5 0 -16 63 -26 116 -18 46
6 97 -10 91 -28 -4 -11 -82 -14 -192 -6 -34 2 -60 0 -60 -6 0 -10 111 -26 193
-28 50 -1 53 -2 47 -24 -4 -18 4 -34 34 -68 27 -31 46 -67 60 -114 12 -38 24
-76 27 -85 5 -11 -1 -15 -26 -15 -24 0 -43 11 -76 42 -50 48 -53 65 -20 115
26 38 25 58 -5 74 -17 9 -18 7 -8 -15 10 -22 8 -29 -20 -61 -35 -40 -37 -53
-16 -81 25 -33 17 -35 -34 -10 -48 25 -49 26 -47 70 0 25 2 46 4 46 2 0 9 -15
17 -32 l14 -33 1 42 c0 33 -5 46 -26 62 -28 22 -69 28 -79 11 -3 -5 -15 -10
-25 -10 -28 0 -62 -49 -58 -84 5 -53 89 -93 244 -118 l71 -11 -71 -72 c-68
-69 -74 -73 -138 -85 -37 -6 -71 -9 -77 -5 -20 11 -11 30 24 52 37 25 63 87
44 109 -9 11 -99 36 -181 49 -42 7 -52 25 -46 91 3 35 7 41 46 59 52 24 53 41
8 117 -34 55 -34 58 -20 88 13 24 22 30 48 30 19 0 51 -6 72 -14z m-332 -16
c4 0 7 -117 5 -260 l-4 -261 60 -38 c33 -21 100 -60 148 -86 95 -51 113 -54
239 -40 63 7 71 6 105 -17 42 -28 83 -88 61 -88 -7 0 -26 7 -43 16 -32 17
-135 35 -135 24 0 -4 32 -28 70 -54 77 -51 93 -83 38 -73 -18 4 -44 9 -58 13
-21 5 -18 0 18 -31 23 -20 42 -41 42 -46 0 -16 -44 -9 -99 16 l-54 25 62 -65
c66 -71 75 -95 37 -95 -18 0 -41 19 -82 65 -32 36 -59 63 -61 61 -2 -2 5 -21
16 -42 37 -69 22 -101 -27 -59 -43 36 -72 101 -72 163 0 29 -6 56 -12 62 -7 6
-88 58 -180 116 l-166 106 -6 71 c-13 177 -17 520 -6 527 6 4 30 3 53 -1 23
-4 46 -8 51 -9z m-164 -97 c0 -5 7 -89 15 -188 8 -99 15 -196 15 -215 l0 -35
-92 0 c-105 -1 -165 -22 -223 -80 -61 -62 -71 -191 -25 -339 l22 -68 -34 -29
c-18 -15 -45 -31 -60 -34 -52 -12 -141 32 -233 114 -49 45 -101 69 -117 53
-15 -15 5 -62 43 -98 18 -17 29 -38 29 -55 0 -36 -15 -44 -45 -25 -31 20 -65
21 -65 1 0 -65 -67 97 -76 183 -5 44 -2 66 10 90 20 38 41 40 75 8 26 -25 291
-136 323 -136 30 0 21 37 -13 57 -18 11 -48 47 -72 88 -22 39 -67 96 -98 127
-48 47 -61 68 -78 123 -27 88 -26 120 5 183 54 108 191 199 367 242 116 28
327 49 327 33z m341 -19 c9 -3 19 -19 23 -36 5 -26 2 -36 -18 -53 -24 -20 -28
-32 -42 -155 -5 -41 -3 -58 7 -67 12 -9 57 -15 194 -27 43 -4 44 -17 4 -44
-39 -27 -58 -56 -59 -93 0 -36 18 -49 68 -49 60 0 74 9 179 116 96 98 112 106
181 88 39 -11 24 -24 -28 -24 -49 0 -51 -1 -132 -82 -68 -68 -95 -88 -148
-108 -73 -28 -85 -28 -155 7 -62 31 -218 124 -225 134 -3 4 -4 98 -2 209 l3
202 67 -7 c37 -4 74 -9 83 -11z m244 -149 c0 -22 -31 -33 -47 -17 -17 17 -1
44 24 40 15 -2 23 -10 23 -23z m339 -227 c25 -35 20 -39 -38 -32 -57 7 -63 5
-152 -52 -27 -17 -26 -15 10 26 21 25 43 49 47 55 5 5 30 12 57 16 26 3 50 7
54 8 4 0 14 -9 22 -21z m-196 -160 c23 -35 21 -48 -2 -29 -8 7 -36 16 -63 20
l-48 8 35 16 c49 23 55 21 78 -15z"/>
<path d="M14660 4555 c36 -19 100 -30 100 -17 0 13 -63 32 -100 32 l-25 -1 25
-14z"/>
<path d="M14745 4431 c-30 -7 -30 -7 -5 -13 22 -6 187 -22 200 -20 2 0 6 5 8
10 8 26 -125 41 -203 23z"/>
<path d="M14058 4405 c-3 -3 0 -27 8 -53 7 -26 18 -73 24 -105 13 -63 37 -76
32 -16 -8 99 -43 194 -64 174z"/>
<path d="M13927 4393 c-4 -6 -3 -22 2 -36 5 -13 15 -53 22 -88 11 -60 31 -99
51 -99 12 0 10 33 -7 108 -16 68 -56 135 -68 115z"/>
<path d="M13790 4364 c0 -14 82 -269 89 -276 4 -4 42 -1 85 7 43 8 99 15 126
15 46 0 140 33 140 49 0 22 -144 17 -200 -6 -8 -3 -38 -7 -66 -8 l-51 -3 -54
110 c-49 99 -69 132 -69 112z"/>
<path d="M13585 4370 c-317 -110 -596 -290 -841 -541 -649 -666 -808 -1667
-397 -2498 117 -236 251 -418 449 -612 332 -322 739 -522 1214 -595 140 -22
452 -24 585 -5 769 112 1391 567 1716 1256 127 270 209 633 209 928 0 180 -43
453 -101 640 -192 622 -646 1123 -1252 1383 -93 40 -102 41 -83 12 8 -13 20
-44 27 -70 11 -48 12 -48 103 -91 115 -55 254 -140 359 -219 103 -78 280 -249
360 -348 508 -628 608 -1490 257 -2215 -98 -203 -227 -385 -388 -549 -317
-322 -695 -520 -1147 -601 -124 -23 -423 -31 -555 -16 -396 46 -768 199 -1078
444 -177 140 -361 350 -488 557 -279 458 -366 1043 -234 1571 146 587 545
1085 1085 1357 83 42 107 59 140 102 22 29 66 72 99 96 32 24 54 44 50 43 -5
0 -45 -13 -89 -29z"/>
<path d="M5255 4360 c-296 -20 -665 -156 -896 -330 -239 -178 -479 -495 -544
-717 -22 -78 -16 -98 28 -89 268 54 681 75 1582 81 877 5 1320 -13 1794 -71
l54 -7 -7 37 c-11 56 -126 291 -195 395 -118 178 -362 394 -563 498 -193 100
-460 179 -668 198 -155 13 -421 16 -585 5z"/>
<path d="M14987 3655 c-10 -7 -14 -20 -11 -32 3 -11 -1 -27 -10 -35 -14 -14
-7 -20 62 -61 221 -131 404 -331 524 -572 373 -747 -8 -1654 -805 -1920 -280
-93 -609 -91 -885 7 -476 168 -818 571 -908 1069 -22 122 -22 343 0 466 48
275 182 536 378 736 l86 89 -23 51 -23 52 -109 -110 c-172 -174 -285 -360
-363 -594 -57 -171 -74 -298 -67 -506 6 -185 19 -261 72 -421 73 -221 191
-410 360 -579 173 -173 358 -287 594 -365 171 -57 298 -74 506 -67 185 6 261
19 421 72 504 167 867 575 986 1106 20 90 23 131 23 304 0 223 -10 292 -70
471 -72 216 -190 408 -350 570 -111 111 -187 172 -298 238 -60 36 -76 41 -90
31z"/>
<path d="M13970 3339 c-148 -30 -261 -150 -290 -307 -13 -75 0 -163 35 -232
31 -62 112 -135 190 -172 36 -16 65 -34 65 -40 0 -6 -91 -188 -202 -406 -112
-217 -211 -414 -220 -436 -40 -96 -9 -234 63 -288 71 -53 65 -53 749 -53 464
1 646 4 676 13 55 16 128 82 149 134 23 55 22 145 0 189 -10 19 -119 211 -242
427 -124 216 -227 401 -230 411 -4 14 8 22 57 40 263 96 331 441 125 630 -31
28 -80 60 -113 73 -56 22 -66 23 -412 25 -195 1 -375 -3 -400 -8z m800 -80
c70 -33 126 -89 159 -159 34 -72 36 -181 4 -251 -31 -68 -90 -128 -158 -161
l-60 -28 -370 0 c-368 0 -370 0 -421 24 -141 66 -216 214 -180 356 32 124 116
208 241 241 17 4 188 7 380 6 l350 -2 55 -26z m-458 -664 c5 -6 -31 -76 -300
-590 -77 -148 -144 -278 -148 -287 -6 -17 22 -18 491 -18 469 0 497 1 491 18
-7 18 -52 99 -320 571 -91 161 -166 297 -166 302 0 5 48 9 108 9 157 0 157 0
268 -195 50 -88 160 -281 245 -430 l154 -270 0 -65 c0 -79 -23 -118 -89 -149
-43 -21 -49 -22 -692 -19 -634 3 -650 3 -684 24 -55 32 -80 77 -80 145 0 53 6
71 65 181 36 68 135 261 221 430 95 189 166 316 181 328 22 17 41 20 138 20
61 0 114 -2 117 -5z m236 -465 c111 -197 202 -362 202 -365 0 -3 -180 -5 -400
-5 l-401 0 70 133 c39 72 126 237 193 365 67 127 125 232 128 232 3 0 96 -162
208 -360z"/>
<path d="M13987 3197 c-191 -60 -211 -349 -30 -438 47 -23 52 -23 373 -24 344
0 375 3 441 48 106 72 118 266 21 360 -66 64 -85 67 -446 66 -215 0 -333 -4
-359 -12z m723 -67 c116 -59 126 -222 18 -303 -38 -29 -196 -40 -475 -34 -220
4 -234 6 -274 28 -77 43 -113 153 -75 227 18 35 64 78 96 91 15 6 159 10 348
10 303 1 325 0 362 -19z"/>
<path d="M14150 3100 c-22 -22 -25 -42 -10 -71 22 -39 100 -15 100 32 0 23
-34 59 -55 59 -8 0 -24 -9 -35 -20z"/>
<path d="M14470 3100 c-38 -38 -18 -90 35 -90 35 0 55 20 55 54 0 20 -35 56
-55 56 -8 0 -24 -9 -35 -20z"/>
<path d="M14147 2932 c-33 -36 -8 -92 40 -92 25 0 53 30 53 57 0 46 -62 69
-93 35z"/>
<path d="M14467 2932 c-33 -36 -8 -92 40 -92 25 0 53 30 53 57 0 46 -62 69
-93 35z"/>
<path d="M4765 3239 c-560 -18 -1322 -115 -1625 -205 -92 -28 -179 -70 -181
-88 0 -6 -1 -136 -2 -290 l-2 -278 70 6 c39 4 106 11 150 17 44 5 229 25 410
45 182 19 431 46 556 59 124 14 228 25 232 25 4 0 7 -294 7 -653 l0 -654 -132
-8 c-73 -4 -149 -9 -168 -10 -19 -2 -109 -8 -200 -14 -194 -14 -248 -18 -315
-26 -27 -3 -198 -16 -380 -30 -181 -14 -354 -28 -382 -32 l-53 -6 0 912 c0
595 -4 919 -10 931 -11 20 -22 17 -247 -66 l-43 -16 0 -894 c0 -492 -2 -894
-5 -894 -3 0 -86 -9 -183 -20 -97 -11 -206 -22 -242 -25 -36 -3 -81 -7 -100
-9 -19 -3 -96 -12 -170 -21 -153 -17 -340 -41 -450 -57 -41 -6 -88 -12 -105
-14 -36 -4 -207 -30 -290 -44 -33 -6 -87 -15 -120 -21 -66 -10 -110 -19 -265
-55 -189 -44 -281 -92 -255 -134 33 -53 361 -99 895 -125 289 -15 1236 -22
1836 -16 l262 3 13 25 c19 35 62 63 127 83 l57 16 -130 8 c-150 8 -186 12
-273 26 -191 32 -128 78 183 134 173 32 290 50 395 61 30 3 107 12 170 20 63
7 142 16 175 20 33 3 94 10 135 15 41 5 111 12 155 15 44 4 91 8 105 10 14 2
61 6 105 10 44 3 96 8 115 11 62 8 867 67 1080 79 52 3 122 8 155 10 63 6 321
19 740 40 260 13 592 25 841 30 148 4 275 8 282 10 6 3 12 -2 12 -10 0 -17 29
-21 270 -35 365 -21 1187 -93 1198 -105 7 -7 -68 -20 -283 -50 -166 -23 -258
-36 -280 -40 -11 -2 -31 -4 -45 -4 -17 -1 -42 -20 -79 -63 l-55 -61 100 7
c136 10 195 15 294 26 47 5 121 12 165 15 93 7 156 12 280 25 50 5 126 12 170
15 110 9 747 78 955 104 273 35 418 55 575 82 342 57 566 112 641 158 34 21
52 61 28 61 -8 0 -14 4 -14 8 0 9 -80 34 -165 51 -63 13 -298 38 -435 46 -58
4 -123 8 -145 10 -22 2 -143 7 -270 10 -126 4 -261 8 -300 10 -38 2 -249 3
-467 4 l-398 1 0 178 c0 97 7 294 15 436 8 143 14 261 12 262 -9 9 -946 184
-1174 219 l-43 7 0 238 0 238 -27 6 c-103 21 -856 116 -1308 166 -154 16 -299
32 -322 36 l-43 5 0 -325 0 -326 239 0 c131 0 266 -3 300 -6 l61 -7 0 -313 0
-314 275 0 275 0 0 -264 0 -264 -147 -6 c-82 -3 -214 -9 -295 -12 l-148 -5 -2
238 -3 238 -252 3 -253 2 0 215 0 215 -262 2 -263 3 -3 243 -2 242 -240 0
-241 0 2 225 c1 124 0 227 -2 229 -2 2 -67 9 -145 15 -151 12 -332 12 -679 0z
m2565 -389 l0 -90 -165 0 -165 0 0 90 0 90 165 0 165 0 0 -90z m-1720 -385 l0
-65 -165 0 -165 0 0 58 c0 32 3 62 7 65 3 4 78 7 165 7 l158 0 0 -65z m2130
-140 l0 -125 -90 0 -90 0 0 125 0 125 90 0 90 0 0 -125z m-1630 -330 l0 -65
-130 0 -130 0 0 65 0 65 130 0 130 0 0 -65z m2210 -245 l0 -80 -165 0 -165 0
0 80 0 80 165 0 165 0 0 -80z m-1720 -215 l0 -95 -50 0 -50 0 0 95 0 95 50 0
50 0 0 -95z"/>
</g>
</svg>
